<svg width="26" height="27" viewBox="0 0 26 27" fill="none" xmlns="http://www.w3.org/2000/svg">
<g id="Frame">
<path id="Vector" d="M15.1667 8.08333C16.3633 8.08333 17.3333 7.11328 17.3333 5.91667C17.3333 4.72005 16.3633 3.75 15.1667 3.75C13.97 3.75 13 4.72005 13 5.91667C13 7.11328 13.97 8.08333 15.1667 8.08333Z" stroke="black" stroke-width="1.5" stroke-linecap="round" stroke-linejoin="round"/>
<path id="Vector_2" d="M19.5 23.25C21.295 23.25 22.75 21.795 22.75 20C22.75 18.205 21.295 16.75 19.5 16.75C17.705 16.75 16.25 18.205 16.25 20C16.25 21.795 17.705 23.25 19.5 23.25Z" stroke="black" stroke-width="1.5" stroke-linecap="round" stroke-linejoin="round"/>
<path id="Vector_3" d="M6.5 23.25C8.29492 23.25 9.75 21.795 9.75 20C9.75 18.205 8.29492 16.75 6.5 16.75C4.70508 16.75 3.25 18.205 3.25 20C3.25 21.795 4.70508 23.25 6.5 23.25Z" stroke="black" stroke-width="1.5" stroke-linecap="round" stroke-linejoin="round"/>
<path id="Vector_4" d="M12.4584 20L14.0834 15.6666L8.79419 13.5L12.0444 9.70837L15.2944 12.4168H19.0861" stroke="black" stroke-width="1.5" stroke-linecap="round" stroke-linejoin="round"/>
</g>
</svg>
