<svg width="21" height="22" viewBox="0 0 21 22" fill="none" xmlns="http://www.w3.org/2000/svg">
<g id="Icons" clip-path="url(#clip0_48_683)">
<path id="Vector" d="M17.7188 18.875H12.4031C11.6156 18.875 10.8937 18.5469 10.3031 18.0219L1.96875 9.6875L6.5625 4.4375C6.5625 6.99688 9.25312 9.6875 11.8125 9.6875H12.4688C12.4031 12.6406 13.5187 14.8063 16.4062 15.725C16.6031 15.7906 16.7344 15.8562 16.9312 15.8562C17.7187 16.0531 18.2438 16.9063 18.0469 17.6938L17.7188 18.875Z" stroke="black" stroke-width="2" stroke-miterlimit="10" stroke-linecap="round" stroke-linejoin="round"/>
<path id="Vector_2" d="M0.65625 11L9.64687 19.9906C10.1719 20.5156 10.9594 20.8438 11.7469 20.8438H17.7188" stroke="black" stroke-width="2" stroke-miterlimit="10" stroke-linecap="round" stroke-linejoin="round"/>
<path id="Vector_3" d="M6.89062 11.6562C7.43428 11.6562 7.875 11.2155 7.875 10.6719C7.875 10.1282 7.43428 9.6875 6.89062 9.6875C6.34697 9.6875 5.90625 10.1282 5.90625 10.6719C5.90625 11.2155 6.34697 11.6562 6.89062 11.6562Z" stroke="black" stroke-width="2" stroke-miterlimit="10" stroke-linecap="round" stroke-linejoin="round"/>
<path id="Vector_4" d="M9.84375 12.9688H12.7969" stroke="black" stroke-width="2" stroke-miterlimit="10" stroke-linecap="round" stroke-linejoin="round"/>
<path id="Vector_5" d="M11.1562 14.9375H14.7656" stroke="black" stroke-width="2" stroke-miterlimit="10" stroke-linecap="round" stroke-linejoin="round"/>
<path id="Vector_6" d="M18.375 1.15625L13.5844 5.94687C12.4688 7.0625 12.075 8.6375 12.4688 10.1469" stroke="black" stroke-width="2" stroke-miterlimit="10" stroke-linecap="round" stroke-linejoin="round"/>
<path id="Vector_7" d="M6.5625 5.09375C7.80937 4.7 8.925 3.78125 9.58125 2.66562L10.5 1.15625" stroke="black" stroke-width="2" stroke-miterlimit="10" stroke-linecap="round" stroke-linejoin="round"/>
</g>
<defs>
<clipPath id="clip0_48_683">
<rect width="21" height="21" fill="white" transform="translate(0 0.5)"/>
</clipPath>
</defs>
</svg>
