<svg width="24" height="24" viewBox="0 0 24 24" fill="none" xmlns="http://www.w3.org/2000/svg">
<g id="Layer_1">
<path id="Vector" d="M6 12C6 12 6.8 10.8 7.4 9.90003C7.8 9.30003 8.3 8.90003 9 8.70003L11.1 8.10003C12.3 7.80003 13.5 8.40003 13.9 9.50003L14.5 10.8C14.8 11.6 15.4 12.1 16.2 12.4L18 13" stroke="black" stroke-width="2" stroke-miterlimit="10"/>
<path id="Vector_2" d="M13 6C14.1046 6 15 5.10457 15 4C15 2.89543 14.1046 2 13 2C11.8954 2 11 2.89543 11 4C11 5.10457 11.8954 6 13 6Z" fill="black"/>
<path id="Vector_3" d="M10.6 8.09998L9.60004 12.7C9.40004 13.4 9.70004 14.1 10.1 14.6L13.5 18.3L12.5 13.6L13.4 9.49998L12.7 8.09998H10.6Z" fill="black"/>
<g id="Group">
<path id="Vector_4" d="M14.6 22H16.7C16.3 21 15.3 18.5 14.9 17.3L12 13.1L10.4 14.3L13.1 17.9L14.6 22Z" fill="black"/>
<path id="Vector_5" d="M7.60005 21.9999L9.90005 19.3999L10.7 16.9999L9.20005 15.2999L8.30005 18.1999L5.30005 21.9999H7.60005Z" fill="black"/>
</g>
</g>
</svg>
