<?xml version="1.0" encoding="UTF-8"?>
<svg version="1.1" xmlns="http://www.w3.org/2000/svg" width="512" height="512" overflow="visible">
<path d="M0 0 C2.66015625 2.0859375 2.66015625 2.0859375 5 5 C5.42265137 5.49918945 5.84530273 5.99837891 6.28076172 6.51269531 C7.69827253 8.19305239 9.07079241 9.90309634 10.4375 11.625 C10.9526416 12.27106201 11.4677832 12.91712402 11.99853516 13.58276367 C16.6955807 19.5226483 21.17545962 25.61426413 25.63964844 31.72998047 C29.72643407 37.31480532 33.91935026 42.80283252 38.1875 48.25 C39.34023582 49.73146584 40.49258564 51.21323213 41.64453125 52.6953125 C43.31361564 54.84245205 44.98758894 56.98440597 46.68115234 59.11230469 C48.26354725 61.10334778 49.82112221 63.11166828 51.375 65.125 C52.08112427 65.99366699 52.08112427 65.99366699 52.80151367 66.87988281 C56.30109834 71.4856848 56.66394512 74.43659777 56 80 C54.9609375 82.0390625 54.9609375 82.0390625 53.375 83.625 C52.74335938 84.27726562 52.11171875 84.92953125 51.4609375 85.6015625 C50.64882813 86.39304687 49.83671875 87.18453125 49 88 C47.88665644 89.1106131 46.77479645 90.22271451 45.6640625 91.3359375 C43.86350923 93.14035151 42.06032695 94.94087792 40.23974609 96.72509766 C37.30101589 99.61763956 34.48954649 102.55023487 31.8125 105.6875 C26.37037778 111.99210142 20.32053833 117.73475192 14.39746094 123.58203125 C8.8690131 129.04607656 3.37911564 134.49302611 -1.65258789 140.42773438 C-4.8096266 144.11161357 -6.90465569 145.75865295 -11.6875 146.8125 C-18.00109119 146.40252655 -21.83740498 141.26653158 -26 137 C-28.03524747 134.94344376 -30.07398741 132.89044565 -32.11523438 130.83984375 C-33.51447001 129.4290865 -34.90669047 128.01132876 -36.29101562 126.5859375 C-38.15913861 124.68270637 -40.05813767 122.82772795 -42 121 C-42.50724609 120.51354004 -43.01449219 120.02708008 -43.53710938 119.52587891 C-45.12220129 118.10873606 -45.12220129 118.10873606 -48 117 C-51.96 118.485 -51.96 118.485 -56 120 C-56.33 163.89 -56.66 207.78 -57 253 C-52.38 250.03 -47.76 247.06 -43 244 C-19.9184534 231.28874069 8.49038935 227.68328166 34.00390625 234.74609375 C35.3391355 235.15373082 36.6713039 235.57154722 38 236 C38.97235596 236.31348389 38.97235596 236.31348389 39.96435547 236.63330078 C53.59073983 241.21662734 66.0314427 248.75549778 77 258 C79.62337141 255.56171308 81.57570115 252.8680817 83.625 249.9375 C99.63793586 227.74772783 121.02094303 213.15133795 148.2265625 208.44140625 C175.57871573 205.24182725 202.12764566 211.90963235 224.0625 228.6875 C231.11009677 234.57417817 238.89513642 241.34270462 244 249 C244.20060613 251.92429077 244.2825264 254.75398273 244.27415466 257.6791687 C244.27939134 258.57658567 244.28462802 259.47400263 244.29002339 260.39861405 C244.30507402 263.41796826 244.30572965 266.43715376 244.30639648 269.45654297 C244.31401454 271.61633594 244.32244142 273.77612618 244.33161926 275.93591309 C244.3536054 281.81192201 244.36236863 287.68787889 244.36744571 293.56392431 C244.37108426 297.23261607 244.37732167 300.90129409 244.3844471 304.56998062 C244.40895536 317.3619268 244.42199658 330.15383233 244.42553711 342.94580078 C244.42917401 354.88090599 244.45907707 366.81575429 244.50094169 378.75078094 C244.53559777 388.98863577 244.55108474 399.22640527 244.55178314 409.46431839 C244.55257752 415.58296709 244.56139005 421.70135423 244.58978081 427.81994247 C244.61588124 433.57378569 244.61821138 439.32714899 244.60212517 445.08102417 C244.60030432 447.1946123 244.6070584 449.30822752 244.62294388 451.42175674 C244.64328913 454.3040327 244.63292063 457.18461125 244.61473083 460.06686401 C244.6279308 460.90626207 244.64113077 461.74566013 244.65473074 462.61049449 C244.59261901 466.90972692 244.38795935 468.51251716 241.61633396 471.99514961 C238.94184296 474.04456471 237.21404534 474.86725586 233.9453125 475.546875 C233.00042969 475.75183594 232.05554688 475.95679688 231.08203125 476.16796875 C229.61830078 476.45607422 229.61830078 476.45607422 228.125 476.75 C227.15691406 476.95753906 226.18882812 477.16507812 225.19140625 477.37890625 C217.53497051 478.99352875 210.0553277 480.15103731 202.21484375 480.23828125 C201.12032394 480.25304001 201.12032394 480.25304001 200.00369263 480.26809692 C164.70064458 480.6457372 128.66780695 474.22416467 100.08984375 451.70703125 C97.1156178 449.68398101 97.1156178 449.68398101 93.79296875 450.30859375 C92.60316406 450.68113281 91.41335938 451.05367188 90.1875 451.4375 C88.76471483 451.84707686 87.34009221 452.25030419 85.9140625 452.6484375 C85.13321289 452.86983398 84.35236328 453.09123047 83.54785156 453.31933594 C60.99964965 459.34313691 37.30452002 462.27102186 14 463 C13.3311377 463.02191406 12.66227539 463.04382813 11.97314453 463.06640625 C-58.18246419 465.05899159 -133.46483612 440.87622211 -185.46142578 392.48242188 C-199.36855486 379.08285226 -209.80358578 359.2659996 -210.23828125 339.640625 C-210.26878752 337.51049145 -210.29331994 335.38026564 -210.3125 333.25 C-210.34150391 332.22261719 -210.37050781 331.19523437 -210.40039062 330.13671875 C-210.55548697 310.6900235 -202.73132019 291.33392447 -197.32294464 272.8279686 C-196.12773687 268.73436795 -194.93769529 264.63926676 -193.74755859 260.54418945 C-193.50078684 259.69512622 -193.25401508 258.84606298 -192.9997654 257.97127056 C-192.48966717 256.21615103 -191.9795871 254.46102623 -191.46952438 252.70589638 C-190.67691279 249.97920354 -189.8837444 247.25267315 -189.09048462 244.52616882 C-183.2123103 224.31712729 -177.38645179 204.09302884 -171.55937481 183.86920738 C-169.2873037 175.98404187 -167.01312241 168.09948745 -164.73754883 160.21533203 C-164.42165078 159.12081789 -164.10575274 158.02630375 -163.78028202 156.89862251 C-162.53084054 152.56969547 -161.2813602 148.24077964 -160.03180885 143.91188431 C-156.84684427 132.87742257 -153.6646146 121.84220691 -150.4973259 110.80265713 C-148.77419094 104.79685889 -147.04527588 98.79274821 -145.31341553 92.78945923 C-144.65527752 90.50323332 -143.99964573 88.2162842 -143.34674072 85.92855835 C-142.48365888 82.9049104 -141.61215097 79.88382558 -140.73828125 76.86328125 C-140.49913498 76.01657867 -140.25998871 75.1698761 -140.01359558 74.29751587 C-139.78908218 73.5281369 -139.56456879 72.75875793 -139.33325195 71.96606445 C-139.14616165 71.31378372 -138.95907135 70.66150299 -138.76631165 69.98945618 C-136.78052413 64.83406376 -134.66086556 62.39259843 -129.70019531 59.94482422 C-128.6134552 59.40010468 -127.52671509 58.85538513 -126.40704346 58.29415894 C-125.22600037 57.72013336 -124.04495728 57.14610779 -122.828125 56.5546875 C-121.58655257 55.93917766 -120.34557593 55.32246471 -119.10516357 54.70462036 C-115.82555805 53.07534178 -112.537751 51.46332169 -109.24804688 49.85455322 C-105.99071794 48.2576302 -102.74196705 46.64346339 -99.4921875 45.03125 C-88.07254556 39.37491608 -76.6178935 33.79749182 -65.10546875 28.33203125 C-57.33019815 24.64072997 -49.63418152 20.81634367 -41.97265625 16.89453125 C-40.98782257 16.39228027 -40.00298889 15.8900293 -38.98831177 15.37255859 C-34.98552333 13.33105219 -30.98308644 11.28945326 -26.9934082 9.22241211 C-24.01465686 7.68161313 -21.02612281 6.161451 -18.03515625 4.64453125 C-16.69602928 3.94164726 -16.69602928 3.94164726 -15.32984924 3.2245636 C-9.91970408 0.50724009 -6.06794422 -0.72123813 0 0 Z M-11.34613037 21.02461243 C-12.72538885 21.68492478 -12.72538885 21.68492478 -14.13251114 22.35857677 C-15.63651285 23.08274021 -15.63651285 23.08274021 -17.17089844 23.8215332 C-18.72567209 24.56797451 -18.72567209 24.56797451 -20.31185532 25.32949543 C-36.16226809 32.94949561 -51.95634186 40.68320512 -67.71951675 48.48191357 C-73.0495035 51.11832686 -78.38422227 53.74410738 -83.73046875 56.34741211 C-88.96853664 58.89841231 -94.19350668 61.4745378 -99.41020966 64.06893349 C-101.38490106 65.04556407 -103.36408028 66.01317645 -105.34778595 66.97136497 C-108.10422173 68.30479198 -110.84262076 69.6698903 -113.57910156 71.04370117 C-114.39244965 71.42779144 -115.20579773 71.81188171 -116.04379272 72.20761108 C-119.93193798 74.202089 -122.27676284 75.68997338 -123.88935852 79.85006714 C-124.28654165 81.22587709 -124.65758282 82.60954757 -125 84 C-125.37007675 85.19201523 -125.7401535 86.38403046 -126.1214447 87.61216736 C-126.47445145 88.84737625 -126.82745819 90.08258514 -127.19116211 91.35522461 C-127.39106656 92.05123339 -127.59097101 92.74724216 -127.79693317 93.46434212 C-128.46011951 95.77614799 -129.11869824 98.08924046 -129.77734375 100.40234375 C-130.25642584 102.07540063 -130.73582518 103.74836669 -131.21551514 105.42124939 C-132.24910899 109.02793898 -133.28075813 112.63517686 -134.31088257 116.24285889 C-136.81935666 125.02745641 -139.33779533 133.80920023 -141.85491371 142.59132385 C-142.74341542 145.69170231 -143.63151696 148.79219521 -144.51957703 151.8927002 C-150.60800039 173.1445732 -156.74266189 194.38304193 -162.88024902 215.62075806 C-174.37389124 255.38009887 -174.37389124 255.38009887 -185.80215454 295.15826416 C-186.38269748 297.1855919 -186.96387244 299.21273878 -187.54574585 301.23968506 C-188.30729234 303.89358253 -189.06626054 306.54820086 -189.82421875 309.203125 C-190.03626953 309.94074066 -190.24832031 310.67835632 -190.46679688 311.43832397 C-195.5627954 329.35626101 -194.1453501 347.08429979 -185.8125 363.75 C-182.27580143 369.95050983 -178.07259713 375.00311327 -173 380 C-172.27425781 380.72445313 -171.54851562 381.44890625 -170.80078125 382.1953125 C-148.09716833 403.70399842 -117.17655909 419.56031573 -88 430 C-87.16243164 430.30244629 -86.32486328 430.60489258 -85.46191406 430.91650391 C-64.80614322 438.24887239 -42.85610465 443.13630115 -21 445 C-19.11474609 445.16435547 -19.11474609 445.16435547 -17.19140625 445.33203125 C18.00067919 447.94789489 53.87239724 444.37797636 87.66577148 434.14770508 C93.11916094 432.53961475 97.38593514 431.29047964 103 433 C105.43988379 434.42656779 107.61203278 435.84063464 109.875 437.5 C141.7452384 459.70056843 179.22081019 468.21592712 217.5625 461.5 C222.41851699 460.70115239 222.41851699 460.70115239 227 459 C227.21031483 432.55732028 227.36898555 406.11476606 227.46630955 379.67141819 C227.51270163 367.39304698 227.57594141 355.11519568 227.67895508 342.8371582 C227.76870742 332.13460835 227.82673522 321.43243504 227.84679645 310.72951931 C227.85852209 305.06305157 227.88604433 299.39766098 227.95157051 293.73153877 C228.01278083 288.39524697 228.03148029 283.06047313 228.01796913 277.7238636 C228.02043982 275.76830284 228.03827331 273.81268996 228.07284927 271.85743332 C228.52353312 261.4049828 228.52353312 261.4049828 225.02340508 251.86782646 C222.79608402 249.60524102 220.61477583 247.78828892 218 246 C217.10152344 245.22527344 216.20304687 244.45054687 215.27734375 243.65234375 C196.24821128 229.70611812 174.34823085 222.38097168 150.68359375 225.28417969 C136.37985471 227.63660238 124.01220924 233.53569166 113 243 C112.39929688 243.46921875 111.79859375 243.9384375 111.1796875 244.421875 C102.65105191 251.22948547 95.32450208 261.00233757 91 271 C91.06707891 275.15889237 94.23067237 278.3603553 96.5625 281.625 C100.51994645 287.36179126 103.77484707 293.20220008 106.625 299.5625 C106.96732666 300.31160645 107.30965332 301.06071289 107.66235352 301.83251953 C109.46971837 306.01102305 110.57953202 309.36374383 110 314 C108.0625 316.9375 108.0625 316.9375 105 319 C101.88129795 319.11473486 99.04576375 318.61130036 96 318 C95.83274414 317.44892578 95.66548828 316.89785156 95.49316406 316.33007812 C93.7257204 310.74543064 91.52530641 305.65270029 88.75 300.5 C88.35232422 299.75806396 87.95464844 299.01612793 87.54492188 298.25170898 C84.5123184 292.70795893 81.19009123 287.74452847 77 283 C75.96939453 281.77410156 75.96939453 281.77410156 74.91796875 280.5234375 C63.38382477 267.15110245 48.63742953 257.82530689 32 252 C31.08992187 251.6803125 30.17984375 251.360625 29.2421875 251.03125 C13.37114064 246.4603885 -5.59657895 247.28461871 -21 253 C-22.03898438 253.36222656 -23.07796875 253.72445312 -24.1484375 254.09765625 C-36.15706549 258.65105632 -45.79019207 266.20881971 -55 275 C-55.61359375 275.53882813 -56.2271875 276.07765625 -56.859375 276.6328125 C-65.59248086 284.60477611 -71.2262724 296.02305162 -76.4921875 306.453125 C-78 309 -78 309 -81 311 C-84.19947613 311.3403698 -86.37618586 311.24624242 -89.375 310.0625 C-91.6399131 307.1878026 -91.3740819 305.03153323 -91.30322266 301.45385742 C-90.79603003 297.34935411 -89.03480975 294.17424193 -87 290.625 C-86.63777344 289.94695312 -86.27554688 289.26890625 -85.90234375 288.5703125 C-84.14417771 285.3758142 -82.38439657 282.4517637 -80.01337433 279.66520977 C-73.65266013 272.07242567 -72.87811227 266.24232599 -73.09179688 256.5324707 C-73.09405865 255.11214832 -73.09277669 253.69181662 -73.08825684 252.27149963 C-73.0859791 248.4491202 -73.13271608 244.62878521 -73.1888485 240.80687737 C-73.23916017 236.80049266 -73.2435818 232.79405118 -73.25305176 228.78739929 C-73.27782937 221.21538403 -73.34335755 213.64430256 -73.42384768 206.07269686 C-73.51354193 197.44637804 -73.55732148 188.82001252 -73.59741116 180.1933428 C-73.68083333 162.46170088 -73.82137384 144.73092575 -74 127 C-75.43528659 127.47277368 -76.87008917 127.94701694 -78.3046875 128.421875 C-79.10374512 128.68581055 -79.90280273 128.94974609 -80.72607422 129.22167969 C-82.54493386 129.84423976 -84.34004578 130.53601831 -86.125 131.25 C-89.83908282 132.21889117 -92.31096865 132.04406548 -96 131 C-98 128.9375 -98 128.9375 -99 126 C-98.93314274 123.22285233 -98.51262897 120.7495554 -98 118 C-97.21028809 117.75072754 -96.42057617 117.50145508 -95.60693359 117.24462891 C-91.0963058 115.68816617 -86.70492952 113.89086765 -82.2890625 112.0859375 C-80.38571546 111.31696834 -78.48205987 110.54876255 -76.578125 109.78125 C-73.5976678 108.57885065 -70.61910962 107.37258477 -67.64550781 106.15332031 C-64.76088295 104.97216144 -61.86957535 103.8088733 -58.9765625 102.6484375 C-58.0961026 102.28285736 -57.2156427 101.91727722 -56.3085022 101.5406189 C-50.93255264 99.40603838 -46.78928127 98.51594638 -41 99 C-38.9609375 100.0390625 -38.9609375 100.0390625 -37.375 101.625 C-36.40046875 102.56859375 -36.40046875 102.56859375 -35.40625 103.53125 C-34.6121875 104.3459375 -33.818125 105.160625 -33 106 C-31.86595048 107.13678217 -30.7304096 108.27207762 -29.59375 109.40625 C-27.75417491 111.2419472 -25.91866709 113.08046846 -24.09912109 114.93603516 C-20.56022092 118.53080745 -16.9292589 121.83509542 -13 125 C-9.98611927 123.64941886 -7.8965323 122.14395225 -5.57421875 119.8046875 C-4.94193359 119.17046875 -4.30964844 118.53625 -3.65820312 117.8828125 C-3.00787109 117.22023438 -2.35753906 116.55765625 -1.6875 115.875 C-1.04876953 115.235625 -0.41003906 114.59625 0.24804688 113.9375 C3.36117621 110.79598347 6.36444631 107.61091427 9.23046875 104.2421875 C12.23579418 100.75983303 15.45204561 97.53038267 18.75 94.328125 C19.25714035 93.83357819 19.7642807 93.33903137 20.28678894 92.82949829 C22.39530373 90.77523921 24.50517727 88.72292923 26.63330078 86.68896484 C28.20442994 85.18410809 29.75942679 83.66407918 31.3125 82.140625 C32.69888672 80.80306152 32.69888672 80.80306152 34.11328125 79.43847656 C36.20815927 77.24546281 36.20815927 77.24546281 35.99804688 74.96386719 C34.78059342 72.5682714 33.36891313 70.56188816 31.71875 68.4375 C31.04650391 67.56480469 30.37425781 66.69210938 29.68164062 65.79296875 C28.96169922 64.87128906 28.24175781 63.94960937 27.5 63 C26.02053303 61.08356513 24.54136379 59.16690037 23.0625 57.25 C22.35222656 56.33347656 21.64195312 55.41695312 20.91015625 54.47265625 C18.74426219 51.66895289 16.61509513 48.84215909 14.5 46 C10.18533023 40.23587085 5.84806028 34.48898227 1.5 28.75 C0.42008789 27.31720703 0.42008789 27.31720703 -0.68164062 25.85546875 C-1.35388672 24.96988281 -2.02613281 24.08429687 -2.71875 23.171875 C-3.32654297 22.3684668 -3.93433594 21.56505859 -4.56054688 20.73730469 C-5.03556641 20.16399414 -5.51058594 19.59068359 -6 19 C-7.90649386 19 -9.66395847 20.21764614 -11.34613037 21.02461243 Z " fill="#000000" stroke="#000000" stroke-width="10" stroke-linejoin="round" stroke-linecap="round" transform="translate(239,16)"/>
<path d="M0 0 C2.46707499 1.69273759 4.2858334 3.18301139 6.375 5.25 C18.69218384 16.55569305 32.77895087 25.16869003 48 32 C49.79630859 32.81404297 49.79630859 32.81404297 51.62890625 33.64453125 C84.01786633 47.44565232 119.94446358 48.51945653 153.5546875 38.671875 C157.38869645 37.92419979 160.20156981 38.15434703 164 39 C166.23918419 40.8057937 166.84945187 42.08353828 167.3125 44.90234375 C167.51782877 48.3480171 167.57725123 50.17799425 165.53515625 53.0859375 C161.95571079 55.7884464 158.31919662 56.59493398 154 57.625 C153.14857422 57.83737305 152.29714844 58.04974609 151.41992188 58.26855469 C106.0470254 69.36238267 60.07893133 61.26911192 20 38 C11.55996724 32.86369429 3.73828535 26.9867163 -3.8125 20.625 C-4.39378662 20.13717041 -4.97507324 19.64934082 -5.57397461 19.14672852 C-8.7433602 16.39051444 -11.21396691 13.82362014 -13 10 C-12.93611417 6.29462195 -12.79259706 3.98282035 -10.4375 1.0625 C-6.9540227 -0.45593882 -3.7023089 -0.6373146 0 0 Z " fill="#000000" stroke="#000000" stroke-width="10" stroke-linejoin="round" stroke-linecap="round" transform="translate(125,374)"/>
</svg>
