<?xml version="1.0" encoding="UTF-8"?>
<svg version="1.1" xmlns="http://www.w3.org/2000/svg" width="512" height="512" overflow="visible">
<path d="M0 0 C5.23410874 1.59684673 7.00428791 4.5108058 9.6875 9.125 C15.17620555 19.66541225 16.61339768 30.77395383 13.125 42.3125 C10.8434514 48.48417103 7.37409582 54.43840418 2.6875 59.125 C0.79656446 59.22071665 -1.09496618 59.30964179 -2.98754883 59.36376953 C-20.30943001 59.89871258 -36.50491678 63.52596167 -49.625 75.6875 C-55.04475161 81.49998724 -58.6903239 88.12591623 -62.3125 95.125 C-63.6505118 97.67943242 -64.99081568 100.23264875 -66.33203125 102.78540039 C-67.22347022 104.48847914 -68.10906555 106.19463166 -68.98828125 107.90405273 C-69.59349609 109.07303101 -69.59349609 109.07303101 -70.2109375 110.265625 C-70.56849121 110.96204102 -70.92604492 111.65845703 -71.29443359 112.37597656 C-72.3125 114.125 -72.3125 114.125 -74.3125 116.125 C-77.8125 116.375 -77.8125 116.375 -81.3125 116.125 C-83.3125 114.125 -83.3125 114.125 -83.6875 111 C-83.23455289 106.31954654 -81.64753416 103.13833996 -79.3125 99.125 C-107.75046318 100.22087527 -134.83570665 111.75293285 -154.5 132.375 C-165.11701954 144.47268153 -174.49609879 160.44458804 -174.42602539 176.8190918 C-174.42617142 177.7071048 -174.42631744 178.5951178 -174.4264679 179.51004028 C-174.42577068 182.44812454 -174.41798718 185.38614556 -174.41015625 188.32421875 C-174.40829139 190.36017319 -174.40686781 192.39612808 -174.40586853 194.43208313 C-174.40204869 199.79311357 -174.39222292 205.15411697 -174.38116455 210.51513672 C-174.37093899 215.9846968 -174.36636845 221.45426124 -174.36132812 226.92382812 C-174.35060021 237.65756397 -174.33353015 248.39127974 -174.3125 259.125 C-171.44674572 259.14398342 -168.58111919 259.15780143 -165.71533203 259.16870117 C-164.91082108 259.17455986 -164.10631012 259.18041855 -163.27742004 259.18645477 C-156.7862324 259.20493848 -150.57599441 258.61572406 -144.1875 257.4375 C-143.17107422 257.25670898 -142.15464844 257.07591797 -141.10742188 256.88964844 C-121.13669067 253.17754609 -102.18954877 246.58662527 -88.3125 231.125 C-87.01180045 228.94846073 -87.01180045 228.94846073 -86.3125 227.125 C-87.04726562 227.01542969 -87.78203125 226.90585937 -88.5390625 226.79296875 C-93.14659316 225.6832677 -96.52634144 222.88273833 -100.3125 220.125 C-100.91320312 219.71636719 -101.51390625 219.30773437 -102.1328125 218.88671875 C-111.7440671 211.66710192 -118.27911429 198.73849823 -120.3125 187.125 C-120.6789905 182.42725816 -120.87455903 177.81100381 -120.3125 173.125 C-118.3125 171.125 -118.3125 171.125 -114.875 170.75 C-111.3125 171.125 -111.3125 171.125 -109.640625 172.7421875 C-107.95754339 175.76183391 -107.79043693 178.18622679 -107.5 181.625 C-106.14163546 192.33603843 -101.46659082 201.90927678 -93.3125 209.125 C-87.51932296 213.39052419 -81.73873919 215.90294539 -74.7578125 217.58203125 C-67.77359581 221.98900504 -66.14175043 234.59251571 -63.9375 242 C-63.74307312 242.65128876 -63.54864624 243.30257751 -63.34832764 243.97360229 C-55.38875736 270.75931845 -49.66245487 298.10488468 -49.3125 326.125 C-49.29630615 327.15077148 -49.29630615 327.15077148 -49.27978516 328.19726562 C-49.14172472 354.78376103 -58.31633639 383.38555007 -67.3125 408.125 C10.8975 408.125 89.1075 408.125 169.6875 408.125 C167.7075 402.185 165.7275 396.245 163.6875 390.125 C162.40385149 385.40854714 161.13765772 380.71881073 159.98168945 375.97412109 C159.49744183 373.98951579 159.00050182 372.0083996 158.50195312 370.02734375 C157.51562534 366.07051597 156.58338922 362.1032425 155.6875 358.125 C155.46497055 357.14069504 155.46497055 357.14069504 155.23794556 356.13650513 C152.99389106 345.97496924 152.15559739 336.2078582 152.25 325.8125 C152.25337372 325.08099731 152.25674744 324.34949463 152.26022339 323.5958252 C152.35540204 309.18861871 153.85147806 295.26439149 156.6875 281.125 C156.92355957 279.94019043 157.15961914 278.75538086 157.40283203 277.53466797 C160.40460124 262.88967274 164.24899352 248.61991992 168.9375 234.4375 C169.15182678 233.78349213 169.36615356 233.12948425 169.5869751 232.45565796 C173.48107427 220.66856386 173.48107427 220.66856386 176.6875 218.125 C179.0703125 217.16796875 179.0703125 217.16796875 181.8125 216.3125 C192.9169079 212.43035212 201.11387315 205.69303307 206.4375 195.125 C208.75853531 189.71432425 209.81655279 184.22175468 210.70019531 178.43164062 C211.49803443 173.31446557 211.49803443 173.31446557 213.6875 171.125 C217.125 170.6875 217.125 170.6875 220.6875 171.125 C223.21439001 174.08523195 223.68446988 175.77918802 223.71875 179.69140625 C223.56616228 181.02646533 223.38781828 182.35876438 223.1875 183.6875 C223.08711426 184.39350342 222.98672852 185.09950684 222.88330078 185.8269043 C220.44140087 201.13120895 212.37470018 212.69708666 200.3984375 222.25 C193.35 227.125 193.35 227.125 188.6875 227.125 C196.83955913 241.30249415 213.28131574 249.37915967 228.52880859 253.578125 C241.57854531 256.88409766 254.70326863 259.33024838 268.1875 259.1875 C269.00992187 259.18298828 269.83234375 259.17847656 270.6796875 259.17382812 C272.68232396 259.16218489 274.68492227 259.14425556 276.6875 259.125 C276.80381068 247.4847009 276.89242588 235.8445421 276.94656086 224.20377827 C276.97255482 218.7973445 277.00776502 213.39131094 277.06469727 207.98510742 C277.11938266 202.75902103 277.14899708 197.53331741 277.16188622 192.30696678 C277.17106092 190.32202321 277.18897557 188.33709846 277.21615028 186.35231972 C277.36777483 174.809522 276.98095765 165.61567062 271.6875 155.125 C271.23414024 154.12499214 271.23414024 154.12499214 270.7716217 153.1047821 C266.95653534 144.8356436 261.73805592 137.87202279 255.6875 131.125 C255.13578125 130.49078125 254.5840625 129.8565625 254.015625 129.203125 C236.96061006 110.79721779 210.86121859 102.31188895 186.6875 99.125 C185.02134714 99.08361843 183.35303357 99.06355313 181.6875 99.125 C182.06003906 99.78886719 182.43257813 100.45273438 182.81640625 101.13671875 C183.28949219 102.01972656 183.76257813 102.90273437 184.25 103.8125 C184.72566406 104.68261719 185.20132812 105.55273438 185.69140625 106.44921875 C186.84625216 109.55145189 186.74029562 111.01951745 185.6875 114.125 C183.6875 116.125 183.6875 116.125 180.375 116.75 C176.6875 116.125 176.6875 116.125 175.43139648 114.70947266 C175.06087158 114.0757373 174.69034668 113.44200195 174.30859375 112.7890625 C173.88328369 112.06187012 173.45797363 111.33467773 173.01977539 110.58544922 C171.10533353 107.04985364 169.31742098 103.45788082 167.54052734 99.8515625 C162.40633089 89.51193197 157.42315605 80.78490019 148.6875 73.125 C147.90117187 72.43535156 147.11484375 71.74570313 146.3046875 71.03515625 C137.64618641 64.27695325 125.26440129 59.96365804 114.2890625 60.16015625 C101.30734414 60.32620601 101.30734414 60.32620601 97.02734375 57.15234375 C95.19487601 54.54661489 93.91008452 52.0633472 92.6875 49.125 C92.27628906 48.30386719 91.86507813 47.48273438 91.44140625 46.63671875 C86.67755629 36.82879236 86.11967578 25.86282626 89.63671875 15.51171875 C91.47433945 11.33779218 93.92663009 7.73762765 96.6875 4.125 C97.326875 3.25875 97.96625 2.3925 98.625 1.5 C100.6875 0.125 100.6875 0.125 104.3125 0.1875 C107.6875 1.125 107.6875 1.125 109.6875 4.125 C109.6875 9.48469281 107.06221606 12.68385974 104.12109375 16.89453125 C100.85930593 21.96941094 100.17755534 27.2096419 100.6875 33.125 C102.44575006 40.31157639 102.44575006 40.31157639 106.6875 46.125 C109.74443161 46.81029104 112.81502226 46.90867482 115.9375 47.0625 C135.03965198 48.49976029 151.77531482 55.73688401 164.6875 70.125 C173.6875 81.27322547 173.6875 81.27322547 173.6875 85.125 C174.27426514 85.15940186 174.86103027 85.19380371 175.46557617 85.22924805 C210.64828184 87.43222302 243.32090596 97.4405202 267.6875 124.125 C275.02408413 132.73354671 281.13810603 142.78027845 285.6875 153.125 C286.02733414 153.85355698 286.36716827 154.58211395 286.71730042 155.33274841 C290.94851505 165.88583236 290.28622254 176.80141159 290.25390625 187.99609375 C290.259148 190.20899211 290.26542649 192.42188823 290.27268982 194.63478088 C290.28305104 199.25003658 290.27858887 203.86498303 290.26391602 208.48022461 C290.24665219 214.39415588 290.2703399 220.30712244 290.30540562 226.22094631 C290.32734711 230.78058811 290.32594734 235.3399973 290.3176403 239.89967537 C290.3168206 242.0809746 290.3236876 244.26229088 290.33841133 246.44354057 C290.35581567 249.48567538 290.34135291 252.52605154 290.31860352 255.56811523 C290.33029572 256.46636017 290.34198792 257.3646051 290.35403442 258.29006958 C290.28636257 262.73387291 290.14395129 264.54713567 287.30471802 268.1415863 C277.41883228 275.63343492 260.93959648 272.88642425 249.33203125 271.40234375 C237.76862562 269.69049642 226.66486937 267.1549802 215.6875 263.125 C214.6253125 262.74601562 213.563125 262.36703125 212.46875 261.9765625 C202.25122437 258.05282199 186.81991813 250.38983626 181.6875 240.125 C179.62508708 244.70992219 178.0267889 249.11105019 176.78515625 254 C176.54110046 254.95778603 176.54110046 254.95778603 176.29211426 255.93492126 C175.7704671 257.99645949 175.2591892 260.06035185 174.75 262.125 C174.57419403 262.83109406 174.39838806 263.53718811 174.21725464 264.26467896 C165.42479966 299.69638472 162.57693 332.32776036 171.6875 368.125 C171.97077148 369.24632324 172.25404297 370.36764648 172.54589844 371.52294922 C175.57439117 383.30562456 178.97858946 394.86597431 183.64233398 406.11572266 C185.38157184 410.46753044 186.24765032 413.47937381 184.6875 418.125 C181.54306484 420.22129011 180.83115865 420.37554751 177.25060272 420.37947559 C176.33731343 420.38530779 175.42402413 420.39113998 174.48305941 420.39714891 C173.47830678 420.39336958 172.47355416 420.38959026 171.43835449 420.38569641 C170.37210075 420.38952196 169.30584701 420.39334751 168.20728254 420.39728898 C164.61665455 420.40764884 161.02618558 420.40362116 157.43554688 420.3996582 C154.86857454 420.40400299 152.3016035 420.40918535 149.7346344 420.41514587 C143.47552126 420.42791088 137.21645098 420.42968437 130.95732701 420.42734561 C125.87160649 420.42556447 120.78589901 420.4273077 115.70018005 420.43157005 C114.97708341 420.43216524 114.25398676 420.43276043 113.5089781 420.43337366 C112.04014289 420.43458537 110.57130769 420.43579951 109.10247248 420.43701603 C95.32062971 420.4478983 81.5388114 420.4457257 67.75696725 420.43963119 C55.13972748 420.43446018 42.52256487 420.44572109 29.90534037 420.46472941 C16.95867152 420.48408498 4.01203921 420.4923679 -8.93464422 420.48860615 C-16.20674522 420.48669079 -23.47878052 420.48921422 -30.75086975 420.50332069 C-37.58639262 420.51644584 -44.42175807 420.51400558 -51.25728035 420.50090981 C-53.77161269 420.49853292 -56.28595576 420.50131812 -58.8002758 420.50953293 C-62.22148507 420.51990814 -65.64216497 420.51197411 -69.06335449 420.4992218 C-70.06810711 420.50659609 -71.07285974 420.51397037 -72.10805941 420.52156812 C-73.0213487 420.51436158 -73.93463799 420.50715503 -74.87560272 420.49973011 C-75.66569339 420.49978513 -76.45578406 420.49984014 -77.26981688 420.49989682 C-79.83979246 420.02822519 -80.70744887 419.14550421 -82.3125 417.125 C-84.05509994 412.64003927 -82.03045588 409.21384576 -80.3125 405 C-76.09057387 394.06683964 -73.00119145 382.92988089 -70.17089844 371.56494141 C-69.60015552 369.27774924 -69.01752075 366.99349069 -68.42285156 364.71240234 C-57.56562478 322.70513211 -65.66840902 281.7986909 -78.3125 241.125 C-79.240625 241.95 -80.16875 242.775 -81.125 243.625 C-105.38848406 264.21512791 -134.74067786 272.28068668 -166.3125 272.625 C-167.29677979 272.64344971 -168.28105957 272.66189941 -169.29516602 272.6809082 C-175.23615906 272.62914043 -180.54052977 271.94616413 -185.3125 268.125 C-186.9752085 265.32301565 -187.56603911 263.23631206 -187.59338379 259.9932251 C-187.60480408 259.17784775 -187.61622437 258.3624704 -187.62799072 257.52238464 C-187.63022644 256.63617935 -187.63246216 255.74997406 -187.63476562 254.83691406 C-187.64469543 253.89642715 -187.65462524 252.95594025 -187.66485596 251.98695374 C-187.69408734 248.87148095 -187.70770792 245.7562125 -187.71875 242.640625 C-187.73026265 240.46506753 -187.74177799 238.28951008 -187.7532959 236.11395264 C-187.77431851 231.54422056 -187.7859992 226.97455879 -187.79296875 222.40478516 C-187.80387872 216.58805619 -187.85180183 210.77227775 -187.90891266 204.95584488 C-187.9464416 200.45497067 -187.95659155 195.95431783 -187.9596405 191.45330048 C-187.96564277 189.31175344 -187.98152545 187.17020789 -188.00801086 185.02881622 C-188.16009405 171.77568977 -187.05791357 161.15118539 -181.3125 149.125 C-180.91709015 148.26716415 -180.5216803 147.40932831 -180.11428833 146.52549744 C-179.21429665 144.62766846 -178.24029367 142.81690989 -177.1875 141 C-176.81334961 140.34878174 -176.43919922 139.69756348 -176.05371094 139.02661133 C-161.07711862 113.92469897 -135.67053811 97.41366179 -107.80200195 89.96459961 C-95.77039271 86.9637192 -83.66773746 85.84938369 -71.3125 85.125 C-71.05855469 84.41085938 -70.80460937 83.69671875 -70.54296875 82.9609375 C-63.84134293 67.51528561 -49.85199124 57.38800836 -34.6875 51.25 C-24.14495518 47.50013675 -14.46231701 46.83201211 -3.3125 47.125 C0.80675785 36.89849463 3.57786903 29.12951168 -0.2421875 18.35546875 C-1.41738056 15.90643504 -2.84387755 14.03581811 -4.5625 11.9375 C-7.30503622 8.52804431 -7.30503622 8.52804431 -7.375 4.75 C-5.78540624 0.82276836 -4.15606207 0.15683253 0 0 Z " fill="#000000" stroke="#000000" stroke-width="10" stroke-linejoin="round" stroke-linecap="round" transform="translate(204.3125,46.875)"/>
<path d="M0 0 C3.5 0.5625 3.5 0.5625 5.19452 2.17777252 C6.93153627 5.35078968 6.88040988 7.66668395 6.88768005 11.28063965 C6.89306559 11.95502122 6.89845113 12.6294028 6.90399987 13.32422018 C6.91830202 15.58286913 6.91117053 17.84093386 6.90405273 20.09960938 C6.9097551 21.7193092 6.91671884 23.33900501 6.92485046 24.95869446 C6.94281062 29.35740405 6.9416083 33.75591447 6.93590808 38.15464973 C6.93282074 41.8253179 6.93890352 45.49594755 6.94494683 49.16661024 C6.95899946 57.8244849 6.95742427 66.4822609 6.94604492 75.14013672 C6.93455906 84.07661548 6.94864549 93.0127943 6.9754414 101.94923353 C6.99757933 109.61897381 7.0042402 117.28861979 6.99836498 124.95838976 C6.99499009 129.54050408 6.99744584 134.12242605 7.01461601 138.70451355 C7.03005309 143.01216498 7.02616594 147.319371 7.00731087 151.62700462 C7.00361615 153.20885824 7.00675911 154.79074463 7.01719666 156.37256813 C7.03034886 158.53034947 7.01891302 160.68664362 7.00120544 162.84436035 C7.00099616 164.05224464 7.00078688 165.26012894 7.00057125 166.50461578 C6.5 169.5625 6.5 169.5625 4.70304966 171.99800873 C2.5 173.5625 2.5 173.5625 -1.25 173.3125 C-2.85875 172.94125 -2.85875 172.94125 -4.5 172.5625 C-6.40980517 168.52403871 -6.75297987 165.29353993 -6.76069641 160.84472656 C-6.76452196 160.18244678 -6.76834751 159.52016701 -6.77228898 158.83781815 C-6.78257982 156.62617223 -6.7786344 154.41478783 -6.7746582 152.203125 C-6.7790068 150.61445883 -6.78419044 149.02579475 -6.79014587 147.43713379 C-6.80352987 143.12729059 -6.80411531 138.81753511 -6.80158257 134.50767517 C-6.80051266 130.90913309 -6.80539664 127.31060875 -6.810188 123.71207047 C-6.82128066 115.22339806 -6.82172165 106.7347699 -6.81567383 98.24609375 C-6.80963048 89.48859627 -6.82195474 80.73125931 -6.8432439 71.97378922 C-6.86085336 64.45349223 -6.86686237 56.93324638 -6.86360615 49.41292953 C-6.86179243 44.92192977 -6.86443851 40.43104457 -6.87832069 35.94006348 C-6.89088413 31.71782593 -6.88896911 27.49583899 -6.87590981 23.27360535 C-6.87354139 21.72442033 -6.8762882 20.17521775 -6.88453293 18.62605286 C-6.89497996 16.51050155 -6.88691725 14.39579436 -6.8742218 12.28027344 C-6.87438954 11.09673279 -6.87455729 9.91319214 -6.87473011 8.69378662 C-6.26520647 3.60053903 -5.23944076 0.84205298 0 0 Z " fill="#000000" stroke="#000000" stroke-width="10" stroke-linejoin="round" stroke-linecap="round" transform="translate(255.5,255.4375)"/>
<path d="M0 0 C2.9375 0.8125 2.9375 0.8125 4.9375 3.8125 C4.96838153 6.63881525 4.87862444 9.33350134 4.67578125 12.14453125 C4.6228743 12.98297073 4.56996735 13.82141022 4.51545715 14.68525696 C4.3380248 17.39564592 4.14099452 20.1039489 3.9375 22.8125 C3.83909821 24.13504791 3.83909821 24.13504791 3.7387085 25.48431396 C3.32642688 30.90648334 2.86520407 36.32307151 2.37280273 41.73852539 C2.20716487 43.58436766 2.04736312 45.43074264 1.89331055 47.27758789 C-0.15739883 71.85794922 -5.13563126 92.84021427 -23.75 110.5 C-33.00201935 118.15176948 -45.92197532 125.61176649 -58.125 126.25 C-61.0625 125.8125 -61.0625 125.8125 -63 124.6875 C-64.58475401 121.89087528 -64.52197423 119.9631804 -64.0625 116.8125 C-61.16803558 114.09978102 -58.2650193 113.09792174 -54.5 112 C-38.96155012 106.96508966 -26.54720722 97.54133283 -18.95922852 82.81274414 C-15.13999344 74.29355194 -13.35567155 65.87329525 -12.5 56.625 C-12.38342041 55.49094727 -12.26684082 54.35689453 -12.14672852 53.18847656 C-11.46703831 46.45241522 -10.87271039 39.70909772 -10.28125 32.96484375 C-10.21567398 32.22309402 -10.15009796 31.4813443 -10.08253479 30.71711731 C-9.76117936 27.07630553 -9.44784693 23.43522184 -9.15209961 19.79223633 C-9.03776579 18.45001822 -8.92327144 17.10781377 -8.80859375 15.765625 C-8.66442017 14.00460449 -8.66442017 14.00460449 -8.51733398 12.20800781 C-8.02859701 8.55940137 -7.30259411 5.28041138 -6.0625 1.8125 C-3.0625 -0.1875 -3.0625 -0.1875 0 0 Z " fill="#000000" stroke="#000000" stroke-width="10" stroke-linejoin="round" stroke-linecap="round" transform="translate(233.0625,151.1875)"/>
<path d="M0 0 C2.69018445 2.69018445 2.54006983 4.48943241 3.0078125 8.25390625 C3.08943634 8.90887589 3.17106018 9.56384552 3.25515747 10.23866272 C4.50961069 20.73004849 5.27965027 31.285505 6.09912109 41.81811523 C7.8099315 63.61146465 10.80817479 83.34279834 27.28125 99.1953125 C35.43451453 106.15735331 45.04812992 110.39426395 55.29296875 113.359375 C57 114 57 114 59 116 C59.3267107 119.07108055 59.48138276 121.15050101 57.9375 123.875 C54.02847793 126.14475475 50.44017837 125.3636399 46.26171875 124.30859375 C26.342878 118.13401147 11.56787848 105.4163118 1.625 87.25 C-5.643229 71.09285808 -6.2968624 53.21262892 -7.75 35.8125 C-7.97158103 33.29092091 -8.19423002 30.76943543 -8.41796875 28.24804688 C-9.22214442 19.04619235 -9.22214442 19.04619235 -9.60449219 14.46020508 C-9.68125183 13.54773514 -9.75801147 12.6352652 -9.83709717 11.69514465 C-10.33251143 3.49876715 -10.33251143 3.49876715 -8 0 C-4.67679974 -1.10773342 -3.30835256 -0.93312508 0 0 Z " fill="#000000" stroke="#000000" stroke-width="10" stroke-linejoin="round" stroke-linecap="round" transform="translate(283,152)"/>
<path d="M0 0 C1.12509331 3.69673515 1.47905728 5.81466458 0.01171875 9.4453125 C-4.77437932 17.88226166 -11.65944399 24.85534614 -21 28 C-32.33127859 30.77781344 -32.33127859 30.77781344 -36.82421875 28.68359375 C-39 27 -39 27 -40.125 24.625 C-40 22 -40 22 -38.25 19.3125 C-34.93192904 16.9515649 -33.57880077 16.60371012 -29.6875 16.0625 C-22.5614494 15.00076629 -18.37643053 12.16060479 -14.05859375 6.41796875 C-12.85332994 4.6591391 -11.67858714 2.87879999 -10.54296875 1.07421875 C-7.3449673 -3.22486674 -4.40099068 -1.66259648 0 0 Z " fill="#000000" stroke="#000000" stroke-width="10" stroke-linejoin="round" stroke-linecap="round" transform="translate(218,352)"/>
<path d="M0 0 C3.125 0.25 3.125 0.25 5 1.375 C6.77080745 4.32634574 6.69572835 5.82562991 6.125 9.25 C0.6918247 19.82735191 -6.8242158 26.15460984 -17.875 30.25 C-22.1753113 31.53599786 -26.42115051 31.82916358 -30.875 31.25 C-33.5 29.625 -33.5 29.625 -34.875 27.25 C-34.72705998 23.5514996 -34.51694427 21.89194427 -31.875 19.25 C-29.65842182 18.75263551 -27.42586027 18.32522872 -25.1875 17.9375 C-13.83577753 15.57448838 -10.10387778 10.75167798 -3.875 1.25 C-2.875 0.25 -2.875 0.25 0 0 Z " fill="#000000" stroke="#000000" stroke-width="10" stroke-linejoin="round" stroke-linecap="round" transform="translate(212.875,397.75)"/>
<path d="M0 0 C1.658782 2.1658708 3.06601615 4.41971161 4.49609375 6.7421875 C7.57726552 11.36794668 11.64368751 14.41745313 17 16 C19.56167123 16.47773933 22.12072564 16.93683091 24.6953125 17.33984375 C27.312227 18.08943451 28.39532982 18.81659631 30 21 C29.93000376 24.35981954 29.71450769 26.25670883 27.3515625 28.71484375 C22.35630675 31.4448091 16.26229513 29.30858349 11 28 C1.50639235 24.41432816 -4.5561144 18.21800849 -10.0625 9.875 C-11.27852182 6.14586643 -11.08284542 3.75386414 -10 0 C-6.66618099 -3.08686945 -3.73442913 -2.01659173 0 0 Z " fill="#000000" stroke="#000000" stroke-width="10" stroke-linejoin="round" stroke-linecap="round" transform="translate(303,352)"/>
<path d="M0 0 C3.50610883 0.35776621 3.88698426 0.72150114 6.0625 3.3125 C6.9565488 4.75923351 7.83025774 6.218658 8.6875 7.6875 C12.54627293 13.51832396 17.12150251 16.50003198 23.98046875 17.9140625 C25.87355672 18.20915415 27.77401427 18.46198795 29.6796875 18.66015625 C32.0625 19.3125 32.0625 19.3125 33.890625 21.17578125 C35.0625 23.3125 35.0625 23.3125 34.9375 26.4375 C34.0625 29.3125 34.0625 29.3125 31.0625 31.3125 C23.21396945 32.71869506 15.47790088 29.95412777 8.796875 25.95703125 C2.49875712 21.47382902 -3.27024991 15.68666203 -5.9375 8.3125 C-5.65990093 3.50078271 -5.26935748 0.56056994 0 0 Z " fill="#000000" stroke="#000000" stroke-width="10" stroke-linejoin="round" stroke-linecap="round" transform="translate(297.9375,397.6875)"/>
</svg>
