<?xml version="1.0" encoding="UTF-8"?>
<svg version="1.1" xmlns="http://www.w3.org/2000/svg" width="512" height="512" overflow="visible">
<path d="M0 0 C0.91899582 -0.00335861 1.83799164 -0.00671722 2.78483582 -0.01017761 C5.82873886 -0.01969164 8.87258691 -0.02163098 11.91650391 -0.02270508 C14.03016177 -0.02591742 16.14381941 -0.02928147 18.25747681 -0.03279114 C22.69102494 -0.03878359 27.12455357 -0.04063092 31.55810547 -0.04003906 C37.23994196 -0.03993745 42.92165345 -0.05358821 48.60346031 -0.07081127 C52.97004776 -0.08192856 57.33660496 -0.08395835 61.70320511 -0.08342934 C63.7979742 -0.08460992 65.89274406 -0.08903605 67.98749924 -0.0967617 C70.9175365 -0.10655571 73.84730214 -0.10368577 76.77734375 -0.09765625 C77.6429744 -0.10327576 78.50860504 -0.10889526 79.40046692 -0.11468506 C85.28908075 -0.08388289 89.16237189 0.41476594 93.62353516 4.57495117 C96.98084903 8.90332373 98.02843215 14.04111237 99.33056641 19.27026367 C99.59417969 20.25897461 99.85779297 21.24768555 100.12939453 22.26635742 C101.20694853 26.40304524 102.01806641 29.84177539 102.01806641 34.14526367 C102.60072266 34.23163086 103.18337891 34.31799805 103.78369141 34.40698242 C124.16054053 37.89924116 140.9814265 50.63323407 155.89306641 64.27026367 C156.40409912 64.73650146 156.91513184 65.20273926 157.44165039 65.68310547 C159.69531296 67.78917853 161.73747046 69.74534589 163.51708984 72.28173828 C165.95151127 75.6407503 167.5986292 77.84126061 171.76757812 78.73413086 C175.04970632 78.82632256 178.24280181 78.6860518 181.51806641 78.45776367 C183.85496129 78.37680064 186.19224771 78.30641974 188.52978516 78.24682617 C189.65046387 78.21621094 190.77114258 78.1855957 191.92578125 78.15405273 C212.66181585 78.09511564 232.45719212 89.0864885 247.01806641 103.14526367 C251.69730591 108.59947156 254.1379912 115.04290225 253.96801758 122.2746582 C253.22927657 129.85928498 251.65395833 137.2248555 249.95556641 144.64526367 C249.80189606 145.32033966 249.64822571 145.99541565 249.48989868 146.69094849 C240.80283013 184.60569341 228.09997182 225.59757119 198.01806641 252.14526367 C196.50249146 252.94855103 196.50249146 252.94855103 194.95629883 253.76806641 C190.90734904 257.04389724 190.76588501 259.71075919 190.14697266 264.70385742 C189.95535805 265.97607147 189.95535805 265.97607147 189.75987244 267.27398682 C189.48730214 269.0943504 189.22589802 270.91641445 188.97460938 272.73983765 C188.30996222 277.5351083 187.55381607 282.31594446 186.80322266 287.09838867 C186.65547394 288.0506987 186.50772522 289.00300873 186.35549927 289.98417664 C184.37139953 302.56933824 181.38655399 314.85963566 178.01806641 327.14526367 C177.73463379 328.18150879 177.45120117 329.21775391 177.15917969 330.28540039 C172.49369028 347.04443449 166.42837473 362.89911296 158.39306641 378.33276367 C158.04518066 379.00355957 157.69729492 379.67435547 157.33886719 380.36547852 C155.43140108 383.91274299 153.41975286 386.85774274 150.78369141 389.90698242 C146.97155025 394.85697716 147.26881873 399.72872052 147.39306641 405.77026367 C147.5553149 418.49054596 147.5553149 418.49054596 143.01806641 423.14526367 C137.85868702 425.82878963 133.59899469 426.57900946 127.77574158 426.5262146 C126.97361774 426.53089457 126.17149389 426.53557454 125.34506327 426.54039633 C122.67200991 426.55230999 119.99947268 426.54290348 117.32641602 426.53344727 C115.40410565 426.53751455 113.48179763 426.54285731 111.55949402 426.54937744 C106.34886958 426.56303724 101.13842363 426.55775811 95.92779613 426.54824018 C90.47200593 426.5406378 85.01623087 426.54769071 79.56044006 426.55239868 C70.4000474 426.55785407 61.23972734 426.55066979 52.0793457 426.53637695 C41.49047784 426.52004601 30.90178323 426.52534308 20.31291956 426.54185617 C11.2180527 426.55547136 2.12323799 426.55739067 -6.97163576 426.54954016 C-12.4021558 426.54486447 -17.83259441 426.54423609 -23.26310921 426.55414963 C-28.36770805 426.56281762 -33.47208352 426.55680032 -38.57665825 426.53946686 C-40.44954431 426.53550135 -42.32244919 426.53663715 -44.19532776 426.54325485 C-46.75266947 426.55145776 -49.3092962 426.54116416 -51.86659241 426.5262146 C-52.60696639 426.53290676 -53.34734037 426.53959893 -54.11014992 426.54649389 C-59.60175749 426.48426368 -63.55857972 425.15079791 -67.79443359 421.64526367 C-70.14545736 418.67554944 -70.0679948 415.88794045 -69.98193359 412.27807617 C-69.92148299 400.82604441 -70.06653914 393.24897419 -77.51318359 384.21166992 C-94.48856128 363.12674669 -100.86899053 330.42203296 -106.60693359 304.70776367 C-106.75528656 304.04450073 -106.90363953 303.38123779 -107.05648804 302.69787598 C-108.79214575 294.83780059 -110.20651964 286.99937363 -111.21630859 279.01245117 C-111.3146701 278.2617485 -111.41303162 277.51104584 -111.51437378 276.7375946 C-111.98602348 273.11746599 -112.41584615 269.50173169 -112.76953125 265.86816406 C-113.51491547 258.78950878 -113.51491547 258.78950878 -116.99267578 252.79711914 C-119.24534226 251.03922317 -121.50992209 249.57227098 -123.98193359 248.14526367 C-155.4918317 222.66503743 -169.49295897 180.720721 -175.98193359 142.14526367 C-176.17658203 140.99155273 -176.37123047 139.8378418 -176.57177734 138.64916992 C-177.09741803 134.15869661 -177.24359388 129.72571993 -177.29443359 125.20776367 C-177.33793945 123.92482422 -177.33793945 123.92482422 -177.38232422 122.6159668 C-177.46448769 114.33009649 -174.54426197 108.13823545 -168.97412109 102.05541992 C-155.56195335 89.19551791 -137.789964 79.48942177 -118.98193359 78.14526367 C-116.77595884 78.21693672 -114.5710665 78.32905037 -112.36865234 78.47338867 C-99.05669251 79.93669151 -99.05669251 79.93669151 -87.30615234 74.91479492 C-84.02684061 71.5731465 -81.23716044 67.8995779 -78.49609375 64.11108398 C-75.06468486 59.65611713 -70.47013927 56.47499895 -65.98193359 53.14526367 C-65.19947266 52.54713867 -64.41701172 51.94901367 -63.61083984 51.33276367 C-53.05102496 43.56462399 -38.4610605 34.14526367 -24.98193359 34.14526367 C-24.87236328 33.2094043 -24.76279297 32.27354492 -24.64990234 31.30932617 C-23.92441551 26.27776477 -22.62904986 21.41957481 -21.29443359 16.52026367 C-20.94735352 15.12807617 -20.94735352 15.12807617 -20.59326172 13.70776367 C-18.92512765 7.62756744 -17.33376038 4.58221665 -11.98193359 1.14526367 C-7.99165924 -0.18482778 -4.16045722 -0.002168 0 0 Z M-7.98193359 11.14526367 C-9.1095323 14.97783738 -10.23353874 18.81145583 -11.35693359 22.64526367 C-11.83259766 24.26174805 -11.83259766 24.26174805 -12.31787109 25.91088867 C-13.99226114 31.63172135 -15.58919455 37.34921837 -16.98193359 43.14526367 C-17.83013672 43.2922168 -18.67833984 43.43916992 -19.55224609 43.59057617 C-44.78005615 48.41435524 -63.81810108 63.84422808 -80.98193359 82.14526367 C-81.39266113 82.76941162 -81.80338867 83.39355957 -82.2265625 84.03662109 C-83.68423926 86.1358124 -84.91140359 87.63643005 -86.98193359 89.14526367 C-90.88253022 89.81802992 -94.56655488 89.38562417 -98.48193359 88.95776367 C-100.64665221 88.79650081 -102.81204972 88.64409679 -104.97802734 88.50073242 C-106.53626221 88.39317627 -106.53626221 88.39317627 -108.12597656 88.28344727 C-125.947221 87.42117813 -144.22561546 95.19315157 -157.48193359 106.70776367 C-163.8151732 112.73603187 -166.7398817 117.2576973 -166.98193359 126.14526367 C-166.66332835 130.47486219 -166.03520258 134.73376143 -165.35693359 139.02026367 C-165.17163086 140.21482178 -164.98632812 141.40937988 -164.79541016 142.64013672 C-158.434109 182.02781047 -142.53412232 220.83162286 -109.78735352 245.25219727 C-105.58830805 248.45556847 -102.91307512 251.62523131 -100.26318359 256.14135742 C-96.68154388 261.7431293 -91.22169886 265.13584774 -84.98193359 267.14526367 C-82.41853336 267.51951206 -79.87339818 267.76901066 -77.29052734 267.96557617 C-70.64431891 268.48287835 -70.64431891 268.48287835 -68.98193359 270.14526367 C-68.59983231 273.39123298 -68.26255318 276.63399544 -67.99560547 279.89135742 C-67.21371911 287.35041494 -64.10405559 293.00883737 -58.25537109 297.79760742 C-54.36827807 300.10181205 -50.12151553 301.14546542 -45.77490234 302.28588867 C-42.98193359 303.14526367 -42.98193359 303.14526367 -40.98193359 305.14526367 C-41.35693359 308.27026367 -41.35693359 308.27026367 -41.98193359 311.14526367 C-48.95209047 313.39370137 -55.44326676 310.62590843 -61.66943359 307.45776367 C-69.68755883 302.82158512 -74.04810486 296.89033008 -76.98193359 288.14526367 C-77.79654788 284.83126464 -78.44724757 281.51519272 -78.98193359 278.14526367 C-80.23296875 277.8900293 -80.23296875 277.8900293 -81.50927734 277.62963867 C-88.4405026 276.13700368 -94.63333265 274.29023189 -100.98193359 271.14526367 C-98.36208669 306.62952217 -87.93723345 357.27562026 -63.41943359 384.33276367 C-57.45151692 391.82261894 -58.92077207 402.90135976 -59.06030273 412.00317383 C-59.22593271 414.12819175 -59.22593271 414.12819175 -57.98193359 415.14526367 C-55.49270354 415.24520205 -53.03115807 415.27967882 -50.54138184 415.27224731 C-49.35897014 415.2745873 -49.35897014 415.2745873 -48.15267134 415.27697456 C-45.49092246 415.28098774 -42.82922985 415.2777937 -40.16748047 415.2746582 C-38.26750149 415.2760121 -36.36752277 415.27779197 -34.46754456 415.27996826 C-29.29207534 415.28454394 -24.11662597 415.28275249 -18.94115639 415.27958918 C-13.53771535 415.27706626 -8.13427606 415.27940292 -2.73083496 415.28097534 C6.34513658 415.28279724 15.4211 415.2803902 24.49707031 415.27563477 C35.00633473 415.27019211 45.51557975 415.27195475 56.02484369 415.27746117 C65.03032679 415.28199173 74.03580403 415.28264313 83.0412879 415.2800225 C88.427558 415.27845941 93.81381898 415.27826684 99.2000885 415.28155899 C104.26265946 415.28443687 109.32520529 415.28246355 114.38777351 415.27666473 C116.25147014 415.27533669 118.11516886 415.275732 119.97886467 415.2779274 C122.51177705 415.28063717 125.04460756 415.27725992 127.57751465 415.27224731 C128.32487271 415.27447804 129.07223077 415.27670876 129.84223604 415.27900708 C133.21618468 415.56487497 133.21618468 415.56487497 136.01806641 414.14526367 C136.05409194 412.52713264 136.03083398 410.90761728 135.98291016 409.28979492 C135.84562837 395.76483653 136.89833897 388.00300785 145.70898438 377.7980957 C162.54087948 356.54633706 168.55236801 323.11871517 173.89306641 297.27026367 C174.04454132 296.54038239 174.19601624 295.8105011 174.3520813 295.0585022 C175.98579838 287.12335291 177.47388452 279.24454478 178.01806641 271.14526367 C177.30521484 271.43272461 176.59236328 271.72018555 175.85791016 272.01635742 C173.10854446 273.10929647 170.35258917 274.17366156 167.58056641 275.20776367 C166.67435547 275.54936523 165.76814453 275.8909668 164.83447266 276.24291992 C161.90511402 277.1814523 159.05960504 277.71075815 156.01806641 278.14526367 C155.79892578 279.12366211 155.57978516 280.10206055 155.35400391 281.11010742 C152.86588409 291.63356451 149.7211935 300.44602089 140.42822266 306.85620117 C133.60132385 310.50754089 126.68022526 312.90548935 119.01806641 311.14526367 C118.39306641 308.27026367 118.39306641 308.27026367 118.01806641 305.14526367 C120.58490011 302.57842997 122.63836295 302.35630133 126.14306641 301.45776367 C133.84279671 299.16658286 138.71313488 295.86289517 142.95556641 289.02026367 C144.83319893 283.93961095 145.10218317 279.60103998 144.95556641 274.23120117 C145.01806641 272.14526367 145.01806641 272.14526367 146.01806641 269.14526367 C148.50556448 268.09286064 150.43366489 268.16188761 153.14306641 268.27026367 C162.34788333 267.97333409 169.52808754 264.6717715 176.01806641 258.14526367 C177.83865807 255.64935492 179.51571156 253.08636681 181.20556641 250.50073242 C184.13970421 246.68761799 187.96456927 244.62079228 192.01806641 242.14526367 C224.45777214 219.35357387 235.32112391 162.89806707 242.66992188 127.36621094 C243.53235502 121.86441971 243.44119641 117.42016853 240.43212891 112.61010742 C231.52947697 101.90375834 219.12905416 95.28281906 206.01806641 91.14526367 C205.28716797 90.91194336 204.55626953 90.67862305 203.80322266 90.43823242 C198.9424714 89.14141011 193.95953069 88.805982 188.95556641 88.45776367 C188.22474854 88.40620117 187.49393066 88.35463867 186.7409668 88.30151367 C182.98088283 88.09811072 179.50227292 88.14051772 175.78369141 88.76635742 C165.96019513 90.35986127 165.96019513 90.35986127 162.31835938 88.08227539 C158.86399905 85.0702735 156.10233391 81.50603654 153.34570312 77.86254883 C140.10724114 60.73872727 119.85381012 48.64721015 98.93212891 43.93432617 C96.01806641 43.14526367 96.01806641 43.14526367 94.01806641 41.14526367 C93.31175049 38.99896055 92.6881061 36.82513212 92.10791016 34.64135742 C91.93554337 34.00287369 91.76317657 33.36438995 91.58558655 32.70655823 C91.03583576 30.66694898 90.49514292 28.62508599 89.95556641 26.58276367 C89.41125455 24.53721622 88.86500967 22.49223593 88.31483459 20.44825745 C87.81692946 18.59639438 87.3254331 16.74281179 86.83422852 14.88916016 C86.28824052 12.25671689 86.28824052 12.25671689 85.01806641 11.14526367 C83.49878603 11.07346403 81.97639159 11.0613436 80.45556641 11.08276367 C79.62927734 11.09178711 78.80298828 11.10081055 77.95166016 11.11010742 C76.99453125 11.12750977 76.99453125 11.12750977 76.01806641 11.14526367 C75.63175049 11.87302002 75.24543457 12.60077637 74.84741211 13.35058594 C66.13204057 29.74804342 57.29537902 46.05640645 48.01806641 62.14526367 C47.43927734 63.14944336 46.86048828 64.15362305 46.26416016 65.18823242 C44.68898453 67.66209759 43.86235789 68.37653625 41.01806641 69.14526367 C35.98704391 69.38870024 35.98704391 69.38870024 33.01806641 68.14526367 C27.51646954 62.13167386 24.06768233 53.86247944 20.29638672 46.66900635 C18.55201009 43.34208004 16.79216832 40.02334611 15.03369141 36.70385742 C14.5165155 35.72624451 14.5165155 35.72624451 13.9888916 34.72888184 C9.78756619 26.79972564 5.42427595 18.96204887 1.01806641 11.14526367 C-1.95193359 11.14526367 -4.92193359 11.14526367 -7.98193359 11.14526367 Z M13.01806641 11.14526367 C19.33459674 23.86975633 19.33459674 23.86975633 26.08056641 36.33276367 C26.92370644 37.83367717 27.76614861 39.33498289 28.60791016 40.83666992 C29.01251465 41.55741699 29.41711914 42.27816406 29.83398438 43.02075195 C32.62475934 48.02803521 35.31957488 53.0878259 38.01806641 58.14526367 C40.40593091 55.12817062 42.25284903 52.02533077 44.05712891 48.62963867 C44.63382324 47.54996826 45.21051758 46.47029785 45.8046875 45.35791016 C46.41135254 44.21523682 47.01801758 43.07256348 47.64306641 41.89526367 C52.17527098 33.40781958 56.74135905 24.9500848 61.52832031 16.60327148 C63.26711535 14.02949784 63.26711535 14.02949784 64.01806641 11.14526367 C47.18806641 11.14526367 30.35806641 11.14526367 13.01806641 11.14526367 Z " fill="#000000" stroke="#000000" stroke-width="10" stroke-linejoin="round" stroke-linecap="round" transform="translate(217.98193359375,42.854736328125)"/>
<path d="M0 0 C1.670625 0.061875 1.670625 0.061875 3.375 0.125 C5.43245558 3.57949332 5.78069242 6.65527325 6.1875 10.625 C8.07749536 24.62550408 14.37090604 35.56450366 25.22265625 44.5625 C36.6446254 52.85431064 49.4921687 54.59245465 63.27734375 54.5234375 C64.55807266 54.52630768 65.83880157 54.52917786 67.15834045 54.53213501 C69.84359193 54.53416328 72.52800491 54.53026375 75.21313477 54.51611328 C78.64504898 54.49890146 82.0762653 54.50896452 85.50815487 54.52683067 C88.80624283 54.54028627 92.10424671 54.53086755 95.40234375 54.5234375 C96.62944565 54.52951019 97.85654755 54.53558289 99.12083435 54.5418396 C100.83400597 54.52765488 100.83400597 54.52765488 102.58178711 54.51318359 C103.58261826 54.51079681 104.5834494 54.50841003 105.61460876 54.50595093 C111.25974791 53.72688709 114.46974476 50.23417582 118.125 46.125 C118.99125 45.15820312 119.8575 44.19140625 120.75 43.1953125 C124.08281703 39.36355605 127.14604037 35.31897996 130.171875 31.2421875 C132.8925437 28.62764417 134.6512057 28.29333591 138.375 28.125 C140.25 29.1875 140.25 29.1875 141.375 31.125 C141.84727288 34.92440879 141.76692505 36.57925051 139.50390625 39.73046875 C138.23353516 41.00857422 138.23353516 41.00857422 136.9375 42.3125 C135.57044922 43.72982422 135.57044922 43.72982422 134.17578125 45.17578125 C133.70736816 45.65998535 133.23895508 46.14418945 132.75634766 46.64306641 C130.57383891 48.98449944 128.6116508 51.4921495 126.625 54 C121.62614845 60.14771042 117.48508464 64.70160052 109.375 66.125 C105.0203937 66.42310801 100.67609529 66.4290752 96.3125 66.42578125 C95.04841309 66.43006638 93.78432617 66.4343515 92.48193359 66.43876648 C89.80894012 66.44449991 87.13633385 66.44595877 84.46337891 66.44067383 C81.75194634 66.43606076 79.04096409 66.44288981 76.32958984 66.46118164 C40.45987314 66.70082371 40.45987314 66.70082371 27.125 59.5625 C26.13197876 59.04369263 26.13197876 59.04369263 25.11889648 58.5144043 C13.60114856 52.21993481 6.26835562 42.98416268 -0.625 32.125 C-1.01429688 32.80304688 -1.40359375 33.48109375 -1.8046875 34.1796875 C-10.91457953 49.3348535 -23.36391689 59.50246244 -40.45703125 64.43359375 C-48.64244055 66.22005176 -56.68271951 66.29914182 -65.03125 66.328125 C-66.95016052 66.33667511 -66.95016052 66.33667511 -68.90783691 66.34539795 C-71.60408927 66.35584349 -74.30031235 66.36172916 -76.99658203 66.36523438 C-80.43273144 66.37072782 -83.86848642 66.39480081 -87.30451202 66.42320633 C-90.60924973 66.44641475 -93.91393512 66.44828594 -97.21875 66.453125 C-98.44291626 66.4654718 -99.66708252 66.4778186 -100.92834473 66.49053955 C-109.89726341 66.46723106 -116.83610926 65.51592128 -123.625 59.125 C-125.08680506 57.45512779 -126.50228982 55.74385034 -127.875 54 C-130.97003124 50.10524592 -134.1802 46.4624191 -137.625 42.875 C-142.16159943 37.88632685 -142.16159943 37.88632685 -142.875 34.1875 C-142.625 31.125 -142.625 31.125 -141.5625 29.125 C-138.58434023 27.58788528 -136.81105705 28.23352418 -133.625 29.125 C-131.60923917 30.88474449 -130.0154205 32.48049692 -128.3125 34.5 C-127.84320068 35.03222168 -127.37390137 35.56444336 -126.89038086 36.11279297 C-122.9709202 40.59577129 -119.24601294 45.23995528 -115.59765625 49.9453125 C-112.92087775 52.90302023 -110.9352729 53.99777277 -106.94017029 54.38569641 C-105.40442101 54.3926075 -105.40442101 54.3926075 -103.83764648 54.3996582 C-102.6722081 54.40919022 -101.50676971 54.41872223 -100.30601501 54.42854309 C-98.42010399 54.42717598 -98.42010399 54.42717598 -96.49609375 54.42578125 C-94.54607201 54.43220894 -94.54607201 54.43220894 -92.55665588 54.43876648 C-89.80197071 54.44622478 -87.04741365 54.44594271 -84.29272461 54.44067383 C-80.79170268 54.43491474 -77.29121594 54.45172453 -73.79028225 54.4750185 C-70.42136588 54.49346342 -67.05256007 54.4895665 -63.68359375 54.48828125 C-62.44048935 54.497491 -61.19738495 54.50670074 -59.91661072 54.51618958 C-45.66566752 54.44143937 -30.97677568 50.47677568 -20.625 40.125 C-12.27438807 30.69190134 -8.16855814 20.44315692 -6.56176758 8.09228516 C-5.52466973 0.19050585 -5.52466973 0.19050585 0 0 Z " fill="#000000" stroke="#000000" stroke-width="10" stroke-linejoin="round" stroke-linecap="round" transform="translate(256.625,197.875)"/>
<path d="M0 0 C1.30791504 -0.0009668 2.61583008 -0.00193359 3.96337891 -0.00292969 C5.3675301 0.01358056 6.77166524 0.03150978 8.17578125 0.05078125 C8.88079773 0.05638062 9.58581421 0.06197998 10.31219482 0.06774902 C24.40228569 0.18115501 37.24534582 1.16200003 50.734375 5.59765625 C55.22363971 6.84573552 58.46285111 5.95262045 62.82421875 4.68359375 C75.30442057 1.13350701 87.72333948 -0.01045707 100.64477539 -0.00732422 C102.71383159 -0.01180108 104.78091327 -0.04861129 106.84960938 -0.0859375 C108.16767578 -0.08980469 109.48574219 -0.09367187 110.84375 -0.09765625 C112.61721802 -0.10998291 112.61721802 -0.10998291 114.42651367 -0.12255859 C118.09388808 0.45937866 119.30423425 1.4059078 121.48828125 4.36328125 C121.3267792 7.7548242 120.90531368 8.94624882 118.48828125 11.36328125 C115.40991211 11.63452148 115.40991211 11.63452148 111.453125 11.671875 C109.99633096 11.69479506 108.539544 11.71816831 107.08276367 11.74194336 C106.32095795 11.75111786 105.55915222 11.76029236 104.77426147 11.76974487 C83.19904359 11.89601687 83.19904359 11.89601687 62.48828125 17.36328125 C62.47893555 18.40258789 62.46958984 19.44189453 62.45996094 20.51269531 C62.42004002 24.37461963 62.35427647 28.23574905 62.28076172 32.09716797 C62.25256407 33.76731136 62.23134346 35.4375879 62.21728516 37.10791016 C62.19583788 39.51143497 62.1491828 41.91336108 62.09765625 44.31640625 C62.09642761 45.06134338 62.09519897 45.80628052 62.09393311 46.5737915 C61.99550158 50.07017182 61.73162094 52.0372644 59.61425781 54.87402344 C57.48828125 56.36328125 57.48828125 56.36328125 54.86328125 56.23828125 C52.48828125 55.36328125 52.48828125 55.36328125 50.48828125 53.36328125 C50.24271754 50.64327768 50.11471639 48.01753868 50.07421875 45.29296875 C50.0548526 44.49674103 50.03548645 43.70051331 50.01553345 42.88015747 C49.95567651 40.33297491 49.90932846 37.7857473 49.86328125 35.23828125 C49.82510704 33.51300095 49.78605564 31.78773982 49.74609375 30.0625 C49.64997016 25.82958249 49.56596217 21.59657576 49.48828125 17.36328125 C35.73623635 12.14698836 21.54769989 12.02782786 7.04467773 11.90698242 C4.86533215 11.88542351 2.68685779 11.84609705 0.5078125 11.8046875 C-0.76989014 11.79123291 -2.04759277 11.77777832 -3.36401367 11.76391602 C-6.51171875 11.36328125 -6.51171875 11.36328125 -8.42700195 9.99194336 C-9.99051941 7.64437979 -9.92542465 6.12132057 -9.51171875 3.36328125 C-6.98617548 -0.3319757 -4.2420596 -0.0107057 0 0 Z " fill="#000000" stroke="#000000" stroke-width="10" stroke-linejoin="round" stroke-linecap="round" transform="translate(200.51171875,377.63671875)"/>
<path d="M0 0 C1.45708374 0.00519653 1.45708374 0.00519653 2.94360352 0.01049805 C9.50063714 0.10702697 15.89629271 0.61409659 22.375 1.625 C23.51690796 1.80131958 23.51690796 1.80131958 24.68188477 1.98120117 C28.25561978 2.60492096 31.3224416 3.40603588 34.59765625 4.98046875 C38.44437178 6.51465588 39.99348404 6.37376173 43.9375 5.3125 C45.10925781 5.003125 46.28101563 4.69375 47.48828125 4.375 C49.9888593 3.66871004 52.48886434 2.96038809 54.98828125 2.25 C62.92913326 0.21634281 71.03178006 0.10670444 79.1875 0.0625 C80.15429688 0.041875 81.12109375 0.02125 82.1171875 0 C91.21431721 -0.05012193 91.21431721 -0.05012193 94.9375 3.3125 C95.375 6.375 95.375 6.375 94.9375 9.3125 C92.25366758 11.99633242 90.85952526 11.57803063 87.109375 11.62109375 C85.3296228 11.65589844 85.3296228 11.65589844 83.51391602 11.69140625 C82.25119873 11.71074219 80.98848145 11.73007812 79.6875 11.75 C69.69358926 11.99275171 60.58771277 12.60985289 50.9375 15.3125 C49.27239692 15.6535581 47.6059045 15.98797678 45.9375 16.3125 C45.95844727 17.38209961 45.97939453 18.45169922 46.00097656 19.55371094 C46.07344626 23.52688173 46.11932463 27.49999425 46.15722656 31.47363281 C46.17732628 33.19248279 46.20461089 34.91126452 46.23925781 36.62988281 C46.28785034 39.10238489 46.31048435 41.5739821 46.328125 44.046875 C46.34877014 44.81368591 46.36941528 45.58049683 46.39068604 46.37054443 C46.39218058 49.93443929 46.22000996 51.92914658 44.07714844 54.83691406 C41.9375 56.3125 41.9375 56.3125 39.3125 56.1875 C36.9375 55.3125 36.9375 55.3125 34.9375 53.3125 C34.69193629 50.59249643 34.56393514 47.96675743 34.5234375 45.2421875 C34.50407135 44.44595978 34.4847052 43.64973206 34.4647522 42.82937622 C34.40489526 40.28219366 34.35854721 37.73496605 34.3125 35.1875 C34.27432579 33.4622197 34.23527439 31.73695857 34.1953125 30.01171875 C34.09918891 25.77880124 34.01518092 21.54579451 33.9375 17.3125 C21.72989748 12.57670834 10.29367897 11.97939945 -2.73828125 11.83398438 C-3.89714844 11.80755859 -5.05601562 11.78113281 -6.25 11.75390625 C-7.81814453 11.73372437 -7.81814453 11.73372437 -9.41796875 11.71313477 C-12.0625 11.3125 -12.0625 11.3125 -13.9296875 9.97631836 C-15.0625 8.3125 -15.0625 8.3125 -15 5.25 C-14.0625 2.3125 -14.0625 2.3125 -12.28735352 1.14770508 C-8.29706518 -0.35024032 -4.21713765 -0.0241887 0 0 Z " fill="#000000" stroke="#000000" stroke-width="10" stroke-linejoin="round" stroke-linecap="round" transform="translate(216.0625,305.6875)"/>
</svg>
