<?xml version="1.0" encoding="UTF-8"?>
<svg version="1.1" xmlns="http://www.w3.org/2000/svg" width="512" height="512" overflow="visible">
<path d="M0 0 C4.63277566 3.28154942 5.53227014 7.92063766 7 13.125 C7.28415771 14.08768799 7.56831543 15.05037598 7.86108398 16.04223633 C9.67645064 22.24049029 11.41019973 28.46116 13.14151001 34.68328857 C14.18141458 38.41475701 15.22944856 42.14393019 16.27709961 45.87322998 C17.04855416 48.63752884 17.80494217 51.40565008 18.56054688 54.17431641 C23.54783338 72.17530526 30.95435984 89.96191019 47.78417969 100.07177734 C76.7610477 116.29448774 106.34388703 109.0490203 137.0625 101.0625 C138.88841675 100.59553711 138.88841675 100.59553711 140.7512207 100.11914062 C154.22912465 96.46171702 166.03504549 91.47796472 173.6796875 79.390625 C178.23956003 71.13428776 178.96014444 62.51129276 179.17578125 53.23046875 C179.19962891 52.23982422 179.22347656 51.24917969 179.24804688 50.22851562 C179.2914249 48.18186173 179.32244884 46.13491273 179.34179688 44.08789062 C179.55072452 36.66852974 179.55072452 36.66852974 181.79296875 33.33203125 C184.10249092 31.93814265 185.32508779 31.4582045 188 31.5 C188.66 31.4896875 189.32 31.479375 190 31.46875 C193.17942929 32.3132859 194.13822114 33.23985186 196 36 C196.60139586 39.6388355 196.60038075 43.25545666 196.625 46.9375 C196.68015695 49.02356819 196.74002181 51.10951742 196.8046875 53.1953125 C196.84867676 54.70013184 196.84867676 54.70013184 196.89355469 56.23535156 C197.34676498 68.00634548 200.02235879 78.57992385 208.234375 87.4140625 C228.33314466 105.46738215 272.29296125 111.19782789 298.55859375 110.34375 C315.75744205 109.31100766 330.56193068 100.42903274 342 88 C349.91764687 77.71432297 354.31676107 65.88053431 357.73991585 53.47708321 C358.29950779 51.45196928 358.8710624 49.43055612 359.44566345 47.40965271 C361.07436015 41.67327995 362.68125243 35.93086369 364.2824707 30.18676758 C365.26921376 26.65014278 366.26875379 23.11733272 367.27590752 19.58646965 C367.65454098 18.24870788 368.02810643 16.90950045 368.39637947 15.56884956 C368.9099022 13.69954851 369.44103903 11.83511344 369.97290039 9.97094727 C370.26870499 8.91158463 370.56450958 7.85222198 370.86927795 6.76075745 C372.12246259 3.70099681 373.47073461 2.10109354 376 0 C379.84435972 -1.02115805 383.08273462 -0.52742759 386.5 1.4375 C389.17729273 6.01120841 388.42328458 10.9873781 387.36856079 16.00234985 C386.45887279 19.47615252 385.47376447 22.91928486 384.45703125 26.36328125 C383.90881966 28.26583931 383.90881966 28.26583931 383.34953308 30.20683289 C382.57764724 32.88255761 381.79772979 35.55575815 381.01147461 38.22729492 C380.0146631 41.61544102 379.03460441 45.00814039 378.06023121 48.40279865 C377.29959005 51.04790034 376.53165576 53.69084165 375.76148033 56.33318138 C375.22404236 58.1798307 374.69114708 60.02780021 374.15840149 61.87580872 C366.69888407 87.13621373 366.69888407 87.13621373 358.47265625 95.56494141 C356.24643352 99.24603317 356.28250453 102.88349414 356.0078125 107.1171875 C355.93703491 108.02914383 355.86625732 108.94110016 355.79333496 109.88069153 C355.64071836 111.84913658 355.49343146 113.81800058 355.35089111 115.78720093 C354.96723106 121.03160885 354.53191013 126.27162139 354.09375 131.51171875 C353.96113266 133.10204674 353.96113266 133.10204674 353.82583618 134.72450256 C351.19467203 165.57575368 346.68299952 196.67511562 339.8046875 226.875 C339.61862442 227.69374603 339.43256134 228.51249207 339.24085999 229.35604858 C338.33752262 233.30747804 337.41232502 237.25199741 336.4519043 241.18994141 C334.73567255 248.35968699 333.29778981 254.6925851 335 262 C335.34067505 263.64403809 335.34067505 263.64403809 335.68823242 265.32128906 C336.38287201 268.61367299 337.10503174 271.89779645 337.83901978 275.18148804 C343.31489887 299.82700276 347.66321775 325.1522234 348.12890625 350.453125 C348.22441283 362.1627695 348.22441283 362.1627695 353.2578125 372.50390625 C365.24056055 389.67201389 368.70030227 413.67438874 371 434 C371.0935376 434.81218994 371.1870752 435.62437988 371.28344727 436.46118164 C372.05506872 443.91694785 372.25175229 451.36542534 372.29516602 458.85473633 C372.30682715 460.25587955 372.32749421 461.65697377 372.35668945 463.05786133 C372.39923954 465.110487 372.41549596 467.16183295 372.42578125 469.21484375 C372.44765503 471.02650024 372.44765503 471.02650024 372.4699707 472.87475586 C371.91070299 476.59381351 370.94438791 477.74212208 368 480 C365.25782699 480.72838971 362.77171154 480.56913995 360 480 C356.75323294 477.66898776 355.7284964 475.83338061 355 472 C354.88827521 470.25736998 354.82255452 468.51151162 354.7890625 466.765625 C354.07908361 438.56587718 353.01423595 402.96628935 336 379 C335.03235718 379.30852905 335.03235718 379.30852905 334.04516602 379.62329102 C305.84982907 388.51864485 277.35698407 394.45094196 248 398 C247.11086914 398.11182617 246.22173828 398.22365234 245.30566406 398.33886719 C176.37375208 406.81826808 105.22068209 398.95391414 39 379 C26.5434029 405.67219494 22.03623002 433.29469526 21.5703125 462.63085938 C21.3980736 468.78481164 21.09598593 473.60871416 18 479 C14.87057535 480.56471233 11.38917777 480.69701958 8 480 C5.19739616 477.81856664 4.11070066 476.64055548 3.49829102 473.09692383 C3.50014404 471.97825928 3.50199707 470.85959473 3.50390625 469.70703125 C3.50100586 468.44922852 3.49810547 467.19142578 3.49511719 465.89550781 C3.51579253 464.53447691 3.53829599 463.17347272 3.5625 461.8125 C3.5689856 461.12248901 3.57547119 460.43247803 3.58215332 459.72155762 C3.85001345 431.95552922 6.06212588 389.4692257 25.56396484 367.21533203 C27.45605942 364.29644964 27.45751078 362.19954769 27.58984375 358.734375 C27.64938232 357.46875732 27.7089209 356.20313965 27.77026367 354.89916992 C27.7968808 354.22469818 27.82349792 353.55022644 27.85092163 352.85531616 C28.00019385 349.22548091 28.2095683 345.59927604 28.421875 341.97265625 C28.46563766 341.22417923 28.50940033 340.47570221 28.55448914 339.70454407 C29.92925594 317.2664344 33.82067025 295.27987638 38.4140625 273.3125 C38.55260147 272.64853714 38.69114044 271.98457428 38.83387756 271.30049133 C39.53180785 268.01233519 40.32618717 264.78664182 41.2734375 261.5625 C43.07170176 252.74520428 39.86952424 243.58834917 37.90539551 234.96893311 C29.6754936 198.59920666 23.72274026 161.41648684 21.33984375 124.1796875 C21.22784019 122.53505433 21.11553812 120.89044147 21.00292969 119.24584961 C20.79042649 116.13014088 20.62069784 113.01630465 20.47753906 109.89672852 C20.03275823 102.20941683 19.0451114 96.71486342 13.96031189 90.61463928 C7.72218461 82.29430377 4.76009128 71.83265095 1.984375 61.9453125 C1.64247131 60.75952606 1.30056763 59.57373962 0.94830322 58.35202026 C-0.12755631 54.61239612 -1.18902688 50.86887141 -2.25 47.125 C-2.97560835 44.59347632 -3.70216328 42.06222375 -4.4296875 39.53125 C-6.04321106 33.91063796 -7.64829959 28.28771877 -9.24264526 22.66163635 C-9.88557627 20.40212906 -10.5397042 18.14628413 -11.19677734 15.89086914 C-12.32272506 11.83848407 -12.6269665 8.16370063 -12 4 C-9.33965416 -0.54475748 -4.91183732 -1.30470679 0 0 Z M187 90 C185.46469175 91.78596317 185.46469175 91.78596317 183.875 94.0625 C164.99778851 118.79280993 125.05624669 122.69937744 96.3125 126.62280273 C74.82039319 129.07012769 57.23543234 124.65833923 38 115 C38.55933363 127.61060323 39.61494217 140.0934716 41.125 152.625 C41.2322641 153.52196594 41.3395282 154.41893188 41.45004272 155.34307861 C44.8688661 183.6473946 49.85031329 211.63475436 56.51098633 239.35693359 C59.39042178 251.49188332 59.41661294 260.63467254 56.3125 272.75 C49.34069162 301.54678001 43.73522191 332.25429299 45 362 C126.96452736 394.01149168 230.43815784 391.22968813 330 363 C331.66515954 361.33484046 331.15212668 359.31357022 331.17098999 357.08862305 C331.16870392 356.39937744 331.16641785 355.71013184 331.1640625 355 C331.16201813 354.28303955 331.15997375 353.5660791 331.15786743 352.82739258 C331.07208732 344.82820709 330.29440017 336.94034321 329.375 329 C329.28863281 328.23352142 329.20226562 327.46704285 329.11328125 326.67733765 C326.73539965 305.76883369 323.15918623 284.89780273 317.6640625 264.5703125 C315.72766069 254.1593051 318.13077513 244.85947466 320.50354004 234.728302 C326.81597776 207.65059762 331.48820435 180.53706302 334.8125 152.9375 C334.91800171 152.06811798 335.02350342 151.19873596 335.13220215 150.30300903 C336.54303159 138.54688855 337.48158495 126.82896435 338 115 C336.98172119 115.4964502 335.96344238 115.99290039 334.91430664 116.50439453 C297.36978583 134.73958107 256.12638587 125.71634451 217.88061523 112.72924805 C206.52952598 108.60195607 194.60258035 101.20516069 189 90 C188.34 90 187.68 90 187 90 Z " fill="#000000" stroke="#000000" stroke-width="10" stroke-linejoin="round" stroke-linecap="round" transform="translate(68,16)"/>
<path d="M0 0 C0.66 -0.0103125 1.32 -0.020625 2 -0.03125 C4.94724152 0.75161103 6.09535047 2.14196689 8 4.5 C8.51416016 7.44506836 8.51416016 7.44506836 8.5390625 10.83984375 C8.56226563 12.06767578 8.58546875 13.29550781 8.609375 14.56054688 C8.61710937 16.47963867 8.61710937 16.47963867 8.625 18.4375 C8.65056893 20.96754522 8.68411143 23.49752548 8.7265625 26.02734375 C8.73252441 27.14874756 8.73848633 28.27015137 8.74462891 29.42553711 C9.00991721 32.6193952 9.38396792 34.72996386 11 37.5 C14.38258284 39.16910356 17.14432561 39.7515694 20.89453125 39.75878906 C21.83901123 39.76509338 22.78349121 39.77139771 23.7565918 39.77789307 C24.7650415 39.7738446 25.77349121 39.76979614 26.8125 39.765625 C28.38221558 39.76849518 28.38221558 39.76849518 29.98364258 39.77142334 C32.19254802 39.77278218 34.40146154 39.76910676 36.61035156 39.76074219 C39.98781301 39.75003862 43.36474256 39.76064787 46.7421875 39.7734375 C48.89062617 39.77211585 51.03906451 39.76955335 53.1875 39.765625 C54.70017456 39.77169769 54.70017456 39.77169769 56.2434082 39.77789307 C57.18788818 39.77158875 58.13236816 39.76528442 59.10546875 39.75878906 C60.34526489 39.75640228 60.34526489 39.75640228 61.61010742 39.75396729 C64.39768903 39.45773869 66.49751431 38.75749301 69 37.5 C70.35510876 34.95932499 70.35510876 34.95932499 71.125 32 C72.70131291 26.69912473 72.70131291 26.69912473 76 24.5 C82.77159309 23.85508637 82.77159309 23.85508637 86.5 25.8125 C89.26073393 30.75881497 88.86801898 36.37513168 87.375 41.75 C84.71588184 47.82798437 79.72666546 52.70956567 73.76008606 55.57614136 C70.59558203 56.63536717 68.07573483 56.74063436 64.7409668 56.72705078 C62.87960335 56.72682419 62.87960335 56.72682419 60.9806366 56.72659302 C59.63682899 56.71638143 58.29302305 56.70594946 56.94921875 56.6953125 C55.5663117 56.69157931 54.18340198 56.68873378 52.80049133 56.68673706 C49.1721966 56.67912462 45.54406363 56.65949691 41.91583252 56.6373291 C38.20888456 56.61681899 34.5019103 56.60772433 30.79492188 56.59765625 C23.52987441 56.57624855 16.26495993 56.54214175 9 56.5 C8.95048207 62.10504881 8.91422445 67.70996965 8.89013672 73.31518555 C8.88009263 75.2211326 8.86645484 77.12706429 8.84912109 79.03295898 C8.82480282 81.77591752 8.81350088 84.51867191 8.8046875 87.26171875 C8.79436493 88.11086349 8.78404236 88.96000824 8.77340698 89.83488464 C8.71894751 95.94205986 8.71894751 95.94205986 11 101.5 C15.28764547 104.1991013 20.15957604 103.78944056 25.0625 103.765625 C25.93140869 103.76753845 26.80031738 103.7694519 27.69555664 103.77142334 C29.52783499 103.77278089 31.36012309 103.76911455 33.19238281 103.76074219 C35.990455 103.75003652 38.78788519 103.76065202 41.5859375 103.7734375 C43.36979308 103.77211583 45.15364826 103.76955328 46.9375 103.765625 C47.77095947 103.76967346 48.60441895 103.77372192 49.46313477 103.77789307 C53.69789307 103.74385405 57.21809165 103.64562041 61 101.5 C62.35510876 98.95932499 62.35510876 98.95932499 63.125 96 C64.70131291 90.69912473 64.70131291 90.69912473 68 88.5 C74.77159309 87.85508637 74.77159309 87.85508637 78.5 89.8125 C81.26073393 94.75881497 80.86801898 100.37513168 79.375 105.75 C76.7140666 111.83213348 71.7110384 116.75287415 65.71418762 119.57614136 C62.78585821 120.57288986 60.56060874 120.74150168 57.4753418 120.72705078 C56.39459885 120.72689972 55.3138559 120.72674866 54.20036316 120.72659302 C52.46729668 120.71110916 52.46729668 120.71110916 50.69921875 120.6953125 C49.50770706 120.6924826 48.31619537 120.68965271 47.08857727 120.68673706 C43.28811544 120.67555433 39.48789044 120.6504528 35.6875 120.625 C33.10872737 120.61496775 30.52995103 120.60584233 27.95117188 120.59765625 C21.63403397 120.5756212 15.31703391 120.54216232 9 120.5 C8.95048207 126.10504881 8.91422445 131.70996965 8.89013672 137.31518555 C8.88009263 139.2211326 8.86645484 141.12706429 8.84912109 143.03295898 C8.82480282 145.77591752 8.81350088 148.51867191 8.8046875 151.26171875 C8.79436493 152.11086349 8.78404236 152.96000824 8.77340698 153.83488464 C8.71894751 159.94205986 8.71894751 159.94205986 11 165.5 C14.94925354 167.86065741 18.79338115 167.7576768 23.3125 167.765625 C24.00384033 167.76753845 24.69518066 167.7694519 25.4074707 167.77142334 C26.86312221 167.77277892 28.31878607 167.7691264 29.77441406 167.76074219 C31.99311672 167.75003322 34.2110098 167.76065823 36.4296875 167.7734375 C37.84896011 167.77211579 39.26823221 167.76955317 40.6875 167.765625 C42.61142578 167.76224121 42.61142578 167.76224121 44.57421875 167.75878906 C47.87222004 167.50965271 50.09940777 167.06077897 53 165.5 C54.35510876 162.95932499 54.35510876 162.95932499 55.125 160 C56.70131291 154.69912473 56.70131291 154.69912473 60 152.5 C66.77159309 151.85508637 66.77159309 151.85508637 70.5 153.8125 C73.26073393 158.75881497 72.86801898 164.37513168 71.375 169.75 C68.71666813 175.82618713 63.80540331 180.41918511 58.02832031 183.578125 C53.51179994 184.95303478 49.14310928 184.74473482 44.44921875 184.6953125 C43.43527542 184.6924826 42.42133209 184.68965271 41.37666321 184.68673706 C38.14682073 184.67556625 34.91725829 184.65046711 31.6875 184.625 C29.49414464 184.6149662 27.30078492 184.60584105 25.10742188 184.59765625 C19.73818614 184.57563707 14.36911308 184.54219023 9 184.5 C8.9906543 185.32725586 8.98130859 186.15451172 8.97167969 187.00683594 C8.91799681 190.75516415 8.8343429 194.50224162 8.75 198.25 C8.73582031 199.55195313 8.72164063 200.85390625 8.70703125 202.1953125 C8.67480469 203.44570313 8.64257812 204.69609375 8.609375 205.984375 C8.58842773 207.13647461 8.56748047 208.28857422 8.54589844 209.47558594 C7.89457611 213.08407476 6.85640495 214.27449029 4 216.5 C2 217.03125 2 217.03125 0 217 C-0.99 217.01546875 -0.99 217.01546875 -2 217.03125 C-4.95248638 216.2469958 -6.09363584 214.86568212 -8 212.5 C-8.54589844 209.47558594 -8.54589844 209.47558594 -8.609375 205.984375 C-8.64160156 204.73398437 -8.67382812 203.48359375 -8.70703125 202.1953125 C-8.72121094 200.89335937 -8.73539062 199.59140625 -8.75 198.25 C-8.79447266 196.27386719 -8.79447266 196.27386719 -8.83984375 194.2578125 C-8.91055388 191.00514657 -8.96324786 187.75319807 -9 184.5 C-9.55852661 184.50888245 -10.11705322 184.51776489 -10.69250488 184.5269165 C-16.53285433 184.61576624 -22.37301017 184.67588945 -28.21386719 184.71972656 C-30.39037888 184.73977764 -32.56683714 184.76702571 -34.74316406 184.80175781 C-37.88099393 184.85056212 -41.01810835 184.87303438 -44.15625 184.890625 C-45.12115356 184.91127014 -46.08605713 184.93191528 -47.0802002 184.95318604 C-54.38616988 184.95558437 -59.69934615 183.39238482 -65.2421875 178.53515625 C-65.78101563 177.88417969 -66.31984375 177.23320312 -66.875 176.5625 C-67.42929688 175.91410156 -67.98359375 175.26570312 -68.5546875 174.59765625 C-72.46137808 168.9276756 -72.80443493 163.20362441 -72 156.5 C-70.5 153.8125 -70.5 153.8125 -68 152.5 C-64.07937398 151.75283152 -61.11377013 151.80765641 -57.6875 153.9375 C-55.67149846 156.99883567 -54.8469096 159.92769523 -54.00390625 163.4765625 C-53.15671819 165.67984673 -53.15671819 165.67984673 -50.89428711 166.60986328 C-47.37872996 167.69107133 -44.36597836 167.75915531 -40.6875 167.765625 C-39.99615967 167.76753845 -39.30481934 167.7694519 -38.5925293 167.77142334 C-37.13687779 167.77277892 -35.68121393 167.7691264 -34.22558594 167.76074219 C-32.00688328 167.75003322 -29.7889902 167.76065823 -27.5703125 167.7734375 C-26.15103989 167.77211579 -24.73176779 167.76955317 -23.3125 167.765625 C-21.38857422 167.76224121 -21.38857422 167.76224121 -19.42578125 167.75878906 C-16.06901147 167.50521324 -13.8849338 167.22446268 -11 165.5 C-8.25224982 161.17304154 -8.74449827 156.21294383 -8.8046875 151.26171875 C-8.8075174 150.38095169 -8.81034729 149.50018463 -8.81326294 148.59272766 C-8.82442167 145.79084455 -8.84951829 142.98928584 -8.875 140.1875 C-8.88503537 138.28320775 -8.89416025 136.37891048 -8.90234375 134.47460938 C-8.92434691 129.81628203 -8.95884706 125.15819594 -9 120.5 C-9.98812683 120.51332367 -9.98812683 120.51332367 -10.99621582 120.5269165 C-17.87466728 120.61565638 -24.75295515 120.67584496 -31.63183594 120.71972656 C-34.1963563 120.73979728 -36.76083115 120.76706001 -39.32519531 120.80175781 C-43.01899471 120.85047355 -46.71218709 120.87301513 -50.40625 120.890625 C-52.1160907 120.92159271 -52.1160907 120.92159271 -53.86047363 120.95318604 C-61.75375678 120.95539308 -67.14016588 119.88239819 -73.2421875 114.53515625 C-73.78101563 113.88417969 -74.31984375 113.23320312 -74.875 112.5625 C-75.42929688 111.91410156 -75.98359375 111.26570313 -76.5546875 110.59765625 C-80.46137808 104.9276756 -80.80443493 99.20362441 -80 92.5 C-78.5 89.8125 -78.5 89.8125 -76 88.5 C-72.07937398 87.75283152 -69.11377013 87.80765641 -65.6875 89.9375 C-63.67149846 92.99883567 -62.8469096 95.92769523 -62.00390625 99.4765625 C-61.159841 101.65809361 -61.159841 101.65809361 -59.00366211 102.60986328 C-54.93643844 103.81518698 -51.15778886 103.78612471 -46.9375 103.765625 C-46.06859131 103.76753845 -45.19968262 103.7694519 -44.30444336 103.77142334 C-42.47216501 103.77278089 -40.63987691 103.76911455 -38.80761719 103.76074219 C-36.009545 103.75003652 -33.21211481 103.76065202 -30.4140625 103.7734375 C-28.63020692 103.77211583 -26.84635174 103.76955328 -25.0625 103.765625 C-24.22904053 103.76967346 -23.39558105 103.77372192 -22.53686523 103.77789307 C-16.49860982 103.76837254 -16.49860982 103.76837254 -11 101.5 C-8.25224982 97.17304154 -8.74449827 92.21294383 -8.8046875 87.26171875 C-8.80893234 85.94056816 -8.80893234 85.94056816 -8.81326294 84.59272766 C-8.82442167 81.79084455 -8.84951829 78.98928584 -8.875 76.1875 C-8.88503537 74.28320775 -8.89416025 72.37891048 -8.90234375 70.47460938 C-8.92434691 65.81628203 -8.95884706 61.15819594 -9 56.5 C-10.13846375 56.51332367 -10.13846375 56.51332367 -11.29992676 56.5269165 C-18.47887712 56.60731495 -25.65760688 56.66809169 -32.83689117 56.70724869 C-36.52719955 56.7280571 -40.21713358 56.75624919 -43.90722656 56.80175781 C-47.47342061 56.84545943 -51.03925631 56.86918776 -54.60569763 56.87950897 C-56.61750112 56.89041494 -58.62916196 56.92160191 -60.64074707 56.95318604 C-69.05869694 56.95523593 -74.73302875 56.23917515 -81.2421875 50.53515625 C-81.78101563 49.88417969 -82.31984375 49.23320312 -82.875 48.5625 C-83.42929688 47.91410156 -83.98359375 47.26570313 -84.5546875 46.59765625 C-88.46137808 40.9276756 -88.80443493 35.20362441 -88 28.5 C-86.5 25.8125 -86.5 25.8125 -84 24.5 C-80.07937398 23.75283152 -77.11377013 23.80765641 -73.6875 25.9375 C-71.67149846 28.99883567 -70.8469096 31.92769523 -70.00390625 35.4765625 C-69.15149016 37.70933071 -69.15149016 37.70933071 -66.74316406 38.61029053 C-64.01300857 39.49578084 -61.96071006 39.75329233 -59.10546875 39.75878906 C-58.16098877 39.76509338 -57.21650879 39.77139771 -56.2434082 39.77789307 C-55.2349585 39.7738446 -54.22650879 39.76979614 -53.1875 39.765625 C-51.61778442 39.76849518 -51.61778442 39.76849518 -50.01635742 39.77142334 C-47.80745198 39.77278218 -45.59853846 39.76910676 -43.38964844 39.76074219 C-40.01218699 39.75003862 -36.63525744 39.76064787 -33.2578125 39.7734375 C-31.10937383 39.77211585 -28.96093549 39.76955335 -26.8125 39.765625 C-25.80405029 39.76967346 -24.79560059 39.77372192 -23.7565918 39.77789307 C-22.81211182 39.77158875 -21.86763184 39.76528442 -20.89453125 39.75878906 C-19.65473511 39.75640228 -19.65473511 39.75640228 -18.38989258 39.75396729 C-15.61025097 39.45858245 -13.50316452 38.73516289 -11 37.5 C-8.81606976 33.75653119 -8.74925969 30.29656261 -8.7265625 26.02734375 C-8.7059375 24.79822266 -8.6853125 23.56910156 -8.6640625 22.30273438 C-8.63798204 19.72207261 -8.6197761 17.14131946 -8.609375 14.56054688 C-8.58617187 13.33271484 -8.56296875 12.10488281 -8.5390625 10.83984375 C-8.53084473 9.71956787 -8.52262695 8.59929199 -8.51416016 7.44506836 C-7.67967143 2.66518352 -4.92178729 -0.07690293 0 0 Z " fill="#000000" stroke="#000000" stroke-width="10" stroke-linejoin="round" stroke-linecap="round" transform="translate(256,151.5)"/>
<path d="M0 0 C0.66 -0.0103125 1.32 -0.020625 2 -0.03125 C5.05368756 0.77988576 6.09111769 1.96980288 8 4.5 C8.60114553 7.49736221 8.56057764 10.45109277 8.53125 13.5 C8.5350769 14.37269531 8.53890381 15.24539063 8.54284668 16.14453125 C8.5455649 17.98699092 8.53820994 19.82948924 8.52148438 21.671875 C8.50007248 24.49045934 8.52128801 27.30649485 8.546875 30.125 C8.54423171 31.91667229 8.53910669 33.70834299 8.53125 35.5 C8.53934692 36.34175781 8.54744385 37.18351562 8.55578613 38.05078125 C8.46235399 43.88715618 8.46235399 43.88715618 6.09179688 47.02929688 C3.8272647 48.62144695 2.7390083 49.042797 0 49 C-0.99 49.01546875 -0.99 49.01546875 -2 49.03125 C-5.05368756 48.22011424 -6.09111769 47.03019712 -8 44.5 C-8.60114553 41.50263779 -8.56057764 38.54890723 -8.53125 35.5 C-8.5350769 34.62730469 -8.53890381 33.75460937 -8.54284668 32.85546875 C-8.5455649 31.01300908 -8.53820994 29.17051076 -8.52148438 27.328125 C-8.50007248 24.50954066 -8.52128801 21.69350515 -8.546875 18.875 C-8.54423171 17.08332771 -8.53910669 15.29165701 -8.53125 13.5 C-8.53934692 12.65824219 -8.54744385 11.81648438 -8.55578613 10.94921875 C-8.46235399 5.11284382 -8.46235399 5.11284382 -6.09179688 1.97070312 C-3.8272647 0.37855305 -2.7390083 -0.042797 0 0 Z " fill="#000000" stroke="#000000" stroke-width="10" stroke-linejoin="round" stroke-linecap="round" transform="translate(256,447.5)"/>
<path d="M0 0 C2.5 1.5 2.5 1.5 4 4 C4.791013 8.02098277 4.62153384 10.96411027 2.5 14.5 C-1.03588973 16.62153384 -3.97901723 16.791013 -8 16 C-10.5 14.5 -10.5 14.5 -12 12 C-12.791013 7.97901723 -12.62153384 5.03588973 -10.5 1.5 C-6.96411027 -0.62153384 -4.02098277 -0.791013 0 0 Z " fill="#000000" stroke="#000000" stroke-width="10" stroke-linejoin="round" stroke-linecap="round" transform="translate(372,80)"/>
<path d="M0 0 C2.5 1.5 2.5 1.5 4 4 C4.791013 8.02098277 4.62153384 10.96411027 2.5 14.5 C-1.03588973 16.62153384 -3.97901723 16.791013 -8 16 C-10.5 14.5 -10.5 14.5 -12 12 C-12.791013 7.97901723 -12.62153384 5.03588973 -10.5 1.5 C-6.96411027 -0.62153384 -4.02098277 -0.791013 0 0 Z " fill="#000000" stroke="#000000" stroke-width="10" stroke-linejoin="round" stroke-linecap="round" transform="translate(148,80)"/>
</svg>
