<?xml version="1.0" encoding="UTF-8"?>
<svg version="1.1" xmlns="http://www.w3.org/2000/svg" width="512" height="512" overflow="visible">
<path d="M0 0 C1.92506182 -0.02065538 3.85053832 -0.01330587 5.77549744 0.0153656 C6.82610855 0.01142288 7.87671967 0.00748016 8.95916748 0.00341797 C12.44001069 -0.00330781 15.91954998 0.02590319 19.4002533 0.05613708 C21.81255844 0.06038524 24.22486767 0.06271554 26.63717651 0.0632019 C31.69551584 0.06937419 36.75341354 0.09210945 41.81163025 0.12767029 C48.30764465 0.17296741 54.80325881 0.18769693 61.29941654 0.1914072 C66.28098528 0.19582801 71.26246932 0.21111768 76.24400139 0.23028374 C78.63988483 0.23918615 81.03577737 0.24590629 83.43167305 0.25044441 C86.77430165 0.2594503 90.11656167 0.28180876 93.45909119 0.30833435 C94.9560553 0.30933136 94.9560553 0.30933136 96.48326111 0.31034851 C97.84397484 0.3253112 97.84397484 0.3253112 99.23217773 0.34057617 C100.41821138 0.34755193 100.41821138 0.34755193 101.6282053 0.35466862 C103.55259705 0.61473083 103.55259705 0.61473083 105.55259705 2.61473083 C106.46987008 9.74778189 105.0580025 17.04796634 103.86509705 24.06785583 C103.68711578 25.14957062 103.50913452 26.2312854 103.32575989 27.34577942 C102.74452467 30.85382054 102.14977303 34.35937044 101.55259705 37.86473083 C101.35007324 39.06635864 101.14754944 40.26798645 100.93888855 41.50602722 C78.17914968 176.28821074 78.17914968 176.28821074 51.55259705 196.61473083 C46.99719659 199.44151951 42.86578742 199.97267208 37.55259705 199.61473083 C22.49353593 194.28059871 14.30523701 184.66282748 7.55259705 170.61473083 C-0.9169414 178.68867575 -0.9169414 178.68867575 -4.9981842 189.32957458 C-5.00830453 192.76036647 -4.89246671 196.10178716 -4.61048889 199.5165863 C-4.44821791 201.60424624 -4.36302547 203.68209549 -4.29896545 205.77488708 C-4.20938149 219.68583725 -4.20938149 219.68583725 1.55259705 231.61473083 C4.39687763 231.69373863 5.98785997 231.14317375 8.0721283 229.19285583 C11.24635712 225.56057374 13.9720464 221.68406069 16.55259705 217.61473083 C18.03609715 218.03730359 19.51436128 218.47829406 20.99009705 218.92723083 C21.81380798 219.17086365 22.63751892 219.41449646 23.4861908 219.66551208 C24.16810486 219.97875427 24.85001892 220.29199646 25.55259705 220.61473083 C26.55259705 223.61473083 26.55259705 223.61473083 25.4002533 226.06785583 C20.85576903 233.18787933 15.34113453 241.5866068 6.55259705 243.61473083 C-0.65433798 244.26990675 -4.87760167 241.87258749 -10.44740295 237.61473083 C-22.84564507 283.2800119 -16.98878587 326.75472007 -10.16615295 372.90769958 C-9.00608148 380.76494179 -7.85895969 388.62369537 -6.75990295 396.48973083 C-6.63450134 397.3649791 -6.50909973 398.24022736 -6.37989807 399.14199829 C-3.03069136 423.40726922 -3.03069136 423.40726922 -8.65052795 431.48973083 C-9.2434967 432.19098083 -9.83646545 432.89223083 -10.44740295 433.61473083 C-11.2259967 434.54285583 -12.00459045 435.47098083 -12.80677795 436.42723083 C-24.03053556 449.34517985 -37.08948197 459.65026062 -50.8473053 469.71287537 C-53.42442958 471.59792684 -55.99278072 473.49448945 -58.5606842 475.39207458 C-60.16807955 476.57138409 -61.77612471 477.74980854 -63.38490295 478.92723083 C-64.49309387 479.74489929 -64.49309387 479.74489929 -65.62367249 480.5790863 C-66.31702698 481.08198181 -67.01038147 481.58487732 -67.7247467 482.10301208 C-68.32536926 482.54169617 -68.92599182 482.98038025 -69.54481506 483.43235779 C-71.44740295 484.61473083 -71.44740295 484.61473083 -76.44740295 486.61473083 C-76.44740295 491.89473083 -76.44740295 497.17473083 -76.44740295 502.61473083 C-75.12740295 502.61473083 -73.80740295 502.61473083 -72.44740295 502.61473083 C-72.44740295 498.65473083 -72.44740295 494.69473083 -72.44740295 490.61473083 C-69.14740295 490.61473083 -65.84740295 490.61473083 -62.44740295 490.61473083 C-62.44740295 494.57473083 -62.44740295 498.53473083 -62.44740295 502.61473083 C-60.13740295 502.61473083 -57.82740295 502.61473083 -55.44740295 502.61473083 C-55.44740295 498.65473083 -55.44740295 494.69473083 -55.44740295 490.61473083 C-52.14740295 490.61473083 -48.84740295 490.61473083 -45.44740295 490.61473083 C-45.44740295 494.57473083 -45.44740295 498.53473083 -45.44740295 502.61473083 C-42.14740295 502.61473083 -38.84740295 502.61473083 -35.44740295 502.61473083 C-35.65623108 501.74074646 -35.8650592 500.86676208 -36.08021545 499.96629333 C-36.83802827 494.22856772 -37.16637264 490.0249943 -33.68080139 485.13768005 C-28.69945117 479.52145187 -23.14559128 474.49203653 -17.44740295 469.61473083 C-16.26914938 470.51645551 -15.10508718 471.43674586 -13.94740295 472.36473083 C-13.29771545 472.87519958 -12.64802795 473.38566833 -11.97865295 473.91160583 C-10.44740295 475.61473083 -10.44740295 475.61473083 -10.44740295 479.61473083 C-11.71669006 481.21116638 -11.71669006 481.21116638 -13.4747467 482.75144958 C-14.10187561 483.32959412 -14.72900452 483.90773865 -15.37513733 484.50340271 C-16.70313622 485.69201979 -18.03899287 486.87192205 -19.38294983 488.04246521 C-20.32557678 488.91934998 -20.32557678 488.91934998 -21.2872467 489.81394958 C-21.86853333 490.32788269 -22.44981995 490.8418158 -23.04872131 491.37132263 C-25.19721944 494.45751703 -25.19721944 494.45751703 -25.44740295 502.61473083 C-18.51740295 502.28473083 -11.58740295 501.95473083 -4.44740295 501.61473083 C-2.46740295 497.32473083 -0.48740295 493.03473083 1.55259705 488.61473083 C6.63262885 489.4614028 8.56341759 489.91616826 12.55259705 492.61473083 C11.23259705 495.58473083 9.91259705 498.55473083 8.55259705 501.61473083 C23.25639127 502.78599572 23.25639127 502.78599572 36.16197205 497.14988708 C40.34848035 492.34010648 40.91375795 489.07396913 40.81822205 482.89598083 C39.70264408 469.11531181 33.39466204 455.7806269 28.42881775 443.03392029 C23.68143698 429.9267049 27.19943285 414.28297642 28.95127869 400.85423279 C29.36372226 397.68778543 29.76104214 394.51971593 30.15611267 391.35105896 C31.4640463 381.01635336 32.94071986 370.77342083 35.00840759 360.56175232 C35.64339078 357.62251754 35.64339078 357.62251754 35.55259705 354.61473083 C34.9493158 355.1316449 34.34603455 355.64855896 33.72447205 356.18113708 C32.9252533 356.83984802 32.12603455 357.49855896 31.30259705 358.17723083 C30.5136908 358.8385199 29.72478455 359.49980896 28.91197205 360.18113708 C26.55259705 361.61473083 26.55259705 361.61473083 24.4002533 361.47410583 C21.51963748 360.13428453 20.2192276 358.2689943 18.55259705 355.61473083 C18.75529769 352.89062375 19.29316722 351.86116904 21.28330994 349.97068787 C22.02315125 349.44330017 22.76299255 348.91591248 23.5252533 348.37254333 C24.34316345 347.78086365 25.16107361 347.18918396 26.00376892 346.57957458 C26.8655072 345.97242615 27.72724548 345.36527771 28.61509705 344.73973083 C30.29367304 343.534267 31.97206024 342.32854022 33.6502533 341.12254333 C36.05742846 339.39955251 38.46474977 337.67704433 40.8792572 335.96434021 C41.59001404 335.44935974 42.30077087 334.93437927 43.0330658 334.40379333 C43.65979187 333.95471619 44.28651794 333.50563904 44.93223572 333.04295349 C53.44425743 325.54026749 54.82166589 306.37751516 55.55259705 295.61473083 C55.73855546 290.71819259 55.79120138 285.82706876 55.80259705 280.92723083 C55.8042688 280.24786469 55.80594055 279.56849854 55.80766296 278.86854553 C55.80958306 265.7771243 54.86668397 252.83818855 51.96958923 240.03904724 C51.77784119 239.18359314 51.58609314 238.32813904 51.38853455 237.44676208 C51.11468933 236.30751282 51.11468933 236.30751282 50.83531189 235.14524841 C50.21254402 229.57099197 51.7235811 224.62291299 53.74790955 219.48582458 C54.20882996 218.3053656 54.66975037 217.12490662 55.14463806 215.90867615 C55.65543927 214.62312081 56.16643156 213.33764138 56.67759705 212.05223083 C57.21199285 210.69277506 57.74574984 209.33306801 58.27891541 207.97312927 C59.42446247 205.05550596 60.57485365 202.13985562 61.72886658 199.22557068 C63.27720761 195.31461456 64.81631481 191.40010259 66.35231018 187.48428345 C77.43416974 159.23431458 77.43416974 159.23431458 83.05870056 145.77806091 C101.86070315 100.61234434 111.09572743 52.88932658 117.55259705 4.61473083 C124.81259705 4.61473083 132.07259705 4.61473083 139.55259705 4.61473083 C140.17134705 8.84350037 140.17134705 8.84350037 140.80259705 13.15769958 C147.1225801 55.78515319 154.93829456 98.30633445 171.24986267 138.40916443 C172.83998997 142.32190269 174.40751701 146.24344915 175.97447205 150.16551208 C176.61825388 151.7752194 177.26205317 153.38491974 177.90586853 154.99461365 C179.26060104 158.38286541 180.61410558 161.77160476 181.96690369 165.16062927 C182.6685796 166.91749142 183.37032223 168.67432692 184.0721283 170.43113708 C184.42819656 171.32295685 184.78426483 172.21477661 185.15112305 173.13362122 C187.52519306 179.07117705 189.92700037 184.99692169 192.34147644 190.91815186 C194.03623173 195.08657467 195.71288064 199.26213852 197.38615417 203.43922424 C198.19933606 205.4577206 199.02015413 207.47315894 199.84892273 209.48530579 C201.01114702 212.30985925 202.14582963 215.14411952 203.2752533 217.98191833 C203.79740669 219.22333839 203.79740669 219.22333839 204.33010864 220.48983765 C206.69334321 226.54363345 206.67227101 231.25837127 205.55259705 237.61473083 C205.42651566 238.41820953 205.30043427 239.22168823 205.17053223 240.04951477 C204.7064703 242.98220106 204.17964438 245.9027626 203.6580658 248.82566833 C199.25833626 274.15744442 198.08679458 305.80347438 209.55259705 329.61473083 C213.26281292 333.9444262 217.79289322 337.19297289 222.36509705 340.55223083 C223.72577413 341.56134542 225.08645121 342.57046 226.4471283 343.57957458 C227.11566833 344.07312439 227.78420837 344.56667419 228.4730072 345.07518005 C231.84531833 347.57175131 235.19893827 350.09318709 238.55259705 352.61473083 C237.76876138 356.47615287 236.12449272 358.62801328 233.55259705 361.61473083 C230.1130934 361.00274708 228.03695219 359.69414237 225.30259705 357.55223083 C224.24298767 356.73045349 224.24298767 356.73045349 223.16197205 355.89207458 C222.6308783 355.47055115 222.09978455 355.04902771 221.55259705 354.61473083 C221.68311462 355.44158386 221.8136322 356.26843689 221.94810486 357.12034607 C224.34899594 372.41814285 226.6759024 387.72606203 228.6025238 403.09181213 C228.77435807 404.45656046 228.94944205 405.82090453 229.12815857 407.18476868 C232.60160625 433.84426791 232.60160625 433.84426791 227.92759705 445.55223083 C227.65979431 446.28747986 227.39199158 447.02272888 227.11607361 447.78025818 C226.56005893 449.30264842 225.99369777 450.82130129 225.41685486 452.33592224 C224.25990489 455.38647903 223.16847283 458.45851719 222.0823822 461.53489685 C221.5808093 462.95308873 221.07315568 464.36915244 220.55796814 465.78245544 C217.61873145 473.93473528 215.48152413 481.8720982 216.55259705 490.61473083 C218.74793569 495.25871643 221.80714183 498.56488744 226.55259705 500.61473083 C230.34111623 501.22993873 234.09469669 501.31032838 237.92759705 501.36473083 C238.94982361 501.39437927 239.97205017 501.42402771 241.0252533 501.45457458 C243.5339499 501.52491187 246.04327623 501.57212777 248.55259705 501.61473083 C247.23259705 498.64473083 245.91259705 495.67473083 244.55259705 492.61473083 C251.05259705 488.61473083 251.05259705 488.61473083 255.55259705 488.61473083 C257.53259705 492.57473083 259.51259705 496.53473083 261.55259705 500.61473083 C268.48259705 500.94473083 275.41259705 501.27473083 282.55259705 501.61473083 C282.06912539 494.18239156 282.06912539 494.18239156 278.1736908 489.55223083 C277.50015564 488.90125427 276.82662048 488.25027771 276.13267517 487.57957458 C275.42562439 486.93117615 274.71857361 486.28277771 273.99009705 485.61473083 C273.27917908 484.9353949 272.56826111 484.25605896 271.83580017 483.55613708 C270.08957264 481.89194709 268.3292075 480.24634438 266.55259705 478.61473083 C268.43811185 474.3311341 270.91225405 472.46369492 274.55259705 469.61473083 C277.53580628 472.56901144 280.51346508 475.52882447 283.49009705 478.48973083 C284.34023376 479.33148865 285.19037048 480.17324646 286.06626892 481.04051208 C287.279599 482.24900818 287.279599 482.24900818 288.5174408 483.48191833 C289.26630554 484.22554626 290.01517029 484.96917419 290.78672791 485.7353363 C293.88961344 489.03770224 293.66227402 491.30509524 293.61509705 495.73973083 C293.60607361 496.83543396 293.59705017 497.93113708 293.5877533 499.06004333 C293.57035095 500.32461365 293.57035095 500.32461365 293.55259705 501.61473083 C296.52259705 501.61473083 299.49259705 501.61473083 302.55259705 501.61473083 C302.55259705 497.98473083 302.55259705 494.35473083 302.55259705 490.61473083 C305.85259705 490.61473083 309.15259705 490.61473083 312.55259705 490.61473083 C312.55259705 494.24473083 312.55259705 497.87473083 312.55259705 501.61473083 C314.86259705 501.61473083 317.17259705 501.61473083 319.55259705 501.61473083 C319.55259705 497.98473083 319.55259705 494.35473083 319.55259705 490.61473083 C322.85259705 490.61473083 326.15259705 490.61473083 329.55259705 490.61473083 C329.55259705 494.24473083 329.55259705 497.87473083 329.55259705 501.61473083 C330.87259705 501.61473083 332.19259705 501.61473083 333.55259705 501.61473083 C333.55259705 496.66473083 333.55259705 491.71473083 333.55259705 486.61473083 C331.90259705 485.95473083 330.25259705 485.29473083 328.55259705 484.61473083 C326.97467109 483.58492653 325.43557549 482.49448667 323.92759705 481.36473083 C322.97626892 480.65703552 322.0249408 479.94934021 321.04478455 479.22019958 C320.50305603 478.8146283 319.96132751 478.40905701 319.40318298 477.99119568 C317.27800209 476.41048725 315.13871626 474.84999046 312.99790955 473.29051208 C264.69989366 438.0538297 264.69989366 438.0538297 261.99278259 421.11106873 C262.02981088 405.3860555 264.6781381 389.9031175 267.01335144 374.38938904 C269.85434893 355.51250617 272.6364127 336.66740703 274.35728455 317.64988708 C274.41894617 316.97754972 274.4806078 316.30521236 274.54413795 315.61250114 C276.554778 293.35556276 279.77953726 257.45514116 266.55259705 237.61473083 C265.60384705 238.41910583 264.65509705 239.22348083 263.67759705 240.05223083 C260.04869426 243.12890928 257.67436359 243.98672758 252.76353455 243.88035583 C245.41288332 242.99723873 240.90079046 238.40165053 236.31822205 232.93504333 C230.55259705 225.35809367 230.55259705 225.35809367 230.55259705 221.61473083 C231.79144023 220.88706081 233.04428045 220.18318268 234.30259705 219.48973083 C234.9986908 219.09527771 235.69478455 218.70082458 236.41197205 218.29441833 C238.55259705 217.61473083 238.55259705 217.61473083 240.63072205 218.22019958 C242.95286343 219.90516803 244.07169249 221.60149477 245.55259705 224.05223083 C247.54105371 227.33210365 249.28231535 229.55517717 252.55259705 231.61473083 C254.69000167 231.9352458 254.69000167 231.9352458 256.55259705 230.61473083 C260.98050309 222.25090831 261.00577976 213.13052968 261.43101501 203.84519958 C261.55248057 201.6168676 261.73985957 199.40049408 261.9315033 197.17723083 C262.43475358 189.64603178 262.24376606 184.3949736 257.24009705 178.23973083 C255.71890071 176.65729471 254.16060369 175.10887172 252.55259705 173.61473083 C251.55150713 172.61582194 250.55098023 171.61634504 249.55259705 170.61473083 C249.29607361 171.22059021 249.03955017 171.82644958 248.7752533 172.45066833 C243.32205512 184.38527713 234.68579269 192.79435482 222.92759705 198.48973083 C217.67622542 200.24018804 213.62751397 200.31483933 208.55259705 198.11473083 C188.34250543 186.74897874 181.37577097 152.78457167 175.67222595 132.50575256 C166.93228021 100.87946226 160.8551 68.57377354 155.42759705 36.23973083 C155.22924255 35.06689545 155.03088806 33.89406006 154.82652283 32.6856842 C154.26479757 29.34320115 153.71480654 25.99903651 153.16978455 22.65379333 C153.00469391 21.66828995 152.83960327 20.68278656 152.66950989 19.66741943 C151.7519904 13.91082106 151.21756369 8.44633732 151.55259705 2.61473083 C153.9760961 0.19123178 154.55713744 0.36136113 157.87301636 0.3473053 C159.23373009 0.33451035 159.23373009 0.33451035 160.62193298 0.32145691 C161.61990906 0.32236328 162.61788513 0.32326965 163.64610291 0.32420349 C164.6949617 0.31748627 165.7438205 0.31076904 166.82446289 0.30384827 C170.30550318 0.28478782 173.78635152 0.28094009 177.2674408 0.27879333 C179.67878297 0.27237132 182.09012434 0.26564342 184.50146484 0.25862122 C189.56141467 0.24662851 194.62129611 0.24294247 199.68125916 0.24412537 C206.17617719 0.24432874 212.67065854 0.21701634 219.16547298 0.18258095 C224.14706449 0.16038268 229.12854971 0.15628564 234.11018562 0.15734482 C236.50526498 0.15497857 238.90034683 0.14609797 241.29537773 0.13068008 C244.64046507 0.11116218 247.98459507 0.11680248 251.32969666 0.12889099 C252.3256485 0.11765198 253.32160034 0.10641296 254.34773254 0.09483337 C255.25769485 0.10322235 256.16765717 0.11161133 257.10519409 0.12025452 C258.29179327 0.11862021 258.29179327 0.11862021 259.50236416 0.1169529 C261.55259705 0.61473083 261.55259705 0.61473083 263.28290367 2.49771976 C264.72434376 4.90109107 265.29923069 6.90486982 265.86778259 9.64720154 C266.18949936 11.16359222 266.18949936 11.16359222 266.51771545 12.71061707 C266.73934357 13.80948242 266.96097168 14.90834778 267.1893158 16.04051208 C267.55027847 17.7725589 267.55027847 17.7725589 267.91853333 19.53959656 C268.70441926 23.33311262 269.47332658 27.12980804 270.24009705 30.92723083 C270.50714978 32.23621189 270.77455626 33.54512082 271.04231262 34.85395813 C295.28779655 153.48853862 295.28779655 153.48853862 277.55259705 183.61473083 C277.0111908 184.24766052 276.46978455 184.88059021 275.91197205 185.53269958 C273.13147989 189.79132693 273.77827068 195.45285909 273.62876892 200.4203949 C273.55164605 202.6421269 273.42028561 204.85667374 273.28697205 207.07566833 C272.85454057 216.47750007 274.00544509 223.18405392 277.89634705 231.79832458 C299.48379538 279.85788115 284.39554173 340.82449709 277.11683655 390.59434509 C276.69885918 393.45501542 276.28375483 396.31609131 275.8690033 399.17723083 C275.74412537 400.02468872 275.61924744 400.87214661 275.49058533 401.74528503 C273.30939726 414.40643567 273.30939726 414.40643567 276.92759705 426.30223083 C283.48933246 434.70801367 291.52394988 441.73222839 299.87828064 448.2953949 C301.75406289 449.77348286 303.61554759 451.26879492 305.4783783 452.76316833 C314.8158523 460.1911623 324.40968861 467.08246463 334.37998962 473.64060974 C335.71646545 474.52885437 335.71646545 474.52885437 337.0799408 475.43504333 C337.8713446 475.95340759 338.66274841 476.47177185 339.47813416 477.00584412 C342.69958619 479.50429874 344.36583988 481.27853619 344.94078064 485.39207458 C344.94416443 486.43492615 344.94754822 487.47777771 344.95103455 488.55223083 C344.95490173 489.69434021 344.95876892 490.83644958 344.9627533 492.01316833 C344.95115173 493.20168396 344.93955017 494.39019958 344.92759705 495.61473083 C344.93919861 496.80324646 344.95080017 497.99176208 344.9627533 499.21629333 C344.95888611 500.35840271 344.95501892 501.50051208 344.95103455 502.67723083 C344.94765076 503.7200824 344.94426697 504.76293396 344.94078064 505.83738708 C344.4897574 509.0643307 343.78422231 510.27365731 341.55259705 512.61473083 C339.38415432 513.12088871 339.38415432 513.12088871 336.81735229 513.12939453 C335.84322388 513.14211899 334.86909546 513.15484344 333.865448 513.16795349 C332.79790787 513.16142761 331.73036774 513.15490173 330.63047791 513.1481781 C329.504935 513.15679367 328.37939209 513.16540924 327.21974182 513.17428589 C323.48540975 513.19705282 319.7518221 513.19018349 316.0174408 513.18113708 C313.42251359 513.18637028 310.8275883 513.19264564 308.23266602 513.19992065 C302.78427715 513.21034654 297.33617313 513.20606413 291.88780212 513.19114685 C285.60916488 513.17427718 279.3312255 513.18998423 273.0526647 513.22236973 C266.99830351 513.25240561 260.94429441 513.25422363 254.88984871 513.24487114 C252.32193154 513.2440528 249.75399975 513.25089363 247.1861248 513.26564217 C243.58373408 513.28314951 239.98281088 513.26848823 236.38047791 513.24583435 C235.32710739 513.25752655 234.27373688 513.26921875 233.18844604 513.28126526 C225.11049751 513.17841646 218.44959966 511.19848811 212.40568447 505.64038944 C205.5000475 498.31024841 203.85967801 491.99493485 204.07603455 482.03269958 C205.19429934 468.32302313 210.98315398 454.82076018 216.1346283 442.20457458 C221.50515009 428.60812961 217.71285029 412.85678833 215.86509705 398.80223083 C215.72976563 397.75758667 215.5944342 396.7129425 215.45500183 395.63664246 C213.91271363 383.78466855 212.34598068 371.95035923 209.92759705 360.23973083 C209.74624207 359.35309753 209.56488708 358.46646423 209.3780365 357.55296326 C207.76074082 350.34058276 205.29611214 343.4238576 200.61509705 337.61473083 C184.23077038 313.6174847 187.81369809 273.90166112 191.70103455 247.01707458 C191.82381775 246.12028992 191.94660095 245.22350525 192.07310486 244.29954529 C192.55259705 241.61473083 192.55259705 241.61473083 193.39927673 239.06077576 C196.65820533 227.78710941 190.38124155 217.27675515 186.05259705 207.05223083 C185.16972624 204.90653322 184.28978791 202.75962679 183.41270447 200.61155701 C181.64848234 196.30092584 179.86975604 191.99678756 178.07749939 187.69773865 C174.88510501 180.02919116 171.80030653 172.31892541 168.73014832 164.60081482 C167.87014144 162.43990571 167.00748871 160.28007238 166.14390564 158.12059021 C164.61064468 154.28642614 163.08137345 150.4506852 161.55259705 146.61473083 C161.1447699 145.59540466 160.73694275 144.57607849 160.3167572 143.52586365 C143.43532041 101.1639852 134.49307848 56.66427049 128.55259705 11.61473083 C128.34280212 13.14166565 128.34280212 13.14166565 128.12876892 14.69944763 C123.48757727 48.18873367 117.51366698 81.2513707 107.55259705 113.61473083 C107.28656677 114.48839294 107.0205365 115.36205505 106.7464447 116.26219177 C103.25992456 127.58007086 99.05956798 138.53504187 94.52549744 149.47068787 C88.34855199 164.40611169 82.51838536 179.47883384 76.63389587 194.53123474 C76.21559006 195.60044159 75.79728424 196.66964844 75.36630249 197.77125549 C74.54786026 199.86548664 73.73122425 201.96042468 72.91650391 204.05610657 C71.19893021 208.46488517 69.46744968 212.86085916 67.6136322 217.21434021 C67.32800919 217.89325317 67.04238617 218.57216614 66.74810791 219.27165222 C66.01838987 220.9934604 65.27232401 222.70831701 64.52452087 224.42234802 C62.95399413 229.58090308 63.18918219 234.64796528 64.1736908 239.94676208 C64.30453064 240.6834613 64.43537048 241.42016052 64.57017517 242.17918396 C64.7780365 243.29196716 64.7780365 243.29196716 64.99009705 244.42723083 C70.41279699 273.82397263 71.99846051 313.25168607 55.42759705 339.55223083 C54.76501892 340.51000427 54.1024408 341.46777771 53.41978455 342.45457458 C49.02089633 349.89955485 47.65495538 358.25204623 46.17759705 366.67723083 C45.96917175 367.85736755 45.76074646 369.03750427 45.54600525 370.25340271 C43.65690105 381.33539461 42.15883697 392.46387656 40.74009705 403.61473083 C40.62909668 404.4714035 40.51809631 405.32807617 40.4037323 406.21070862 C37.69962702 425.47892944 37.69962702 425.47892944 41.67759705 444.23973083 C42.32043177 445.97507197 42.96233966 447.71075667 43.6033783 449.44676208 C43.92902771 450.3086615 44.25467712 451.17056091 44.5901947 452.05857849 C56.8843135 484.71190771 56.8843135 484.71190771 51.55259705 496.61473083 C47.17810822 504.02705912 41.00205151 510.20282818 32.55259705 512.61473083 C28.71525651 513.03560487 24.9066537 513.01471058 21.04942322 512.98704529 C19.34095718 512.99252129 19.34095718 512.99252129 17.59797668 512.99810791 C13.84701973 513.00619041 10.09649771 512.99262609 6.3455658 512.97801208 C3.73719279 512.97749338 1.12881939 512.97801147 -1.47955322 512.97952271 C-6.93755769 512.9804036 -12.39543745 512.96936297 -17.85340881 512.95091248 C-24.16616398 512.92969485 -30.47873727 512.92624739 -36.79152089 512.93247443 C-42.86934918 512.9381628 -48.94710308 512.93242715 -55.02492332 512.92130089 C-57.61060515 512.91744267 -60.19629248 512.91630323 -62.7819767 512.91788673 C-66.3851594 512.91825583 -69.98806112 512.90568275 -73.59120178 512.88938904 C-74.66705032 512.89186646 -75.74289886 512.89434387 -76.85134888 512.89689636 C-77.82843811 512.88981155 -78.80552734 512.88272675 -79.81222534 512.87542725 C-80.66408826 512.87337438 -81.51595118 512.87132151 -82.39362812 512.86920643 C-84.44740295 512.61473083 -84.44740295 512.61473083 -86.44740295 510.61473083 C-86.98634201 506.43306178 -87.03200197 502.2444715 -87.09266663 498.0309906 C-87.12065531 496.63689553 -87.16827977 495.24304632 -87.23622131 493.85032654 C-87.79537334 482.34874717 -87.79537334 482.34874717 -84.5907135 478.2263031 C-82.29455233 476.42154295 -80.0173265 474.99512994 -77.44740295 473.61473083 C-75.99140686 472.61893005 -75.99140686 472.61893005 -74.5059967 471.60301208 C-73.64103577 471.05000427 -72.77607483 470.49699646 -71.88490295 469.92723083 C-59.38939636 461.69227865 -47.73377499 452.42423601 -36.44740295 442.61473083 C-35.67654358 441.9560199 -34.9056842 441.29730896 -34.11146545 440.61863708 C-22.87000977 431.64043865 -22.87000977 431.64043865 -16.99127197 419.25016785 C-17.02086502 418.05659668 -17.05045807 416.86302551 -17.08094788 415.63328552 C-17.0959669 414.98073162 -17.11098593 414.32817772 -17.12646008 413.65584946 C-17.34979019 406.81235658 -18.26825271 400.07967354 -19.3106842 393.31785583 C-19.50635617 391.99165926 -19.70092291 390.66529921 -19.89447021 389.33879089 C-20.40205496 385.87583853 -20.92149315 382.41478576 -21.44459534 378.95414734 C-22.37229812 372.80663488 -23.28120038 366.65632162 -24.1856842 360.50535583 C-24.28399347 359.83901564 -24.38230274 359.17267544 -24.48359108 358.48614311 C-26.48117556 344.89929814 -28.06270159 331.27678937 -29.44740295 317.61473083 C-29.52087952 316.89001083 -29.59435608 316.16529083 -29.6700592 315.41860962 C-32.85720074 283.36174456 -30.31069885 249.77379966 -16.36439514 220.32810974 C-14.68287464 215.35249236 -15.44477281 210.20318499 -15.76649475 205.0243988 C-15.88323948 203.01831518 -15.95374782 201.00971377 -16.02357483 199.00144958 C-16.50656598 190.84336374 -17.97548665 185.64492976 -22.76112366 179.00975037 C-25.07378913 175.72507564 -26.13047606 172.69533728 -27.32240295 168.86473083 C-27.71169983 167.65301208 -28.1009967 166.44129333 -28.50209045 165.19285583 C-39.02167451 125.37492609 -21.59510964 73.30188392 -13.53475571 33.94632339 C-13.13629829 31.9965586 -12.7412006 30.0461082 -12.34611511 28.09565735 C-11.6028704 24.44084056 -10.845987 20.78914351 -10.0841217 17.13816833 C-9.75167953 15.49762733 -9.75167953 15.49762733 -9.41252136 13.82394409 C-9.19804352 12.81308243 -8.98356567 11.80222076 -8.7625885 10.76072693 C-8.58020126 9.88322784 -8.39781403 9.00572876 -8.2098999 8.10163879 C-6.60802699 2.87707953 -5.73662306 0.39218985 0 0 Z M3.55259705 10.61473083 C0.17403692 24.07082317 0.17403692 24.07082317 -2.7794342 37.60301208 C-2.97695786 38.5740538 -3.17448151 39.54509552 -3.37799072 40.54556274 C-4.01087856 43.67169308 -4.63645186 46.79920558 -5.25990295 49.92723083 C-5.47606262 51.00778748 -5.69222229 52.08834412 -5.91493225 53.2016449 C-9.02413998 68.79689074 -11.89589123 84.41852367 -14.44740295 100.11473083 C-14.58892792 100.97917816 -14.73045288 101.84362549 -14.87626648 102.73426819 C-16.31416476 111.57282367 -17.60807133 120.41528136 -18.6153717 129.31394958 C-18.69670349 130.02784851 -18.77803528 130.74174744 -18.86183167 131.47727966 C-20.48645992 146.58356579 -20.1188549 161.12355672 -12.44740295 174.61473083 C-8.89398471 173.43025809 -8.30516407 172.41859962 -6.1622467 169.43113708 C-5.54929749 168.58615662 -4.93634827 167.74117615 -4.30482483 166.87059021 C-3.67125061 165.98178162 -3.03767639 165.09297302 -2.38490295 164.17723083 C-1.1245637 162.42753842 0.13709453 160.6787951 1.4002533 158.93113708 C1.95720886 158.15197937 2.51416443 157.37282166 3.08799744 156.5700531 C4.55259705 154.61473083 4.55259705 154.61473083 6.55259705 152.61473083 C9.67759705 152.48973083 9.67759705 152.48973083 12.55259705 152.61473083 C12.76013611 153.17418396 12.96767517 153.73363708 13.1815033 154.31004333 C18.64694198 168.53390469 23.77087148 180.02600849 37.34165955 187.86473083 C40.18228604 188.82833558 41.7217871 188.55226596 44.55259705 187.61473083 C75.59323979 166.11410214 81.10972242 87.79498604 87.43087769 53.29840088 C87.97494923 50.30029622 88.51450017 47.30141307 89.05259705 44.30223083 C89.31023331 42.87915115 89.31023331 42.87915115 89.57307434 41.42732239 C90.0636732 38.70335209 90.54435065 35.97783138 91.02134705 33.25144958 C91.16258499 32.46757874 91.30382294 31.68370789 91.44934082 30.87608337 C92.61589979 24.07566372 93.01574546 17.59380146 93.55259705 10.61473083 C63.85259705 10.61473083 34.15259705 10.61473083 3.55259705 10.61473083 Z M163.55259705 11.61473083 C164.19633014 19.33952802 164.93173452 26.70524768 166.30259705 34.28269958 C166.4763385 35.26423508 166.65007996 36.24577057 166.8290863 37.25704956 C167.39602803 40.44018985 167.97301238 43.62136958 168.55259705 46.80223083 C168.75167664 47.90065308 168.95075623 48.99907532 169.15586853 50.13078308 C178.70428875 123.3952284 178.70428875 123.3952284 211.24009705 186.61473083 C214.25839161 188.77586699 214.25839161 188.77586699 216.99009705 188.80223083 C229.0396525 183.2182905 235.73734673 174.88419427 240.55259705 162.61473083 C240.94576111 161.65051208 241.33892517 160.68629333 241.7440033 159.69285583 C242.69782124 157.33988335 243.63362113 154.98147887 244.55259705 152.61473083 C247.1736908 152.17332458 247.1736908 152.17332458 250.55259705 152.61473083 C252.98036837 154.65442834 254.75152823 157.12594501 256.61509705 159.67723083 C257.37016541 160.66239685 257.37016541 160.66239685 258.14048767 161.66746521 C260.14261999 164.29639704 262.09519085 166.94876637 263.96617126 169.6728363 C265.11935967 171.35000919 266.33103319 172.98668473 267.55259705 174.61473083 C268.21259705 174.61473083 268.87259705 174.61473083 269.55259705 174.61473083 C289.48967731 133.90351732 266.88954597 71.06431812 258.12504578 29.17152405 C256.901915 23.32488131 255.72415561 17.47252364 254.55259705 11.61473083 C224.52259705 11.61473083 194.49259705 11.61473083 163.55259705 11.61473083 Z " fill="#000000" stroke="#000000" stroke-width="10" stroke-linejoin="round" stroke-linecap="round" transform="translate(127.44740295410156,-0.6147308349609375)"/>
</svg>
