<svg width="33" height="33" viewBox="0 0 33 33" fill="none" xmlns="http://www.w3.org/2000/svg">
<g id="Group 14">
<g id="Rectangle 24" filter="url(#filter0_i_48_632)">
<rect width="33" height="33" rx="10" fill="#D5B878"/>
</g>
<g id="exercise-dumbbells-gym">
<g id="Group">
<path id="Vector" d="M27.6858 7.43436L26.9972 6.5328C26.7515 6.21258 26.4356 5.95296 26.0739 5.77392C25.7121 5.59487 25.3141 5.50117 24.9104 5.5H23.9897C23.9703 5.50014 23.9509 5.50285 23.9322 5.50808C22.5773 5.91189 21.3836 6.73122 20.5198 7.8503L20.3381 8.08452C20.3275 8.09765 20.319 8.11228 20.3128 8.12794C20.1826 8.42677 19.0539 11.0749 19.4203 12.0532C19.7444 12.9154 20.2644 13.72 20.7247 14.3288C17.6253 16.4893 19.2366 19.7533 19.7707 20.8345C19.856 21.005 19.9091 21.1899 19.9272 21.3797C18.9963 21.1697 17.7566 21.0536 16.8449 21.5745C15.59 22.2913 13.378 22.5579 12.6824 22.6265V20.2419C12.6826 20.2303 12.6813 20.2188 12.6784 20.2076C12.6722 20.1661 12.6527 20.1279 12.6228 20.0985L10.1988 17.6745C10.18 17.6557 10.1577 17.6407 10.1331 17.6305C10.1085 17.6202 10.0821 17.615 10.0555 17.615H6.62695C6.60031 17.615 6.57393 17.6202 6.54933 17.6305C6.52473 17.6407 6.50239 17.6557 6.48359 17.6745L4.05959 20.0985C4.0297 20.1279 4.01021 20.1661 4.00406 20.2076C4.00117 20.2188 3.99981 20.2303 4.00002 20.2419V23.6825C4.00014 23.7361 4.02114 23.7876 4.05858 23.8259L6.48359 26.2549C6.50239 26.2738 6.52473 26.2888 6.54933 26.299C6.57393 26.3092 6.60031 26.3145 6.62695 26.3145H10.0555C10.0821 26.3145 10.1085 26.3092 10.1331 26.299C10.1577 26.2888 10.18 26.2738 10.1988 26.2549L11.3861 25.0657C11.8445 25.1999 15.2175 26.1802 16.6894 26.4357C17.0106 26.4831 17.335 26.5044 17.6596 26.4993C19.5748 26.4993 22.6237 26.0167 22.7782 25.9925C22.8115 25.987 22.8428 25.9734 22.8694 25.9528C22.8961 25.9321 22.9171 25.9052 22.9307 25.8743C23.1204 25.4262 23.255 24.9567 23.3315 24.4761C23.4415 23.9036 23.5364 23.4089 23.9927 22.7527C27.8675 17.1859 26.9215 13.2899 26.7883 12.8235C27.0296 12.5883 27.2769 12.352 27.5192 12.1269C28.2219 11.4495 28.2299 10.4863 28.2299 10.4459V9.02646C28.2263 8.45074 28.0353 7.89187 27.6858 7.43436ZM9.97169 18.0188L12.2786 20.3297V23.5866L9.97169 25.8935H6.71074L4.40385 23.5866V20.3297L6.71074 18.0188H9.97169ZM27.8261 10.4459C27.8261 10.454 27.819 11.2758 27.2416 11.8341C26.9579 12.0966 26.6681 12.3762 26.3885 12.6509C25.4203 13.5999 24.5793 14.4964 24.5682 14.5075C24.5315 14.5466 24.5119 14.5986 24.5136 14.6522C24.5153 14.7058 24.5382 14.7565 24.5773 14.7932C24.6164 14.8299 24.6684 14.8495 24.722 14.8478C24.7756 14.8461 24.8263 14.8232 24.863 14.7841C24.8721 14.773 25.5838 14.0148 26.449 13.1567C26.6358 14.1107 27.0205 17.6957 23.6616 22.5225C23.1558 23.2494 23.0488 23.8077 22.9347 24.3993C22.8677 24.8138 22.7567 25.2199 22.6036 25.6108C21.909 25.7168 18.1271 26.2751 16.7581 26.0379C15.4688 25.8138 12.5915 24.994 11.7122 24.7396L12.6239 23.8259C12.6613 23.7876 12.6823 23.7361 12.6824 23.6825V23.0324C13.3608 22.9698 15.6819 22.7043 17.0458 21.9249C17.9201 21.4251 19.2023 21.6099 20.0857 21.836C20.4254 21.9228 20.7596 22.0304 21.0862 22.1581C21.1349 22.1754 21.1885 22.1733 21.2357 22.1523C21.283 22.1313 21.3204 22.0929 21.3402 22.0451C21.3601 21.9973 21.3608 21.9438 21.3422 21.8955C21.3237 21.8471 21.2873 21.8078 21.2406 21.7855C20.9452 21.6672 20.6431 21.5661 20.336 21.4827C20.3324 21.1947 20.2627 20.9115 20.1321 20.6548C19.2719 18.9133 18.4299 16.4035 20.9741 14.6468C21.3587 15.1243 21.6586 15.4262 21.6869 15.4545C21.7055 15.4733 21.7277 15.4882 21.7521 15.4984C21.7765 15.5086 21.8027 15.5139 21.8292 15.514C21.8829 15.5137 21.9344 15.4923 21.9726 15.4545C21.9913 15.4357 22.0062 15.4134 22.0164 15.3889C22.0266 15.3644 22.0318 15.3381 22.0318 15.3116C22.0318 15.2851 22.0266 15.2588 22.0164 15.2343C22.0062 15.2098 21.9913 15.1875 21.9726 15.1687C21.9574 15.1536 20.442 13.6261 19.7989 11.9108C19.5385 11.2183 20.332 9.10117 20.6722 8.31168L20.8388 8.09765C21.6451 7.05317 22.7571 6.28626 24.02 5.90383H24.9104C25.252 5.9048 25.5888 5.98412 25.895 6.13569C26.2011 6.28726 26.4684 6.50705 26.6762 6.77813L27.3647 7.67968C27.661 8.06642 27.823 8.53928 27.8261 9.02646V10.4459Z" fill="black"/>
<path id="Vector_2" d="M23.8362 15.8411C23.81 15.8449 23.7847 15.8539 23.762 15.8675C23.7392 15.8811 23.7193 15.899 23.7034 15.9203C23.6876 15.9416 23.6761 15.9658 23.6696 15.9915C23.6631 16.0173 23.6618 16.044 23.6656 16.0703C23.9695 18.2005 22.5935 20.2227 22.5793 20.2429C22.5585 20.2733 22.5464 20.3087 22.5443 20.3455C22.5422 20.3823 22.5501 20.4189 22.5672 20.4515C22.5843 20.4841 22.61 20.5114 22.6415 20.5305C22.673 20.5496 22.7091 20.5598 22.7459 20.5599C22.7786 20.56 22.8108 20.552 22.8397 20.5367C22.8686 20.5214 22.8932 20.4992 22.9115 20.472C22.972 20.3852 24.3915 18.3025 24.0644 16.0127C24.0569 15.9597 24.0287 15.9119 23.9859 15.8797C23.9431 15.8475 23.8893 15.8336 23.8362 15.8411Z" fill="black"/>
<path id="Vector_3" d="M8.97112 16.6286C9.00798 16.6285 9.04479 16.6255 9.08116 16.6195C9.20015 16.5994 9.31069 16.545 9.39927 16.4631C9.48785 16.3811 9.55062 16.2752 9.57989 16.1581C9.5809 16.1561 9.5809 16.1551 9.58191 16.154C9.97291 14.6927 10.7284 13.3544 11.7776 12.2646C12.8268 11.1748 14.1354 10.3691 15.5808 9.92292L15.6767 10.3914C15.6935 10.4608 15.7283 10.5246 15.7777 10.5762C15.8271 10.6278 15.8893 10.6654 15.958 10.6851C16.0266 10.7048 16.0993 10.7059 16.1686 10.6884C16.2378 10.6708 16.3012 10.6352 16.3522 10.5852L18.022 8.89921C18.0995 8.82613 18.1564 8.73387 18.1868 8.63177C18.2172 8.52966 18.2201 8.42134 18.1952 8.31775C18.1703 8.21417 18.1185 8.119 18.045 8.04187C17.9715 7.96474 17.8789 7.90839 17.7767 7.87852L15.5627 7.2233C15.4948 7.20301 15.4228 7.20097 15.3539 7.21741C15.2849 7.23384 15.2216 7.26816 15.1702 7.31691C15.1188 7.36565 15.0811 7.4271 15.0611 7.49504C15.041 7.56298 15.0392 7.63501 15.0559 7.70387L15.172 8.18745C12.656 9.05282 10.5622 10.8407 9.31337 13.1899C8.86783 14.0293 8.54033 14.9262 8.34013 15.8552C8.31882 15.9567 8.32239 16.0619 8.35051 16.1618C8.37864 16.2616 8.4305 16.3532 8.50166 16.4287C8.56187 16.4926 8.63467 16.5433 8.71547 16.5777C8.79626 16.6121 8.88331 16.6294 8.97112 16.6286Z" fill="black"/>
<path id="Vector_4" d="M6.98538 25.0262C7.00418 25.0451 7.02653 25.0601 7.05113 25.0703C7.07573 25.0805 7.1021 25.0858 7.12874 25.0858H9.55375C9.58039 25.0858 9.60677 25.0805 9.63137 25.0703C9.65597 25.0601 9.67831 25.0451 9.69711 25.0262L11.4114 23.312C11.4302 23.2932 11.4452 23.2708 11.4554 23.2462C11.4657 23.2216 11.4709 23.1953 11.4709 23.1686V20.7436C11.4709 20.717 11.4657 20.6906 11.4554 20.666C11.4452 20.6414 11.4302 20.6191 11.4114 20.6002L9.69711 18.886C9.67831 18.8671 9.65597 18.8521 9.63137 18.8419C9.60677 18.8317 9.58039 18.8264 9.55375 18.8264H7.12874C7.1021 18.8264 7.07573 18.8317 7.05113 18.8419C7.02653 18.8521 7.00418 18.8671 6.98538 18.886L5.27111 20.6002C5.25224 20.6191 5.23727 20.6414 5.22705 20.666C5.21683 20.6906 5.21156 20.717 5.21155 20.7436V23.1686C5.21156 23.1953 5.21683 23.2216 5.22705 23.2462C5.23727 23.2708 5.25224 23.2932 5.27111 23.312L6.98538 25.0262ZM7.02879 21.9561C7.0286 21.6522 7.13379 21.3577 7.32643 21.1227C7.51908 20.8877 7.78725 20.7268 8.08525 20.6674C8.38324 20.608 8.69263 20.6537 8.96067 20.7969C9.22871 20.94 9.43882 21.1717 9.55519 21.4524C9.67156 21.7331 9.687 22.0454 9.59886 22.3362C9.51072 22.627 9.32446 22.8783 9.07184 23.0471C8.81921 23.216 8.51584 23.292 8.21344 23.2622C7.91103 23.2325 7.62831 23.0988 7.41344 22.8839C7.29105 22.7625 7.19401 22.6179 7.12798 22.4586C7.06194 22.2994 7.02823 22.1285 7.02879 21.9561Z" fill="black"/>
</g>
</g>
</g>
<defs>
<filter id="filter0_i_48_632" x="0" y="0" width="33" height="37" filterUnits="userSpaceOnUse" color-interpolation-filters="sRGB">
<feFlood flood-opacity="0" result="BackgroundImageFix"/>
<feBlend mode="normal" in="SourceGraphic" in2="BackgroundImageFix" result="shape"/>
<feColorMatrix in="SourceAlpha" type="matrix" values="0 0 0 0 0 0 0 0 0 0 0 0 0 0 0 0 0 0 127 0" result="hardAlpha"/>
<feOffset dy="4"/>
<feGaussianBlur stdDeviation="2"/>
<feComposite in2="hardAlpha" operator="arithmetic" k2="-1" k3="1"/>
<feColorMatrix type="matrix" values="0 0 0 0 0 0 0 0 0 0 0 0 0 0 0 0 0 0 0.25 0"/>
<feBlend mode="normal" in2="shape" result="effect1_innerShadow_48_632"/>
</filter>
</defs>
</svg>
