<svg width="202" height="101" viewBox="0 0 202 101" fill="none" xmlns="http://www.w3.org/2000/svg">
<mask id="path-1-inside-1_100_30" fill="white">
<path d="M0 101C0 45.7715 45.7715 0 101 0V0C156.228 0 202 45.7715 202 101V101H0V101Z"/>
</mask>
<path fill-rule="evenodd" clip-rule="evenodd" d="M-0.952847 97.9168L-1.95238 97.8862C-1.9739 98.5892 -1.98816 99.2938 -1.99509 100C-1.99836 100.333 -2 100.666 -2 101H-1H0H1H2V100C2 99.3344 2.00664 98.6703 2.01985 98.0078L1.04622 97.978L-0.952847 97.9168ZM2.97741 86.1055C2.69905 88.0668 2.47875 90.0468 2.31831 92.0436L1.41525 91.9604L-0.576306 91.7767L-1.57208 91.6849C-1.38101 89.6126 -1.12692 87.5568 -0.811786 85.5194L0.176462 85.6723L2.15296 85.978L2.97741 86.1055ZM5.38213 74.3826C4.86372 76.302 4.40215 78.2447 3.99935 80.2089L3.25835 80.047L1.30442 79.6202L0.327451 79.4068C0.771227 77.3751 1.27606 75.3647 1.83988 73.3775L2.80191 73.6505L4.72596 74.1964L5.38213 74.3826ZM9.21325 63.0293C8.46084 64.875 7.76309 66.7489 7.12199 68.6488L6.54885 68.4476L4.66175 67.7852L3.7182 67.4539C4.40588 65.495 5.15167 63.562 5.95342 61.6572L6.87511 62.0451L8.71848 62.821L9.21325 63.0293ZM14.4197 52.2143C13.4437 53.9586 12.5194 55.7358 11.649 57.5438L11.2256 57.3346L9.43242 56.4489L8.53584 56.006C9.45456 54.1461 10.4279 52.3169 11.4536 50.5206L12.322 51.0165L14.0588 52.0082L14.4197 52.2143ZM20.9191 42.1077C19.735 43.7224 18.5992 45.3747 17.5138 47.0625L17.2054 46.8611L15.5308 45.7675L14.6935 45.2208C15.8266 43.4857 17.0102 41.786 18.2423 40.1237L19.0457 40.7192L20.6525 41.9101L20.9191 42.1077ZM28.6089 32.863C27.2351 34.3234 25.9055 35.8259 24.6224 37.3685L24.3869 37.1714L22.8533 35.8876L22.0866 35.2457C23.416 33.6576 24.7918 32.1094 26.2118 30.6031L26.9394 31.2891L28.3947 32.661L28.6089 32.863ZM37.3685 24.6224C35.826 25.9055 34.3234 27.235 32.863 28.6089L32.661 28.3947L31.2891 26.9394L30.6031 26.2118C32.1094 24.7918 33.6576 23.4159 35.2457 22.0865L35.8876 22.8533L37.1714 24.3869L37.3685 24.6224ZM47.0625 17.5138C45.3747 18.5992 43.7225 19.735 42.1078 20.9191L41.9101 20.6524L40.7192 19.0457L40.1237 18.2423C41.786 17.0102 43.4857 15.8266 45.2208 14.6935L45.7675 15.5308L46.8611 17.2054L47.0625 17.5138ZM57.5438 11.649C55.7358 12.5194 53.9586 13.4437 52.2143 14.4197L52.0083 14.0588L51.0165 12.322L50.5206 11.4536C52.3169 10.4279 54.1461 9.45456 56.006 8.53584L56.4489 9.43242L57.3346 11.2256L57.5438 11.649ZM68.6488 7.122C66.7489 7.76309 64.875 8.46084 63.0293 9.21325L62.821 8.71848L62.0451 6.87511L61.6572 5.95342C63.562 5.15167 65.495 4.40588 67.4539 3.71821L67.7851 4.66176L68.4476 6.54886L68.6488 7.122ZM80.2088 3.99936C78.2447 4.40216 76.3019 4.86372 74.3825 5.38213L74.1964 4.72597L73.6504 2.80192L73.3775 1.83989C75.3646 1.27607 77.3751 0.771235 79.4068 0.327459L79.6202 1.30443L80.047 3.25836L80.2088 3.99936ZM92.0436 2.31831C90.0468 2.47875 88.0668 2.69905 86.1055 2.97741L85.978 2.15296L85.6723 0.176466L85.5194 -0.811782C87.5568 -1.12692 89.6126 -1.38101 91.6849 -1.57208L91.7767 -0.576304L91.9604 1.41525L92.0436 2.31831ZM98.0078 2.01985C98.6703 2.00664 99.3344 2 100 2H101H102C102.666 2 103.33 2.00664 103.992 2.01985L104.022 1.04622L104.083 -0.952847L104.114 -1.95238C103.411 -1.9739 102.706 -1.98816 102 -1.99509C101.667 -1.99836 101.334 -2 101 -2C100.666 -2 100.333 -1.99836 100 -1.99509C99.2938 -1.98816 98.5892 -1.9739 97.8862 -1.95238L97.9168 -0.952846L97.978 1.04622L98.0078 2.01985ZM203.995 100C203.988 99.2938 203.974 98.5892 203.952 97.8862L202.953 97.9168L200.954 97.978L199.98 98.0078C199.993 98.6703 200 99.3344 200 100V101H201H202H203H204C204 100.666 203.998 100.333 203.995 100ZM199.682 92.0436L200.585 91.9604L202.576 91.7767L203.572 91.6849C203.381 89.6126 203.127 87.5568 202.812 85.5194L201.824 85.6723L199.847 85.978L199.023 86.1055C199.301 88.0668 199.521 90.0468 199.682 92.0436ZM198.001 80.2088L198.742 80.047L200.696 79.6202L201.673 79.4068C201.229 77.3751 200.724 75.3646 200.16 73.3775L199.198 73.6504L197.274 74.1964L196.618 74.3825C197.136 76.3019 197.598 78.2447 198.001 80.2088ZM194.878 68.6488L195.451 68.4476L197.338 67.7851L198.282 67.4539C197.594 65.495 196.848 63.562 196.047 61.6572L195.125 62.0451L193.282 62.821L192.787 63.0293C193.539 64.875 194.237 66.7489 194.878 68.6488ZM190.351 57.5438L190.774 57.3346L192.568 56.4489L193.464 56.006C192.545 54.1461 191.572 52.3169 190.546 50.5206L189.678 51.0165L187.941 52.0083L187.58 52.2143C188.556 53.9586 189.481 55.7358 190.351 57.5438ZM184.486 47.0625L184.795 46.8611L186.469 45.7675L187.306 45.2208C186.173 43.4857 184.99 41.786 183.758 40.1237L182.954 40.7192L181.348 41.9101L181.081 42.1078C182.265 43.7225 183.401 45.3747 184.486 47.0625ZM177.378 37.3685L177.613 37.1714L179.147 35.8876L179.913 35.2457C178.584 33.6576 177.208 32.1094 175.788 30.6031L175.061 31.2891L173.605 32.661L173.391 32.863C174.765 34.3234 176.095 35.826 177.378 37.3685ZM169.137 28.6089L169.339 28.3947L170.711 26.9394L171.397 26.2118C169.891 24.7918 168.342 23.416 166.754 22.0866L166.112 22.8533L164.829 24.3869L164.632 24.6224C166.174 25.9055 167.677 27.2351 169.137 28.6089ZM159.892 20.9191L160.09 20.6525L161.281 19.0457L161.876 18.2423C160.214 17.0102 158.514 15.8266 156.779 14.6935L156.232 15.5308L155.139 17.2054L154.937 17.5138C156.625 18.5992 158.278 19.7351 159.892 20.9191ZM149.786 14.4197L149.992 14.0588L150.984 12.322L151.479 11.4536C149.683 10.4279 147.854 9.45456 145.994 8.53584L145.551 9.43242L144.665 11.2256L144.456 11.649C146.264 12.5194 148.041 13.4437 149.786 14.4197ZM138.971 9.21325L139.179 8.71848L139.955 6.87511L140.343 5.95342C138.438 5.15167 136.505 4.40588 134.546 3.7182L134.215 4.66175L133.552 6.54885L133.351 7.12199C135.251 7.76308 137.125 8.46084 138.971 9.21325ZM127.617 5.38213L127.804 4.72596L128.35 2.80191L128.622 1.83988C126.635 1.27606 124.625 0.771227 122.593 0.327451L122.38 1.30442L121.953 3.25835L121.791 3.99935C123.755 4.40215 125.698 4.86372 127.617 5.38213ZM115.894 2.97741L116.022 2.15296L116.328 0.176462L116.481 -0.811786C114.443 -1.12692 112.387 -1.38101 110.315 -1.57208L110.223 -0.576306L110.04 1.41525L109.956 2.31831C111.953 2.47875 113.933 2.69905 115.894 2.97741Z" fill="#6F4BDA" mask="url(#path-1-inside-1_100_30)"/>
</svg>
