<svg width="28" height="28" viewBox="0 0 28 28" fill="none" xmlns="http://www.w3.org/2000/svg">
<g id="Frame">
<g id="Hamburger">
<path id="Vector" d="M25.8094 11.7092C25.4607 11.6751 25.1198 11.5854 24.7995 11.4434C24.6909 11.3717 24.3312 11.0907 24.6403 10.6598C25.0645 9.92759 24.8199 8.75041 23.4329 8.4685C23.171 7.59649 22.7558 6.77815 22.2067 6.05189C21.457 5.06878 20.4696 4.29334 19.272 3.74715C17.8527 3.09981 16.1255 2.77161 14.1385 2.77161C12.1515 2.77161 10.4243 3.09981 9.00502 3.74717C7.80742 4.29336 6.82004 5.06879 6.07035 6.0519C5.5314 6.76442 5.12139 7.56581 4.85891 8.41977C3.17252 8.56576 2.85399 9.87155 3.31134 10.6598C3.67152 11.1613 3.12256 11.4619 3.12203 11.4619C2.81338 11.5931 2.48654 11.6765 2.15277 11.7092C0.61695 11.8614 0.438761 14.6234 3.18423 15.1754V16.6689C3.18423 17.2258 3.59925 17.7521 4.33648 18.2177C4.33806 19.1031 4.37709 20.8201 5.57099 22.36C7.07761 24.3022 9.90681 25.2867 13.9811 25.2867C18.0553 25.2867 20.8845 24.3022 22.3906 22.36C23.5545 20.8597 23.6214 19.1917 23.6251 18.2878C24.4335 17.8053 24.8918 17.2542 24.8918 16.6689V15.1506C27.5175 14.5459 27.3236 11.8593 25.8094 11.7092ZM14.1385 3.45715C22.846 3.45715 23.0974 9.89587 23.0974 10.6301C23.0974 11.2401 22.1682 11.8997 20.612 12.3945C18.8878 12.9426 16.5888 13.2445 14.1385 13.2445C11.6882 13.2445 9.38925 12.9426 7.66508 12.3945C6.10875 11.8997 5.17959 11.2401 5.17959 10.6301C5.17959 9.89587 5.43098 3.45715 14.1385 3.45715ZM19.8219 16.3891C19.5897 16.7459 19.3828 17.1185 19.2028 17.5042C19.1443 17.6234 19.0894 17.7394 19.0372 17.8491C18.9835 17.9619 18.9339 18.0664 18.8891 18.1581L18.1882 19.5825C18.146 19.671 18.0812 19.7469 18.0002 19.8024C17.9193 19.8578 17.8252 19.8909 17.7273 19.8984C17.6296 19.9073 17.5313 19.8906 17.442 19.85C17.3527 19.8094 17.2754 19.7463 17.2179 19.6668L16.6906 18.9444C16.5529 18.7551 16.3889 18.4888 16.216 18.2066C16.1543 18.1059 16.0915 18.0043 16.0277 17.9018C15.6557 17.3033 15.2492 16.6947 14.7917 16.3147C15.2795 16.2296 15.742 16.0364 16.1453 15.7492C16.3242 15.6221 16.5388 15.5552 16.7583 15.558C16.9777 15.5608 17.1905 15.6333 17.3661 15.765C17.7547 16.0503 18.3934 16.3282 19.4259 16.3841C19.5651 16.3915 19.6967 16.3928 19.8219 16.3891ZM3.92043 15.2637C4.35601 15.282 4.79235 15.2604 5.224 15.1992C5.4017 15.1737 5.58296 15.1945 5.75032 15.2594C5.91768 15.3244 6.0655 15.4313 6.17955 15.5699C6.50281 15.9691 7.17834 16.4564 8.53625 16.3841C9.57459 16.3282 10.2137 16.0472 10.6019 15.7608C10.7777 15.6272 10.9912 15.5526 11.2119 15.5476C11.4327 15.5425 11.6494 15.6074 11.8311 15.7329C11.9981 15.8506 12.1754 15.9529 12.361 16.0384L12.359 16.044L12.4312 16.0699C12.5759 16.133 12.7247 16.1864 12.8764 16.2298L14.0317 16.6446C14.4267 16.7865 14.8612 17.3592 15.2409 17.9419C14.8464 17.9577 14.4455 17.9656 14.038 17.9656C10.9873 17.9656 8.2441 17.5237 6.3446 16.8208C6.05351 16.7127 5.78298 16.5989 5.53302 16.4796C4.77896 16.1183 4.22394 15.7071 3.92043 15.2637ZM13.329 20.1125L12.929 20.3464C12.2322 20.638 11.7196 21.2085 11.2694 21.7822L10.5933 22.6422C10.535 22.7162 10.4594 22.7748 10.3732 22.8127C10.287 22.8506 10.1927 22.8667 10.0988 22.8597C10.0048 22.8526 9.91407 22.8225 9.8345 22.7721C9.75493 22.7216 9.68898 22.6524 9.64248 22.5704L8.80044 21.0853C8.7492 20.9949 8.69039 20.8849 8.6281 20.7684C8.40372 20.3487 8.13715 19.851 7.83201 19.5C9.4094 19.8501 11.2925 20.0708 13.329 20.1125ZM21.849 21.9397C20.4795 23.7058 17.8323 24.6012 13.9811 24.6012C10.1299 24.6012 7.48261 23.7058 6.1131 21.9397C5.2066 20.7711 5.05314 19.4533 5.0273 18.5937C5.28273 18.7143 5.5621 18.8293 5.86217 18.9385L7.14389 19.7839C7.44477 20.0091 7.79277 20.66 8.02354 21.0917C8.08787 21.212 8.14863 21.3256 8.20406 21.4234L9.04627 22.9089C9.14833 23.0889 9.29319 23.241 9.46803 23.3516C9.64287 23.4623 9.8423 23.5282 10.0487 23.5434C10.0802 23.5458 10.1117 23.5469 10.143 23.5469C10.3336 23.547 10.5217 23.5037 10.6931 23.4203C10.8645 23.337 11.0147 23.2157 11.1323 23.0657L11.8085 22.2056C12.2056 21.6996 12.6502 21.1999 13.2109 20.9716C13.2259 20.9655 13.2406 20.9583 13.2546 20.9501L14.6854 20.1137C15.3506 20.1012 15.9999 20.0697 16.6278 20.0207L16.6642 20.0708C16.7797 20.2307 16.9317 20.3608 17.1075 20.4503C17.2832 20.5399 17.4778 20.5864 17.6751 20.586C17.712 20.586 17.7494 20.5844 17.7869 20.5812C18.0023 20.5634 18.2093 20.4898 18.3875 20.3676C18.5658 20.2455 18.7092 20.079 18.8036 19.8846L18.8648 19.7607C20.4964 19.5028 21.8949 19.1179 22.9327 18.6469C22.9021 19.5071 22.7371 20.7948 21.849 21.9397ZM22.4782 16.5102C22.2282 16.6272 21.9577 16.7387 21.6666 16.8445C21.142 17.0325 20.6074 17.1907 20.065 17.3186C20.276 16.9247 20.5091 16.5524 20.7305 16.3704L20.9969 16.1517C21.3022 16.0248 21.5718 15.8251 21.7821 15.5699C21.8962 15.4313 22.0442 15.3244 22.2116 15.2595C22.379 15.1946 22.5604 15.1738 22.7381 15.1992C23.2089 15.2668 23.6854 15.2863 24.1601 15.2572C23.8491 15.7158 23.2691 16.1401 22.4782 16.5102Z" fill="black"/>
<path id="Vector_2" d="M10.6808 7.31846C10.8976 7.44368 11.1361 7.53415 11.3118 7.53415C11.4151 7.53415 11.4966 7.50286 11.5393 7.42901C11.6545 7.22948 11.3586 6.9396 11.0143 6.74083C10.67 6.54205 10.271 6.43075 10.1559 6.63028C10.1169 6.69775 10.104 6.81571 10.2638 6.99448C10.3855 7.12308 10.5261 7.23233 10.6808 7.31846Z" fill="black"/>
<path id="Vector_3" d="M18.6902 8.1687C18.8421 8.25962 19.0071 8.32678 19.1793 8.36786C19.2262 8.37821 19.274 8.3837 19.322 8.38424C19.4556 8.38424 19.5188 8.33098 19.5487 8.27924C19.5876 8.21178 19.6005 8.09382 19.4407 7.91504C19.1925 7.66074 18.879 7.47973 18.5346 7.39187C18.2998 7.34274 18.2042 7.41301 18.1652 7.4805C18.1263 7.54799 18.1134 7.66594 18.2732 7.84469C18.3949 7.97331 18.5355 8.08258 18.6902 8.1687Z" fill="black"/>
<path id="Vector_4" d="M15.5454 7.27276C15.7299 7.27276 15.9826 7.06852 16.1835 6.82462C16.4363 6.51777 16.6117 6.14255 16.4339 5.99606C16.256 5.84958 15.9214 6.09368 15.6686 6.40053C15.4159 6.70741 15.2405 7.08263 15.4183 7.22912C15.4541 7.25834 15.4992 7.27382 15.5454 7.27276Z" fill="black"/>
<path id="Vector_5" d="M13.7118 8.9992C13.6725 9.06723 13.6596 9.18619 13.8211 9.36685C14.0727 9.62454 14.3904 9.80798 14.7394 9.89705C14.7869 9.9075 14.8353 9.91305 14.8839 9.91363C15.0187 9.91363 15.0824 9.85994 15.1124 9.80785C15.1517 9.73983 15.1646 9.62084 15.0031 9.44018C14.8798 9.30986 14.7373 9.19914 14.5805 9.11185C14.2319 8.9106 13.8281 8.79765 13.7118 8.9992Z" fill="black"/>
<path id="Vector_6" d="M9.60555 9.91368C9.65414 9.91309 9.70254 9.90754 9.75 9.8971C9.92454 9.85543 10.0917 9.78736 10.2457 9.69523C10.5942 9.49399 10.8939 9.20074 10.7776 8.99925C10.6613 8.79776 10.2575 8.9106 9.90887 9.1119C9.56026 9.3132 9.26064 9.60639 9.37694 9.8079C9.40702 9.86002 9.47073 9.91368 9.60555 9.91368Z" fill="black"/>
<path id="Vector_7" d="M12.7262 5.56809C12.9039 5.56809 13.1457 5.47633 13.3654 5.34945C13.714 5.14817 14.0137 4.85491 13.8973 4.65345C13.8581 4.58542 13.7615 4.51489 13.5243 4.56425C13.1753 4.65333 12.8576 4.83676 12.606 5.09446C12.4445 5.27511 12.4574 5.3941 12.4967 5.4621C12.5397 5.53657 12.6219 5.56809 12.7262 5.56809Z" fill="black"/>
</g>
</g>
</svg>
