<svg width="47" height="47" viewBox="0 0 47 47" fill="none" xmlns="http://www.w3.org/2000/svg">
<path d="M23.5 1.95831C11.5542 1.95831 1.95837 11.5541 1.95837 23.5C1.95837 35.4458 11.5542 45.0416 23.5 45.0416C35.4459 45.0416 45.0417 35.4458 45.0417 23.5C45.0417 11.5541 35.4459 1.95831 23.5 1.95831ZM33.2917 27.4166H27.4167V33.2916C27.4167 35.4458 25.6542 37.2083 23.5 37.2083C21.3459 37.2083 19.5834 35.4458 19.5834 33.2916V27.4166H13.7084C11.5542 27.4166 9.79171 25.6541 9.79171 23.5C9.79171 21.3458 11.5542 19.5833 13.7084 19.5833H19.5834V13.7083C19.5834 11.5541 21.3459 9.79165 23.5 9.79165C25.6542 9.79165 27.4167 11.5541 27.4167 13.7083V19.5833H33.2917C35.4459 19.5833 37.2084 21.3458 37.2084 23.5C37.2084 25.6541 35.4459 27.4166 33.2917 27.4166Z" fill="#6F4BDA"/>
</svg>
