<svg width="31" height="31" viewBox="0 0 31 31" fill="none" xmlns="http://www.w3.org/2000/svg">
<g id="Frame">
<g id="weight-body-scales-control">
<g id="Group">
<path id="Vector" d="M29.03 12.5703C28.7375 12.339 28.3653 12.2331 27.9949 12.276C27.6244 12.3188 27.2862 12.5069 27.0542 12.7988L25.8125 14.3645V7.0625C25.8112 6.06835 25.4156 5.11529 24.7127 4.41232C24.0097 3.70935 23.0567 3.31383 22.0625 3.3125H5.1875C4.19328 3.31362 3.2401 3.70906 2.53708 4.41208C1.83406 5.1151 1.43862 6.06828 1.4375 7.0625V23.9375C1.43862 24.9317 1.83406 25.8849 2.53708 26.5879C3.2401 27.2909 4.19328 27.6864 5.1875 27.6875H22.0625C23.0567 27.6862 24.0097 27.2907 24.7127 26.5877C25.4156 25.8847 25.8112 24.9317 25.8125 23.9375V18.8938L29.2591 14.5449C29.4901 14.2525 29.5957 13.8804 29.5527 13.5103C29.5098 13.1401 29.3218 12.8021 29.03 12.5703ZM23.2344 25.3438C23.049 25.3438 22.8677 25.2888 22.7135 25.1858C22.5594 25.0827 22.4392 24.9363 22.3682 24.765C22.2973 24.5937 22.2787 24.4052 22.3149 24.2234C22.3511 24.0415 22.4403 23.8744 22.5715 23.7433C22.7026 23.6122 22.8696 23.5229 23.0515 23.4868C23.2333 23.4506 23.4218 23.4692 23.5931 23.5401C23.7644 23.6111 23.9109 23.7312 24.0139 23.8854C24.1169 24.0396 24.1719 24.2208 24.1719 24.4062C24.1715 24.6548 24.0727 24.893 23.8969 25.0688C23.7212 25.2445 23.4829 25.3434 23.2344 25.3438ZM7.29687 6.125C7.29706 6.0629 7.32181 6.00339 7.36573 5.95948C7.40964 5.91556 7.46915 5.89081 7.53125 5.89062H19.7187C19.7809 5.89081 19.8404 5.91556 19.8843 5.95948C19.9282 6.00339 19.9529 6.0629 19.9531 6.125V9.64062C19.9529 9.70273 19.9282 9.76223 19.8843 9.80615C19.8404 9.85006 19.7809 9.87481 19.7187 9.875H7.53125C7.46915 9.87481 7.40964 9.85006 7.36573 9.80615C7.32181 9.76223 7.29706 9.70273 7.29687 9.64062V6.125ZM24.1719 6.59375C24.1719 6.77917 24.1169 6.96043 24.0139 7.1146C23.9109 7.26877 23.7644 7.38893 23.5931 7.45989C23.4218 7.53084 23.2333 7.54941 23.0515 7.51324C22.8696 7.47706 22.7026 7.38777 22.5715 7.25666C22.4403 7.12555 22.3511 6.9585 22.3149 6.77665C22.2787 6.59479 22.2973 6.40629 22.3682 6.23498C22.4392 6.06368 22.5594 5.91726 22.7135 5.81425C22.8677 5.71123 23.049 5.65625 23.2344 5.65625C23.4829 5.65659 23.7212 5.75547 23.8969 5.93121C24.0727 6.10696 24.1715 6.34521 24.1719 6.59375ZM3.07812 24.4062C3.07812 24.2208 3.13311 24.0396 3.23612 23.8854C3.33914 23.7312 3.48555 23.6111 3.65686 23.5401C3.82816 23.4692 4.01666 23.4506 4.19852 23.4868C4.38038 23.5229 4.54743 23.6122 4.67854 23.7433C4.80965 23.8744 4.89894 24.0415 4.93511 24.2234C4.97128 24.4052 4.95272 24.5937 4.88176 24.765C4.8108 24.9363 4.69064 25.0827 4.53647 25.1858C4.3823 25.2888 4.20104 25.3438 4.01562 25.3438C3.76709 25.3434 3.52883 25.2445 3.35309 25.0688C3.17735 24.893 3.07847 24.6548 3.07812 24.4062ZM4.01562 7.53125C3.8302 7.53125 3.64895 7.47627 3.49478 7.37325C3.34061 7.27024 3.22044 7.12382 3.14949 6.95252C3.07853 6.78121 3.05997 6.59271 3.09614 6.41085C3.13231 6.229 3.2216 6.06195 3.35271 5.93084C3.48382 5.79973 3.65087 5.71044 3.83273 5.67426C4.01458 5.63809 4.20308 5.65666 4.37439 5.72761C4.5457 5.79857 4.69211 5.91873 4.79513 6.0729C4.89814 6.22707 4.95312 6.40833 4.95312 6.59375C4.95278 6.84229 4.8539 7.08054 4.67816 7.25629C4.50242 7.43203 4.26416 7.53091 4.01562 7.53125ZM12.2187 27.2188V23.7031C12.2187 23.3302 12.3669 22.9725 12.6306 22.7088C12.8944 22.445 13.252 22.2969 13.625 22.2969C13.998 22.2969 14.3556 22.445 14.6194 22.7088C14.8831 22.9725 15.0312 23.3302 15.0312 23.7031V27.2188H12.2187ZM28.8917 14.2543L25.3842 18.6816L22.9853 21.7074C22.8989 21.8173 22.7888 21.9063 22.6632 21.9678C22.5376 22.0292 22.3998 22.0616 22.26 22.0625H22.2506C22.1118 22.0628 21.9746 22.0321 21.8491 21.9727C21.7236 21.9133 21.613 21.8267 21.5252 21.7191L18.9939 18.6254C18.8816 18.4882 18.8104 18.322 18.7887 18.146C18.767 17.97 18.7956 17.7914 18.8714 17.631C18.9471 17.4707 19.0667 17.3351 19.2164 17.24C19.3661 17.1449 19.5397 17.0942 19.717 17.0938C19.7491 17.0936 19.7812 17.0951 19.8131 17.0984C19.9357 17.1103 20.0546 17.1465 20.1631 17.2048C20.2715 17.2632 20.3673 17.3425 20.4447 17.4383L22.0549 19.4047C22.0773 19.4314 22.1053 19.453 22.1368 19.468C22.1684 19.4829 22.2028 19.4909 22.2377 19.4914C22.2727 19.491 22.3071 19.4827 22.3385 19.4673C22.37 19.4519 22.3976 19.4297 22.4193 19.4023L25.7592 15.1871L25.7732 15.1695L27.4221 13.0895C27.5765 12.8946 27.8021 12.7691 28.0491 12.7405C28.2961 12.7119 28.5444 12.7826 28.7393 12.9371C28.9341 13.0916 29.0597 13.3171 29.0882 13.5642C29.1168 13.8112 29.0461 14.0594 28.8916 14.2543H28.8917Z" fill="black"/>
<path id="Vector_2" d="M17.6094 9.17188H18.3125C18.4368 9.17188 18.556 9.12249 18.644 9.03458C18.7319 8.94667 18.7812 8.82745 18.7812 8.70312V7.0625C18.7812 6.93818 18.7319 6.81895 18.644 6.73104C18.556 6.64314 18.4368 6.59375 18.3125 6.59375H17.6094C17.4851 6.59375 17.3658 6.64314 17.2779 6.73104C17.19 6.81895 17.1406 6.93818 17.1406 7.0625V8.70312C17.1406 8.82745 17.19 8.94667 17.2779 9.03458C17.3658 9.12249 17.4851 9.17188 17.6094 9.17188ZM17.6094 7.0625H18.3125V8.70312H17.6094V7.0625Z" fill="black"/>
<path id="Vector_3" d="M16.6722 9.17188C16.8017 9.17188 16.9066 9.06694 16.9066 8.9375C16.9066 8.80806 16.8017 8.70312 16.6722 8.70312C16.5428 8.70312 16.4379 8.80806 16.4379 8.9375C16.4379 9.06694 16.5428 9.17188 16.6722 9.17188Z" fill="black"/>
<path id="Vector_4" d="M15.0312 9.17188H15.7344C15.8587 9.17188 15.9779 9.12249 16.0658 9.03458C16.1537 8.94667 16.2031 8.82745 16.2031 8.70312V7.0625C16.2031 6.93818 16.1537 6.81895 16.0658 6.73104C15.9779 6.64314 15.8587 6.59375 15.7344 6.59375H15.0312C14.9069 6.59375 14.7877 6.64314 14.6998 6.73104C14.6119 6.81895 14.5625 6.93818 14.5625 7.0625V8.70312C14.5625 8.82745 14.6119 8.94667 14.6998 9.03458C14.7877 9.12249 14.9069 9.17188 15.0312 9.17188ZM15.0312 7.0625H15.7344V8.70312H15.0312V7.0625Z" fill="black"/>
</g>
</g>
</g>
</svg>
