<svg width="30" height="31" viewBox="0 0 30 31" fill="none" xmlns="http://www.w3.org/2000/svg">
<path d="M0.000488281 20.3695V29.3953H15.9329V30.6277H21.9974V29.9774H16.5694V24.0255H15.9329V28.7449H0.636969V20.3695H0.000488281Z" />
<path d="M24.7474 7.34174H23.9626V7.99205H24.7474V7.34174Z"/>
<path d="M27.9413 18.3375V9.20414H27.9418V3.18156H24.2808V0.197449H23.6444V3.18156H4.2972V0.197449H3.66072V3.18156H0V9.20414H0.000445534V19.4688H0.636926V9.20414H4.12554V8.55383H0.636926V7.99195H23.1324V7.34164H0.636926V3.83188H3.66072V5.30777H4.2972V3.83194H23.6444V5.30783H24.2809V3.83194H27.3049V7.3417H25.5033V7.99202H27.3049V8.55389H5.04837V9.20421H27.3048V18.1182C27.0518 18.0582 26.7888 18.0256 26.5183 18.0256C25.5468 18.0256 24.6674 18.4346 24.0352 19.0925V16.5141H24.0355V10.9129H23.9614V10.9127H23.9474H18.4794H3.9619V10.9129H3.96158V16.5141V26.5401H3.9619V26.5404H14.9308V25.8901H14.2891V21.5895H14.9308V20.9392H14.2891V16.5716H18.4794V20.3695H19.1159V16.5716H23.3109V20.1989C23.1575 20.5687 23.0638 20.9703 23.0418 21.391H22.4859V21.3906H18.7188V21.391H15.9324V23.1011H16.5689V22.0413H18.7188V27.06H22.4859V22.0413H23.0665C23.2007 23.1022 23.7937 24.0176 24.6354 24.5728V29.977H23.2965V30.6273H25.2719V29.2981H27.7789V24.898C29.0772 24.3808 30 23.0903 30 21.5829C30 20.1392 29.1534 18.8945 27.9413 18.3375ZM21.8494 26.4097H19.3553V22.0413H21.8494V26.4097ZM13.6526 15.8638H9.44359V11.5632H13.6526V15.8638ZM14.2891 11.5632H18.4794V15.8637H14.2891V11.5632ZM19.1159 11.5632H23.3109V15.8637H19.1159V11.5632ZM8.80711 11.5632V15.8637H4.59838V11.5632H8.80711ZM4.59838 25.8897V21.5894H8.80711V25.8897H4.59838ZM4.59838 20.9391V16.5716H8.80711V20.9391H4.59838ZM13.6526 25.8897H9.44359V21.5894H13.6526V25.8897ZM13.6526 20.9391H9.44359V16.5716H13.6526V20.9391ZM27.1425 28.6477H25.2719V24.9037C25.6591 25.056 26.0792 25.1404 26.5183 25.1404C26.7314 25.1404 26.9397 25.1196 27.1425 25.082V28.6477ZM26.5183 24.49C24.9495 24.49 23.6731 23.1858 23.6731 21.5829C23.6731 19.98 24.9495 18.6759 26.5183 18.6759C28.0871 18.6759 29.3635 19.98 29.3635 21.5829C29.3635 23.1858 28.0871 24.49 26.5183 24.49Z" />
<path d="M25.8068 23.3638L24.4189 21.9456L24.869 21.4858L25.8068 22.4439L28.1675 20.032L28.6175 20.4918L25.8068 23.3638Z" />
</svg>
