<svg width="30" height="24" viewBox="0 0 30 24" fill="none" xmlns="http://www.w3.org/2000/svg">
<g clip-path="url(#clip0_29_2062)">
<path d="M25.8117 1.81688C25.5331 1.61209 25.1682 1.49893 24.7898 1.50001H17.2898C17.2034 1.15961 17.0024 0.84454 16.7086 0.58876C16.488 0.400595 16.221 0.25111 15.9245 0.149767C15.628 0.0484238 15.3084 -0.00257105 14.9859 1.00559e-05C14.4413 -0.00719913 13.9108 0.139136 13.4874 0.413381C13.064 0.687627 12.7748 1.0723 12.6703 1.50001H5.15625C4.78329 1.50001 4.4256 1.61854 4.16188 1.82951C3.89816 2.04049 3.75 2.32664 3.75 2.62501V22.875C3.75 23.1734 3.89816 23.4595 4.16188 23.6705C4.4256 23.8815 4.78329 24 5.15625 24H24.8438C25.0289 24.0015 25.2127 23.9734 25.3841 23.9174C25.5556 23.8614 25.7114 23.7786 25.8423 23.6739C25.9733 23.5691 26.0768 23.4445 26.1468 23.3073C26.2168 23.1701 26.2519 23.0232 26.25 22.875V2.62501C26.2507 2.47339 26.2122 2.3233 26.1367 2.1842C26.0613 2.04511 25.9506 1.92004 25.8117 1.81688ZM13.0922 2.25001C13.2165 2.25001 13.3357 2.2105 13.4236 2.14018C13.5116 2.06985 13.5609 1.97447 13.5609 1.87501C13.558 1.72535 13.593 1.57677 13.6638 1.43824C13.7346 1.2997 13.8398 1.17407 13.973 1.06894C14.1061 0.963805 14.2646 0.881344 14.4387 0.82653C14.6128 0.771717 14.7989 0.745686 14.9859 0.75001C15.1811 0.745583 15.3752 0.774386 15.5554 0.83451C15.7357 0.894634 15.8978 0.984706 16.0313 1.09876C16.2719 1.31153 16.4055 1.58807 16.4063 1.87501C16.4063 1.97447 16.4556 2.06985 16.5435 2.14018C16.6315 2.2105 16.7507 2.25001 16.875 2.25001H19.6875V4.50001H10.3125V2.25001H13.0922ZM25.3125 22.875C25.3125 22.9745 25.2631 23.0698 25.1752 23.1402C25.0873 23.2105 24.9681 23.25 24.8438 23.25H5.15625C5.03193 23.25 4.9127 23.2105 4.82479 23.1402C4.73689 23.0698 4.6875 22.9745 4.6875 22.875V2.62501C4.6875 2.52555 4.73689 2.43017 4.82479 2.35985C4.9127 2.28952 5.03193 2.25001 5.15625 2.25001H9.375V4.87501C9.375 4.97447 9.42439 5.06985 9.51229 5.14017C9.6002 5.2105 9.71943 5.25001 9.84375 5.25001H20.1563C20.2806 5.25001 20.3998 5.2105 20.4877 5.14017C20.5756 5.06985 20.625 4.97447 20.625 4.87501V2.25001H24.7898C24.9307 2.24818 25.0672 2.28904 25.1719 2.36439C25.217 2.39744 25.2528 2.43774 25.277 2.48266C25.3013 2.52758 25.3134 2.57609 25.3125 2.62501V22.875Z" />
<path d="M22.9688 3.75H22.0312C21.9069 3.75 21.7877 3.78951 21.6998 3.85984C21.6119 3.93016 21.5625 4.02554 21.5625 4.125C21.5625 4.22446 21.6119 4.31984 21.6998 4.39016C21.7877 4.46049 21.9069 4.5 22.0312 4.5H22.5V21H7.5V4.5H7.96875C8.09307 4.5 8.2123 4.46049 8.30021 4.39016C8.38811 4.31984 8.4375 4.22446 8.4375 4.125C8.4375 4.02554 8.38811 3.93016 8.30021 3.85984C8.2123 3.78951 8.09307 3.75 7.96875 3.75H7.03125C6.90693 3.75 6.7877 3.78951 6.69979 3.85984C6.61189 3.93016 6.5625 4.02554 6.5625 4.125V21.375C6.5625 21.4745 6.61189 21.5698 6.69979 21.6402C6.7877 21.7105 6.90693 21.75 7.03125 21.75H22.9688C23.0931 21.75 23.2123 21.7105 23.3002 21.6402C23.3881 21.5698 23.4375 21.4745 23.4375 21.375V4.125C23.4375 4.02554 23.3881 3.93016 23.3002 3.85984C23.2123 3.78951 23.0931 3.75 22.9688 3.75Z" />
<path d="M15.4688 9H20.625C20.7493 9 20.8685 8.96049 20.9565 8.89017C21.0444 8.81984 21.0938 8.72446 21.0938 8.625C21.0938 8.52554 21.0444 8.43016 20.9565 8.35983C20.8685 8.28951 20.7493 8.25 20.625 8.25H15.4688C15.3444 8.25 15.2252 8.28951 15.1373 8.35983C15.0494 8.43016 15 8.52554 15 8.625C15 8.72446 15.0494 8.81984 15.1373 8.89017C15.2252 8.96049 15.3444 9 15.4688 9Z" />
<path d="M15.4688 11.25H19.2188C19.3431 11.25 19.4623 11.2105 19.5502 11.1402C19.6381 11.0698 19.6875 10.9745 19.6875 10.875C19.6875 10.7755 19.6381 10.6802 19.5502 10.6098C19.4623 10.5395 19.3431 10.5 19.2188 10.5H15.4688C15.3444 10.5 15.2252 10.5395 15.1373 10.6098C15.0494 10.6802 15 10.7755 15 10.875C15 10.9745 15.0494 11.0698 15.1373 11.1402C15.2252 11.2105 15.3444 11.25 15.4688 11.25Z" />
<path d="M10.7813 11.2125C10.8692 11.2823 10.988 11.3213 11.1117 11.3213H11.1328C11.1999 11.3205 11.266 11.3082 11.3267 11.2853C11.3873 11.2623 11.4411 11.2292 11.4844 11.1881L13.9524 8.81252C13.9952 8.77522 14.0281 8.73136 14.0492 8.6836C14.0703 8.63584 14.079 8.58516 14.0749 8.53462C14.0708 8.48408 14.054 8.43473 14.0254 8.38953C13.9968 8.34434 13.9571 8.30425 13.9086 8.27168C13.8601 8.23911 13.8039 8.21473 13.7433 8.20001C13.6828 8.1853 13.6191 8.18055 13.5562 8.18606C13.4932 8.19157 13.4323 8.20722 13.3772 8.23207C13.322 8.25692 13.2737 8.29045 13.2352 8.33064L11.0813 10.3931L9.7055 9.29439C9.61619 9.22988 9.49928 9.19531 9.379 9.19785C9.25871 9.20039 9.14425 9.23984 9.05931 9.30803C8.97438 9.37622 8.92548 9.46792 8.92273 9.56416C8.91998 9.6604 8.9636 9.7538 9.04456 9.82502L10.7813 11.2125Z" />
<path d="M20.625 14.25H15.4688C15.3444 14.25 15.2252 14.2105 15.1373 14.1402C15.0494 14.0698 15 13.9745 15 13.875C15 13.7755 15.0494 13.6802 15.1373 13.6098C15.2252 13.5395 15.3444 13.5 15.4688 13.5H20.625C20.7493 13.5 20.8685 13.5395 20.9565 13.6098C21.0444 13.6802 21.0938 13.7755 21.0938 13.875C21.0938 13.9745 21.0444 14.0698 20.9565 14.1402C20.8685 14.2105 20.7493 14.25 20.625 14.25Z" />
<path d="M19.2188 16.5H15.4688C15.3444 16.5 15.2252 16.4605 15.1373 16.3902C15.0494 16.3198 15 16.2245 15 16.125C15 16.0255 15.0494 15.9302 15.1373 15.8598C15.2252 15.7895 15.3444 15.75 15.4688 15.75H19.2188C19.3431 15.75 19.4623 15.7895 19.5502 15.8598C19.6381 15.9302 19.6875 16.0255 19.6875 16.125C19.6875 16.2245 19.6381 16.3198 19.5502 16.3902C19.4623 16.4605 19.3431 16.5 19.2188 16.5Z" />
<path d="M11.1117 16.5712C10.9879 16.5713 10.8691 16.5322 10.7812 16.4625L9.0445 15.0731C8.99737 15.0391 8.95938 14.9977 8.93283 14.9516C8.90628 14.9054 8.89173 14.8554 8.89006 14.8047C8.88838 14.7539 8.89962 14.7034 8.92309 14.6562C8.94657 14.609 8.98178 14.5661 9.0266 14.5301C9.07142 14.4941 9.12491 14.4658 9.18383 14.4468C9.24275 14.4279 9.30586 14.4187 9.36934 14.4199C9.43283 14.421 9.49535 14.4325 9.55313 14.4536C9.6109 14.4747 9.66272 14.5049 9.70544 14.5425L11.0812 15.6412L13.2351 13.5787C13.3153 13.5026 13.43 13.4552 13.5539 13.4467C13.6779 13.4383 13.801 13.4696 13.8961 13.5337C13.9912 13.5979 14.0505 13.6896 14.0611 13.7888C14.0716 13.8879 14.0325 13.9864 13.9523 14.0625L11.4843 16.4381C11.4424 16.478 11.3905 16.5104 11.332 16.5333C11.2734 16.5562 11.2096 16.5692 11.1445 16.5712H11.1117Z" />
</g>
<defs>
<clipPath id="clip0_29_2062">
<rect width="30" height="24" fill="white"/>
</clipPath>
</defs>
</svg>
