<svg width="30" height="27" viewBox="0 0 30 27" fill="none" xmlns="http://www.w3.org/2000/svg">
<path d="M29.3263 3.02268L28.4738 1.90643C28.1695 1.50995 27.7784 1.18852 27.3305 0.966834C26.8826 0.745153 26.3898 0.62913 25.89 0.627686H24.75C24.7259 0.627857 24.702 0.631219 24.6788 0.637686C23.0013 1.13766 21.5233 2.1521 20.4538 3.53768L20.2288 3.82768C20.2157 3.84393 20.2052 3.86205 20.1975 3.88143C20.0363 4.25143 18.6388 7.53018 19.0925 8.74143C19.4938 9.80893 20.1375 10.8052 20.7075 11.5589C16.87 14.2339 18.865 18.2752 19.5263 19.6139C19.632 19.825 19.6976 20.0539 19.72 20.2889C18.5675 20.0289 17.0325 19.8852 15.9038 20.5302C14.35 21.4177 11.6113 21.7477 10.75 21.8327V18.8802C10.7503 18.8658 10.7486 18.8515 10.745 18.8377C10.7374 18.7864 10.7133 18.739 10.6763 18.7027L7.67502 15.7014C7.65174 15.6781 7.62408 15.6595 7.59362 15.6469C7.56316 15.6342 7.5305 15.6277 7.49752 15.6277H3.25252C3.21954 15.6277 3.18688 15.6342 3.15643 15.6469C3.12597 15.6595 3.09831 15.6781 3.07502 15.7014L0.0737762 18.7027C0.0367742 18.739 0.0126354 18.7864 0.00502624 18.8377C0.00144754 18.8515 -0.000234418 18.8658 2.62461e-05 18.8802V23.1402C0.000168716 23.2065 0.0261777 23.2702 0.0725262 23.3177L3.07502 26.3252C3.09831 26.3485 3.12597 26.3671 3.15643 26.3797C3.18688 26.3924 3.21954 26.3989 3.25252 26.3989H7.49752C7.5305 26.3989 7.56316 26.3924 7.59362 26.3797C7.62408 26.3671 7.65174 26.3485 7.67502 26.3252L9.14502 24.8527C9.71252 25.0189 13.8888 26.2327 15.7113 26.5489C16.1089 26.6076 16.5106 26.634 16.9125 26.6277C19.2838 26.6277 23.0588 26.0302 23.25 26.0002C23.2912 25.9935 23.33 25.9766 23.363 25.951C23.3959 25.9255 23.422 25.8921 23.4388 25.8539C23.6737 25.2991 23.8404 24.7177 23.935 24.1227C24.0713 23.4139 24.1888 22.8014 24.7538 21.9889C29.5513 15.0964 28.38 10.2727 28.215 9.69518C28.5138 9.40393 28.82 9.11143 29.12 8.83268C29.99 7.99393 30 6.80143 30 6.75143V4.99393C29.9955 4.28111 29.759 3.58915 29.3263 3.02268ZM7.39377 16.1277L10.25 18.9889V23.0214L7.39377 25.8777H3.35627L0.500026 23.0214V18.9889L3.35627 16.1277H7.39377ZM29.5 6.75143C29.5 6.76143 29.4913 7.77893 28.7763 8.47018C28.425 8.79518 28.0663 9.14143 27.72 9.48143C26.5213 10.6564 25.48 11.7664 25.4663 11.7802C25.4208 11.8286 25.3965 11.893 25.3986 11.9594C25.4007 12.0257 25.4291 12.0885 25.4775 12.1339C25.5259 12.1793 25.5904 12.2037 25.6567 12.2016C25.7231 12.1995 25.7858 12.1711 25.8313 12.1227C25.8425 12.1089 26.7238 11.1702 27.795 10.1077C28.0263 11.2889 28.5025 15.7277 24.3438 21.7039C23.7175 22.6039 23.585 23.2952 23.4438 24.0277C23.3609 24.5408 23.2234 25.0437 23.0338 25.5277C22.1738 25.6589 17.4913 26.3502 15.7963 26.0564C14.2 25.7789 10.6375 24.7639 9.54877 24.4489L10.6775 23.3177C10.7239 23.2702 10.7499 23.2065 10.75 23.1402V22.3352C11.59 22.2577 14.4638 21.9289 16.1525 20.9639C17.235 20.3452 18.8225 20.5739 19.9163 20.8539C20.3369 20.9614 20.7506 21.0945 21.155 21.2527C21.2154 21.2741 21.2817 21.2715 21.3402 21.2455C21.3987 21.2195 21.4451 21.172 21.4696 21.1128C21.4941 21.0537 21.495 20.9873 21.4721 20.9275C21.4491 20.8677 21.4041 20.819 21.3463 20.7914C20.9805 20.645 20.6065 20.5198 20.2263 20.4164C20.2218 20.0599 20.1354 19.7092 19.9738 19.3914C18.9088 17.2352 17.8663 14.1277 21.0163 11.9527C21.4925 12.5439 21.8638 12.9177 21.8988 12.9527C21.9218 12.976 21.9493 12.9945 21.9795 13.0071C22.0098 13.0198 22.0422 13.0263 22.075 13.0264C22.1415 13.026 22.2053 12.9995 22.2525 12.9527C22.2758 12.9295 22.2942 12.9019 22.3068 12.8715C22.3194 12.8412 22.3258 12.8087 22.3258 12.7758C22.3258 12.7429 22.3194 12.7104 22.3068 12.6801C22.2942 12.6497 22.2758 12.6221 22.2525 12.5989C22.2338 12.5802 20.3575 10.6889 19.5613 8.56518C19.2388 7.70768 20.2213 5.08643 20.6425 4.10893L20.8488 3.84393C21.847 2.55072 23.2239 1.60119 24.7875 1.12769H25.89C26.3129 1.12888 26.73 1.22709 27.109 1.41476C27.488 1.60243 27.8189 1.87455 28.0763 2.21018L28.9287 3.32643C29.2956 3.80527 29.4962 4.39074 29.5 4.99393V6.75143Z" />
<path d="M24.56 13.4314C24.5275 13.4362 24.4962 13.4473 24.468 13.4641C24.4398 13.4809 24.4152 13.5032 24.3956 13.5295C24.376 13.5559 24.3617 13.5858 24.3537 13.6177C24.3457 13.6495 24.344 13.6827 24.3488 13.7152C24.725 16.3527 23.0213 18.8564 23.0038 18.8814C22.978 18.919 22.963 18.963 22.9604 19.0085C22.9577 19.054 22.9675 19.0994 22.9888 19.1397C23.01 19.1801 23.0418 19.2139 23.0807 19.2375C23.1197 19.2612 23.1644 19.2738 23.21 19.2739C23.2505 19.2741 23.2904 19.2642 23.3261 19.2452C23.3619 19.2263 23.3924 19.1988 23.415 19.1652C23.49 19.0577 25.2475 16.4789 24.8425 13.6439C24.8332 13.5783 24.7982 13.519 24.7453 13.4792C24.6923 13.4393 24.6256 13.4221 24.56 13.4314Z" />
<path d="M6.15492 14.4064C6.20056 14.4063 6.24613 14.4025 6.29117 14.3951C6.43849 14.3702 6.57536 14.303 6.68504 14.2015C6.79471 14.1 6.87242 13.9688 6.90867 13.8239C6.90992 13.8214 6.90992 13.8201 6.91117 13.8189C7.39528 12.0095 8.33065 10.3526 9.6297 9.00325C10.9287 7.65392 12.549 6.65633 14.3387 6.10388L14.4574 6.68388C14.4781 6.76987 14.5212 6.84884 14.5824 6.91273C14.6436 6.97661 14.7206 7.02313 14.8056 7.04753C14.8906 7.07192 14.9806 7.07333 15.0663 7.05161C15.1521 7.02989 15.2305 6.98582 15.2937 6.92388L17.3612 4.83638C17.4571 4.7459 17.5275 4.63167 17.5652 4.50525C17.6028 4.37884 17.6064 4.24472 17.5756 4.11646C17.5448 3.98821 17.4806 3.87037 17.3896 3.77488C17.2986 3.67938 17.184 3.60961 17.0574 3.57263L14.3162 2.76138C14.2321 2.73625 14.1429 2.73373 14.0576 2.75408C13.9723 2.77443 13.8939 2.81692 13.8302 2.87728C13.7666 2.93763 13.72 3.0137 13.6951 3.09782C13.6703 3.18194 13.668 3.27113 13.6887 3.35638L13.8324 3.95513C10.7174 5.02657 8.12493 7.24016 6.57867 10.1489C6.02704 11.1882 5.62155 12.2987 5.37367 13.4489C5.34729 13.5746 5.3517 13.7048 5.38653 13.8284C5.42135 13.9521 5.48556 14.0654 5.57367 14.1589C5.64822 14.238 5.73835 14.3009 5.83839 14.3435C5.93842 14.3861 6.0462 14.4075 6.15492 14.4064Z" />
<path d="M3.69637 24.8039C3.71965 24.8273 3.74731 24.8458 3.77777 24.8585C3.80823 24.8711 3.84089 24.8777 3.87387 24.8777H6.87637C6.90935 24.8777 6.94201 24.8711 6.97246 24.8585C7.00292 24.8458 7.03059 24.8273 7.05387 24.8039L9.17637 22.6814C9.19973 22.6581 9.21827 22.6305 9.23092 22.6C9.24358 22.5696 9.2501 22.5369 9.25012 22.5039V19.5014C9.2501 19.4685 9.24358 19.4358 9.23092 19.4053C9.21827 19.3749 9.19973 19.3472 9.17637 19.3239L7.05387 17.2014C7.03059 17.1781 7.00292 17.1595 6.97246 17.1469C6.94201 17.1342 6.90935 17.1277 6.87637 17.1277H3.87387C3.84089 17.1277 3.80823 17.1342 3.77777 17.1469C3.74731 17.1595 3.71965 17.1781 3.69637 17.2014L1.57387 19.3239C1.55051 19.3472 1.53197 19.3749 1.51931 19.4053C1.50666 19.4358 1.50014 19.4685 1.50012 19.5014V22.5039C1.50014 22.5369 1.50666 22.5696 1.51931 22.6C1.53197 22.6305 1.55051 22.6581 1.57387 22.6814L3.69637 24.8039ZM3.75012 21.0027C3.74989 20.6265 3.88013 20.2618 4.11864 19.9708C4.35716 19.6799 4.68919 19.4806 5.05816 19.4071C5.42712 19.3335 5.81018 19.3901 6.14205 19.5674C6.47392 19.7446 6.73407 20.0314 6.87815 20.379C7.02223 20.7265 7.04134 21.1133 6.93221 21.4733C6.82309 21.8334 6.59248 22.1444 6.27969 22.3535C5.9669 22.5626 5.59129 22.6567 5.21688 22.6199C4.84246 22.583 4.4924 22.4175 4.22637 22.1514C4.07483 22.0011 3.95468 21.8221 3.87293 21.6249C3.79117 21.4277 3.74942 21.2162 3.75012 21.0027Z" />
</svg>
