<svg width="30" height="31" viewBox="0 0 30 31" fill="none" xmlns="http://www.w3.org/2000/svg">
<path d="M5.47852 19.9167C3.21094 19.9167 1.5 20.7546 1.5 21.8679V24.95C1.5 26.0632 3.21094 26.9011 5.47852 26.9011C7.74609 26.9011 9.45703 26.0632 9.45703 24.95V21.8679C9.45703 20.7605 7.74609 19.9167 5.47852 19.9167ZM2.32031 22.8406C2.98828 23.3152 4.14258 23.6199 5.47852 23.6199C6.81445 23.6199 7.96875 23.3152 8.63672 22.8406V23.8484C8.18555 24.3289 7.01367 24.7507 5.47852 24.7507C3.94336 24.7507 2.77734 24.3289 2.32031 23.8484V22.8406ZM5.47852 20.7371C7.40625 20.7371 8.63672 21.405 8.63672 21.8679V22.3015C8.18555 22.782 7.01367 23.2039 5.47852 23.2039C3.94336 23.2039 2.77734 22.782 2.32031 22.3015V21.8679C2.32031 21.4109 3.55078 20.7371 5.47852 20.7371ZM5.47852 26.0867C3.55078 26.0867 2.32031 25.4187 2.32031 24.9558V24.3816C2.98828 24.8562 4.14258 25.1609 5.47852 25.1609C6.81445 25.1609 7.96875 24.8562 8.63672 24.3816V24.9558C8.63672 25.4128 7.40625 26.0867 5.47852 26.0867Z" />
<path d="M15 16.8347C12.7324 16.8347 11.0215 17.6726 11.0215 18.7859V24.95C11.0215 26.0632 12.7324 26.9011 15 26.9011C17.2676 26.9011 18.9785 26.0632 18.9785 24.95V18.7859C18.9785 17.6726 17.2676 16.8347 15 16.8347ZM18.1582 22.3015C17.707 22.782 16.5352 23.2039 15 23.2039C13.4648 23.2039 12.2988 22.782 11.8418 22.3015V21.2937C12.5098 21.7683 13.6641 22.073 15 22.073C16.3359 22.073 17.4902 21.7683 18.1582 21.2937V22.3015ZM18.1582 20.7605C17.707 21.241 16.5352 21.6628 15 21.6628C13.4648 21.6628 12.2988 21.241 11.8418 20.7605V19.7527C12.5098 20.2273 13.6641 20.532 15 20.532C16.3359 20.532 17.4902 20.2273 18.1582 19.7527V20.7605ZM11.8418 22.8406C12.5098 23.3152 13.6641 23.6199 15 23.6199C16.3359 23.6199 17.4902 23.3152 18.1582 22.8406V23.8484C17.707 24.3289 16.5352 24.7507 15 24.7507C13.4648 24.7507 12.2988 24.3289 11.8418 23.8484V22.8406ZM15 17.655C16.9277 17.655 18.1582 18.323 18.1582 18.7859V19.2195C17.707 19.6999 16.5352 20.1218 15 20.1218C13.4648 20.1218 12.2988 19.6999 11.8418 19.2195V18.7859C11.8418 18.3289 13.0723 17.655 15 17.655ZM15 26.0867C13.0723 26.0867 11.8418 25.4187 11.8418 24.9558V24.3816C12.5098 24.8562 13.6641 25.1609 15 25.1609C16.3359 25.1609 17.4902 24.8562 18.1582 24.3816V24.9558C18.1582 25.4128 16.9277 26.0867 15 26.0867Z" />
<path d="M24.5215 13.7527C22.2539 13.7527 20.543 14.5906 20.543 15.7039V24.95C20.543 26.0632 22.2539 26.9011 24.5215 26.9011C26.7891 26.9011 28.5 26.0632 28.5 24.95V15.7039C28.5 14.5906 26.7891 13.7527 24.5215 13.7527ZM27.6797 22.3015C27.2285 22.782 26.0566 23.2039 24.5215 23.2039C22.9863 23.2039 21.8203 22.782 21.3633 22.3015V21.2937C22.0312 21.7683 23.1855 22.073 24.5215 22.073C25.8574 22.073 27.0117 21.7683 27.6797 21.2937V22.3015ZM27.6797 20.7605C27.2285 21.241 26.0566 21.6628 24.5215 21.6628C22.9863 21.6628 21.8203 21.241 21.3633 20.7605V19.7527C22.0312 20.2273 23.1855 20.532 24.5215 20.532C25.8574 20.532 27.0117 20.2273 27.6797 19.7527V20.7605ZM27.6797 19.2195C27.2285 19.7 26.0566 20.1218 24.5215 20.1218C22.9863 20.1218 21.8203 19.7 21.3633 19.2195V18.2117C22.0312 18.6863 23.1855 18.991 24.5215 18.991C25.8574 18.991 27.0117 18.6863 27.6797 18.2117V19.2195ZM27.6797 17.6785C27.2285 18.1589 26.0566 18.5808 24.5215 18.5808C22.9863 18.5808 21.8203 18.1589 21.3633 17.6785V16.6707C22.0312 17.1453 23.1855 17.45 24.5215 17.45C25.8574 17.45 27.0117 17.1453 27.6797 16.6707V17.6785ZM21.3633 22.8406C22.0312 23.3152 23.1855 23.6199 24.5215 23.6199C25.8574 23.6199 27.0117 23.3152 27.6797 22.8406V23.8484C27.2285 24.3289 26.0566 24.7507 24.5215 24.7507C22.9863 24.7507 21.8203 24.3289 21.3633 23.8484V22.8406ZM24.5215 14.573C26.4492 14.573 27.6797 15.241 27.6797 15.7039V16.1375C27.2285 16.6179 26.0566 17.0398 24.5215 17.0398C22.9863 17.0398 21.8203 16.6179 21.3633 16.1375V15.7039C21.3633 15.2468 22.5937 14.573 24.5215 14.573ZM24.5215 26.0867C22.5937 26.0867 21.3633 25.4187 21.3633 24.9558V24.3816C22.0312 24.8562 23.1855 25.1609 24.5215 25.1609C25.8574 25.1609 27.0117 24.8562 27.6797 24.3816V24.9558C27.6797 25.4128 26.4492 26.0867 24.5215 26.0867Z" />
<path d="M5.47852 17.2156C6.31055 17.2156 6.99023 16.5359 6.99023 15.7039C6.99023 15.6628 6.99023 15.6218 6.98438 15.5867L13.7754 13.0789C14.0508 13.4539 14.4961 13.7 15 13.7C15.832 13.7 16.5117 13.0203 16.5117 12.1882C16.5117 12.0242 16.4883 11.8718 16.4414 11.7253L23.5371 7.00855C23.8008 7.23706 24.1465 7.37183 24.5215 7.37183C25.3535 7.37183 26.0332 6.69214 26.0332 5.86011C26.0332 5.02808 25.3535 4.34839 24.5215 4.34839C23.6895 4.34839 23.0098 5.02808 23.0098 5.86011C23.0098 6.02417 23.0332 6.17651 23.0801 6.323L15.9844 11.0398C15.7207 10.8113 15.375 10.6765 15 10.6765C14.168 10.6765 13.4883 11.3562 13.4883 12.1882C13.4883 12.2292 13.4883 12.2703 13.4941 12.3054L6.70313 14.8132C6.42773 14.4382 5.98242 14.1921 5.47852 14.1921C4.64648 14.1921 3.9668 14.8718 3.9668 15.7039C3.9668 16.5359 4.64648 17.2156 5.47852 17.2156ZM24.5215 5.1687C24.9023 5.1687 25.2129 5.47925 25.2129 5.86011C25.2129 6.24097 24.9023 6.55151 24.5215 6.55151C24.1406 6.55151 23.8301 6.24097 23.8301 5.86011C23.8301 5.47925 24.1406 5.1687 24.5215 5.1687ZM15 11.5027C15.3809 11.5027 15.6914 11.8132 15.6914 12.1941C15.6914 12.575 15.3809 12.8855 15 12.8855C14.707 12.8855 14.4551 12.698 14.3555 12.4402V12.4343C14.3555 12.4343 14.3555 12.4343 14.3555 12.4285C14.3262 12.3523 14.3145 12.2761 14.3145 12.1941C14.3086 11.8132 14.6191 11.5027 15 11.5027ZM5.47852 15.0125C5.85938 15.0125 6.16992 15.323 6.16992 15.7039C6.16992 16.0847 5.85938 16.3953 5.47852 16.3953C5.09766 16.3953 4.78711 16.0847 4.78711 15.7039C4.78711 15.323 5.09766 15.0125 5.47852 15.0125Z" />
</svg>
