<svg width="30" height="31" viewBox="0 0 30 31" fill="none" xmlns="http://www.w3.org/2000/svg">
<path d="M12.5156 26.7708H4.36404V4.48647H12.5156C12.5778 4.48647 12.6374 4.46178 12.6813 4.41783C12.7253 4.37387 12.75 4.31426 12.75 4.2521V2.50366C12.75 2.4415 12.7253 2.38189 12.6813 2.33793C12.6374 2.29398 12.5778 2.26929 12.5156 2.26929H2.38123C2.31907 2.26929 2.25945 2.29398 2.2155 2.33793C2.17154 2.38189 2.14685 2.4415 2.14685 2.50366V28.7537C2.14685 28.8158 2.17154 28.8754 2.2155 28.9194C2.25945 28.9633 2.31907 28.988 2.38123 28.988H12.5156C12.5778 28.988 12.6374 28.9633 12.6813 28.9194C12.7253 28.8754 12.75 28.8158 12.75 28.7537V27.0052C12.75 26.9431 12.7253 26.8834 12.6813 26.8395C12.6374 26.7955 12.5778 26.7708 12.5156 26.7708ZM12.2812 28.5193H2.6156V2.73804H12.2812V4.01772H4.12966C4.06788 4.01892 4.00896 4.044 3.96526 4.0877C3.92157 4.1314 3.89649 4.19032 3.89529 4.2521V27.0052C3.89649 27.067 3.92157 27.1259 3.96526 27.1696C4.00896 27.2133 4.06788 27.2384 4.12966 27.2396H12.2812V28.5193Z" />
<path d="M27.6187 14.5178H10.7437L16.2187 9.11308C16.2407 9.09129 16.2581 9.06537 16.27 9.03681C16.2819 9.00825 16.2881 8.97761 16.2881 8.94667C16.2881 8.91573 16.2819 8.8851 16.27 8.85654C16.2581 8.82798 16.2407 8.80205 16.2187 8.78027L15 7.5287C14.979 7.50619 14.9536 7.4883 14.9254 7.47619C14.8971 7.46408 14.8667 7.45802 14.8359 7.45839C14.774 7.46107 14.7146 7.48414 14.6672 7.52402L6.5906 15.46C6.54595 15.5048 6.52087 15.5654 6.52087 15.6287C6.52087 15.692 6.54595 15.7526 6.5906 15.7975L14.6625 23.7334C14.7065 23.7758 14.7654 23.7994 14.8265 23.799C14.8887 23.7937 14.9477 23.7691 14.9953 23.7287L16.2234 22.4771C16.2454 22.4554 16.2628 22.4294 16.2747 22.4009C16.2866 22.3723 16.2927 22.3417 16.2927 22.3107C16.2927 22.2798 16.2866 22.2492 16.2747 22.2206C16.2628 22.192 16.2454 22.1661 16.2234 22.1443L10.7203 16.7396H27.6187C27.6809 16.7396 27.7405 16.7149 27.7845 16.671C27.8284 16.627 27.8531 16.5674 27.8531 16.5053V14.7521C27.8531 14.69 27.8284 14.6304 27.7845 14.5864C27.7405 14.5425 27.6809 14.5178 27.6187 14.5178ZM27.3843 16.2709H10.1437C10.0975 16.2711 10.0523 16.285 10.0139 16.3109C9.97554 16.3368 9.94568 16.3734 9.9281 16.4162C9.91032 16.4587 9.90573 16.5056 9.91493 16.5507C9.92412 16.5958 9.94668 16.6372 9.97966 16.6693L15.7265 22.3178L14.8265 23.2318L7.08748 15.6287L14.8265 8.02558L15.7265 8.96308L9.97966 14.5881C9.94668 14.6202 9.92412 14.6616 9.91493 14.7067C9.90573 14.7518 9.91032 14.7987 9.9281 14.8412C9.94568 14.884 9.97554 14.9206 10.0139 14.9465C10.0523 14.9724 10.0975 14.9863 10.1437 14.9865H27.3843V16.2709Z" />
</svg>
