<svg width="33" height="33" viewBox="0 0 33 33" fill="none" xmlns="http://www.w3.org/2000/svg">
<g id="Frame" clip-path="url(#clip0_48_121)">
<g id="Layer 2">
<path id="Vector" d="M24.4999 11.5C24.3683 11.4992 24.2379 11.5245 24.116 11.5742C23.9942 11.624 23.8834 11.6973 23.7899 11.79L16.4999 19.09L9.20994 11.79C9.02164 11.6017 8.76624 11.4959 8.49994 11.4959C8.23364 11.4959 7.97825 11.6017 7.78994 11.79C7.60164 11.9783 7.49585 12.2337 7.49585 12.5C7.49585 12.7663 7.60164 13.0217 7.78994 13.21L15.7899 21.21C15.8829 21.3037 15.9935 21.3781 16.1154 21.4289C16.2372 21.4797 16.3679 21.5058 16.4999 21.5058C16.632 21.5058 16.7627 21.4797 16.8845 21.4289C17.0064 21.3781 17.117 21.3037 17.2099 21.21L25.2099 13.21C25.3037 13.117 25.3781 13.0064 25.4288 12.8846C25.4796 12.7627 25.5057 12.632 25.5057 12.5C25.5057 12.368 25.4796 12.2373 25.4288 12.1154C25.3781 11.9936 25.3037 11.883 25.2099 11.79C25.1165 11.6973 25.0057 11.624 24.8838 11.5742C24.762 11.5245 24.6315 11.4992 24.4999 11.5Z" fill="#434343"/>
</g>
</g>
<defs>
<clipPath id="clip0_48_121">
<rect width="32" height="32" fill="white" transform="matrix(1 0 0 -1 0.5 32.5)"/>
</clipPath>
</defs>
</svg>
