<svg width="35" height="35" viewBox="0 0 35 35" fill="none" xmlns="http://www.w3.org/2000/svg">
<g id="Layer_1">
<g id="Group">
<g id="Group_2">
<path id="Vector" d="M13.6529 13.3554C13.6529 13.3554 9.04459 13.8659 5.97042 14.2071C5.69334 14.2406 5.44834 14.4259 5.35646 14.7073C5.26459 14.9888 5.35646 15.2819 5.56063 15.4671C7.84438 17.5511 11.2758 20.6719 11.2758 20.6719C11.2729 20.6719 10.3338 25.2117 9.70959 28.2406C9.65709 28.5148 9.75625 28.805 9.99542 28.9786C10.2331 29.1521 10.5394 29.155 10.78 29.0194C13.4692 27.4911 17.4971 25.1927 17.4971 25.1927C17.4971 25.1927 21.5265 27.4911 24.2113 29.0209C24.4563 29.155 24.7625 29.1521 25.0002 28.9786C25.2394 28.805 25.3385 28.5148 25.2846 28.2421C24.6604 25.2117 23.7227 20.6719 23.7227 20.6719C23.7227 20.6719 27.1542 17.5511 29.4379 15.4715C29.6421 15.2804 29.7325 14.9873 29.6421 14.7073C29.5517 14.4273 29.3067 14.2421 29.0296 14.21C25.9554 13.8659 21.3456 13.3554 21.3456 13.3554C21.3456 13.3554 19.4352 9.12918 18.1621 6.31168C18.0425 6.05939 17.7917 5.88293 17.4971 5.88293C17.2025 5.88293 16.9502 6.06085 16.8365 6.31168C15.5619 9.12918 13.6529 13.3554 13.6529 13.3554Z" />
</g>
</g>
</g>
</svg>
