<svg width="30" height="31" viewBox="0 0 30 31" fill="none" xmlns="http://www.w3.org/2000/svg">
<g id="Desktop - 9" clip-path="url(#clip0_1_2)">
<g id="Sidebar">
<g id="Sidebar Elements">
<g id="Frame 12">
<g id="account-avatar-profile-user-svgrepo-com 1" clip-path="url(#clip1_1_2)">
<g id="Layer 2">
<g id="&#226;&#128;&#148;&#195;&#142;&#195;&#147;&#195;&#136; 1">
<path id="Vector" d="M15 30.6287C23.2843 30.6287 30 23.9129 30 15.6287C30 7.34439 23.2843 0.628662 15 0.628662C6.71573 0.628662 0 7.34439 0 15.6287C0 23.9129 6.71573 30.6287 15 30.6287Z" fill="#FFC200"/>
<path id="Vector_2" fill-rule="evenodd" clip-rule="evenodd" d="M25.5277 26.3122C22.6969 29.1024 18.8743 30.6548 14.8997 30.6283C10.925 30.6018 7.12342 28.9986 4.33008 26.1709C4.68732 25.183 5.38116 24.3525 6.28979 23.8253C6.90219 23.3725 7.56624 22.9941 8.26795 22.6981C7.20096 19.0316 10.1015 17.2291 11.2112 16.7102C11.2112 18.4029 12.7961 17.2796 14.7631 17.301C16.3825 17.3189 19.585 18.949 19.585 16.7986C21.3665 17.3257 23.3083 20.7209 21.9719 22.8068C22.5198 23.0747 23.0375 23.4005 23.5161 23.7787C24.4516 24.374 25.1601 25.2659 25.5277 26.3122Z" fill="#677079"/>
<path id="Vector_3" fill-rule="evenodd" clip-rule="evenodd" d="M11.666 19.4054L18.9087 19.4491V21.1175L18.9053 21.1433C18.9003 21.2188 18.889 21.2939 18.8714 21.3675L18.8471 21.5331L18.8325 21.5675C18.3636 24.0307 16.3117 24.9826 15.0447 25.6457C13.7097 24.9185 11.8223 23.6083 11.6723 21.2904L11.666 21.2617V21.1646C11.665 21.1311 11.6643 21.0976 11.6641 21.0641C11.6641 21.0816 11.6655 21.0981 11.666 21.1156V19.4054Z" fill="#F9DCA4"/>
<path id="Vector_4" opacity="0.11" fill-rule="evenodd" clip-rule="evenodd" d="M18.9093 19.3749V21.3191C18.9079 21.4993 18.8925 21.6791 18.8632 21.8569C18.8264 22.077 18.7645 22.2922 18.6787 22.4982C16.1622 24.3987 12.1525 22.8399 11.5122 19.5938L18.9093 19.3749Z" fill="black"/>
<path id="Vector_5" fill-rule="evenodd" clip-rule="evenodd" d="M8.7884 12.8787C6.39033 13.4952 8.42917 16.4175 9.93743 16.4049C9.32919 15.3152 8.93892 14.1175 8.7884 12.8787Z" fill="#F9DCA4"/>
<path id="Vector_6" fill-rule="evenodd" clip-rule="evenodd" d="M21.2801 12.8787C23.6782 13.4952 21.6394 16.4175 20.1306 16.4044C20.739 15.3149 21.1295 14.1174 21.2801 12.8787Z" fill="#F9DCA4"/>
<path id="Vector_7" fill-rule="evenodd" clip-rule="evenodd" d="M14.919 6.14368C24.8817 6.14368 20.9991 21.8942 14.919 21.8942C9.17629 21.8942 4.95637 6.14368 14.919 6.14368Z" fill="#FFE8BE"/>
<path id="Vector_8" fill-rule="evenodd" clip-rule="evenodd" d="M10.2171 11.3593C10.3021 11.4525 10.3651 11.5635 10.4015 11.6842C10.4379 11.805 10.4468 11.9323 10.4276 12.0569C10.4083 12.1816 10.3613 12.3003 10.2901 12.4044C10.2189 12.5084 10.1253 12.5952 10.0161 12.6583C9.3122 13.2375 9.28647 15.2569 9.28647 15.2569C9.01463 14.987 9.02094 13.5414 8.43162 12.7059C7.84229 11.8705 7.4452 6.02482 10.7408 3.89909C10.5383 4.13729 10.3924 4.41827 10.3139 4.72093C10.2355 5.02359 10.2266 5.34008 10.2879 5.64667C10.2879 5.64667 12.5773 2.36365 16.3753 2.45831C16.0742 2.62249 15.8111 2.84827 15.6031 3.12094C15.3951 3.39361 15.2468 3.70705 15.168 4.04084C15.168 4.04084 18.4884 2.67093 21.2554 4.30055C20.536 4.49938 19.8557 4.81898 19.2433 5.24569C20.587 5.28259 21.8855 5.5321 22.8647 6.40298C22.6539 6.47063 22.4589 6.57983 22.2911 6.72412C22.1233 6.86842 21.9861 7.04488 21.8876 7.24308C21.7892 7.44129 21.7314 7.65722 21.7178 7.87812C21.7042 8.09902 21.735 8.3204 21.8084 8.5292C22.2239 10.2297 22.2627 11.8117 21.8603 12.6622C21.4579 13.5127 21.2681 12.9637 21.0161 14.7472C21.0038 14.8677 20.9636 14.9836 20.8987 15.0859C20.8338 15.1882 20.7461 15.274 20.6423 15.3365C20.6326 15.4656 20.8278 13.5132 20.3244 12.9933C19.8215 12.4739 20.1375 11.8355 20.3385 11.4579C21.7414 8.82338 17.5399 7.62968 15.2433 7.6326C13.2515 7.63502 8.44715 8.54037 10.2171 11.3593Z" fill="#8A5C42"/>
<path id="Vector_9" fill-rule="evenodd" clip-rule="evenodd" d="M9.60681 24.4938C9.62137 24.5123 14.6641 31.039 20.5923 24.3967C19.8763 26.3637 16.7879 27.9259 15.0214 27.921C11.6476 27.9113 9.7806 25.2026 9.60681 24.4938Z" fill="#434955"/>
<path id="Vector_10" fill-rule="evenodd" clip-rule="evenodd" d="M17.6389 30.3972C17.4398 30.4322 17.2398 30.4627 17.0384 30.4904V26.1521C17.0458 26.0794 17.0813 26.0125 17.1373 25.9657C17.1934 25.9189 17.2656 25.8959 17.3384 25.9016C17.4113 25.8957 17.4835 25.9187 17.5397 25.9655C17.5959 26.0123 17.6315 26.0793 17.6389 26.1521V30.3972ZM12.8719 30.4778C12.6706 30.449 12.4704 30.4166 12.2714 30.3807V26.1521C12.2787 26.0794 12.3143 26.0125 12.3703 25.9657C12.4264 25.9189 12.4985 25.8959 12.5714 25.9016C12.6443 25.8956 12.7167 25.9185 12.773 25.9653C12.8293 26.0122 12.865 26.0792 12.8723 26.1521L12.8719 30.4778Z" fill="#E6E6E6"/>
</g>
</g>
</g>
</g>
</g>
</g>
</g>
<defs>
<clipPath id="clip0_1_2">
<rect width="1440" height="1024" fill="white" transform="translate(-19 -614)"/>
</clipPath>
<clipPath id="clip1_1_2">
<rect width="30" height="30" fill="white" transform="translate(0 0.628662)"/>
</clipPath>
</defs>
</svg>
