<svg width="30" height="31" viewBox="0 0 30 31" fill="none" xmlns="http://www.w3.org/2000/svg">
<path d="M28.53 12.699C28.2375 12.4677 27.8653 12.3618 27.4949 12.4046C27.1244 12.4475 26.7862 12.6355 26.5542 12.9275L25.3125 14.4931V7.19116C25.3112 6.19701 24.9156 5.24396 24.2127 4.54098C23.5097 3.83801 22.5567 3.4425 21.5625 3.44116H4.6875C3.69328 3.44228 2.7401 3.83773 2.03708 4.54074C1.33406 5.24376 0.938617 6.19694 0.9375 7.19116V24.0662C0.938617 25.0604 1.33406 26.0136 2.03708 26.7166C2.7401 27.4196 3.69328 27.815 4.6875 27.8162H21.5625C22.5567 27.8148 23.5097 27.4193 24.2127 26.7163C24.9156 26.0134 25.3112 25.0603 25.3125 24.0662V19.0224L28.7591 14.6736C28.9901 14.3812 29.0957 14.0091 29.0527 13.6389C29.0098 13.2688 28.8218 12.9307 28.53 12.699ZM22.7344 25.4724C22.549 25.4724 22.3677 25.4174 22.2135 25.3144C22.0594 25.2114 21.9392 25.065 21.8682 24.8937C21.7973 24.7224 21.7787 24.5339 21.8149 24.352C21.8511 24.1702 21.9403 24.0031 22.0715 23.872C22.2026 23.7409 22.3696 23.6516 22.5515 23.6154C22.7333 23.5793 22.9218 23.5978 23.0931 23.6688C23.2644 23.7397 23.4109 23.8599 23.5139 24.0141C23.6169 24.1682 23.6719 24.3495 23.6719 24.5349C23.6715 24.7834 23.5727 25.0217 23.3969 25.1974C23.2212 25.3732 22.9829 25.4721 22.7344 25.4724ZM6.79687 6.25366C6.79706 6.19156 6.82181 6.13205 6.86573 6.08814C6.90964 6.04423 6.96915 6.01947 7.03125 6.01929H19.2187C19.2809 6.01947 19.3404 6.04423 19.3843 6.08814C19.4282 6.13205 19.4529 6.19156 19.4531 6.25366V9.76929C19.4529 9.83139 19.4282 9.8909 19.3843 9.93481C19.3404 9.97872 19.2809 10.0035 19.2187 10.0037H7.03125C6.96915 10.0035 6.90964 9.97872 6.86573 9.93481C6.82181 9.8909 6.79706 9.83139 6.79687 9.76929V6.25366ZM23.6719 6.72241C23.6719 6.90783 23.6169 7.08909 23.5139 7.24326C23.4109 7.39743 23.2644 7.51759 23.0931 7.58855C22.9218 7.65951 22.7333 7.67807 22.5515 7.6419C22.3696 7.60572 22.2026 7.51644 22.0715 7.38532C21.9403 7.25421 21.8511 7.08717 21.8149 6.90531C21.7787 6.72345 21.7973 6.53495 21.8682 6.36365C21.9392 6.19234 22.0594 6.04592 22.2135 5.94291C22.3677 5.8399 22.549 5.78491 22.7344 5.78491C22.9829 5.78525 23.2212 5.88413 23.3969 6.05988C23.5727 6.23562 23.6715 6.47388 23.6719 6.72241ZM2.57812 24.5349C2.57812 24.3495 2.63311 24.1682 2.73612 24.0141C2.83914 23.8599 2.98555 23.7397 3.15686 23.6688C3.32816 23.5978 3.51666 23.5793 3.69852 23.6154C3.88038 23.6516 4.04743 23.7409 4.17854 23.872C4.30965 24.0031 4.39894 24.1702 4.43511 24.352C4.47128 24.5339 4.45272 24.7224 4.38176 24.8937C4.3108 25.065 4.19064 25.2114 4.03647 25.3144C3.8823 25.4174 3.70104 25.4724 3.51562 25.4724C3.26709 25.4721 3.02883 25.3732 2.85309 25.1974C2.67735 25.0217 2.57847 24.7834 2.57812 24.5349ZM3.51562 7.65991C3.3302 7.65991 3.14895 7.60493 2.99478 7.50191C2.84061 7.3989 2.72044 7.25248 2.64949 7.08118C2.57853 6.90987 2.55997 6.72137 2.59614 6.53952C2.63231 6.35766 2.7216 6.19061 2.85271 6.0595C2.98382 5.92839 3.15087 5.8391 3.33273 5.80293C3.51458 5.76675 3.70308 5.78532 3.87439 5.85628C4.0457 5.92723 4.19211 6.04739 4.29513 6.20157C4.39814 6.35574 4.45312 6.53699 4.45312 6.72241C4.45278 6.97095 4.3539 7.20921 4.17816 7.38495C4.00242 7.56069 3.76416 7.65957 3.51562 7.65991ZM11.7187 27.3474V23.8318C11.7187 23.4588 11.8669 23.1011 12.1306 22.8374C12.3944 22.5737 12.752 22.4255 13.125 22.4255C13.498 22.4255 13.8556 22.5737 14.1194 22.8374C14.3831 23.1011 14.5312 23.4588 14.5312 23.8318V27.3474H11.7187ZM28.3917 14.383L24.8842 18.8103L22.4853 21.8361C22.3989 21.946 22.2888 22.0349 22.1632 22.0964C22.0376 22.1579 21.8998 22.1903 21.76 22.1912H21.7506C21.6118 22.1914 21.4746 22.1608 21.3491 22.1014C21.2236 22.042 21.113 21.9554 21.0252 21.8478L18.4939 18.7541C18.3816 18.6169 18.3104 18.4506 18.2887 18.2746C18.267 18.0986 18.2956 17.9201 18.3714 17.7597C18.4471 17.5993 18.5667 17.4637 18.7164 17.3686C18.8661 17.2735 19.0397 17.2228 19.217 17.2224C19.2491 17.2222 19.2812 17.2238 19.3131 17.2271C19.4357 17.239 19.5546 17.2751 19.6631 17.3335C19.7715 17.3918 19.8673 17.4712 19.9447 17.5669L21.5549 19.5333C21.5773 19.5601 21.6053 19.5817 21.6368 19.5966C21.6684 19.6116 21.7028 19.6196 21.7377 19.6201C21.7727 19.6196 21.8071 19.6114 21.8385 19.596C21.87 19.5806 21.8976 19.5584 21.9193 19.531L25.2592 15.3158L25.2732 15.2982L26.9221 13.2181C27.0765 13.0232 27.3021 12.8977 27.5491 12.8691C27.7961 12.8406 28.0444 12.9113 28.2393 13.0658C28.4341 13.2202 28.5597 13.4458 28.5882 13.6928C28.6168 13.9398 28.5461 14.1881 28.3916 14.383H28.3917Z" />
<path d="M17.1094 9.30054H17.8125C17.9368 9.30054 18.056 9.25115 18.144 9.16324C18.2319 9.07534 18.2812 8.95611 18.2812 8.83179V7.19116C18.2812 7.06684 18.2319 6.94761 18.144 6.85971C18.056 6.7718 17.9368 6.72241 17.8125 6.72241H17.1094C16.9851 6.72241 16.8658 6.7718 16.7779 6.85971C16.69 6.94761 16.6406 7.06684 16.6406 7.19116V8.83179C16.6406 8.95611 16.69 9.07534 16.7779 9.16324C16.8658 9.25115 16.9851 9.30054 17.1094 9.30054ZM17.1094 7.19116H17.8125V8.83179H17.1094V7.19116Z" />
<path d="M16.1722 9.30054C16.3017 9.30054 16.4066 9.1956 16.4066 9.06616C16.4066 8.93672 16.3017 8.83179 16.1722 8.83179C16.0428 8.83179 15.9379 8.93672 15.9379 9.06616C15.9379 9.1956 16.0428 9.30054 16.1722 9.30054Z" />
<path d="M14.5312 9.30054H15.2344C15.3587 9.30054 15.4779 9.25115 15.5658 9.16324C15.6537 9.07534 15.7031 8.95611 15.7031 8.83179V7.19116C15.7031 7.06684 15.6537 6.94761 15.5658 6.85971C15.4779 6.7718 15.3587 6.72241 15.2344 6.72241H14.5312C14.4069 6.72241 14.2877 6.7718 14.1998 6.85971C14.1119 6.94761 14.0625 7.06684 14.0625 7.19116V8.83179C14.0625 8.95611 14.1119 9.07534 14.1998 9.16324C14.2877 9.25115 14.4069 9.30054 14.5312 9.30054ZM14.5312 7.19116H15.2344V8.83179H14.5312V7.19116Z" />
</svg>
