<svg width="30" height="31" viewBox="0 0 30 31" fill="none" xmlns="http://www.w3.org/2000/svg">
<g clip-path="url(#clip0_29_2021)">
<path d="M26.5397 12.5572V20.6434C26.5397 22.1111 25.3808 23.3121 23.9642 23.3121H7.73108C6.31464 23.3121 5.15552 22.1113 5.15552 20.6434V7.52991"  stroke-miterlimit="10" stroke-linecap="round" stroke-linejoin="round"/>
<path d="M26.5397 7.52991V10.158"  stroke-miterlimit="10" stroke-linecap="round" stroke-linejoin="round"/>
<path opacity="0.3" d="M27.2382 5.06715H18.6791C18.6681 4.84403 18.3399 4.17468 17.9383 4.17468H13.6427C13.2411 4.17468 12.913 4.84403 12.902 5.06715H4.34284C3.79999 5.06715 3.29138 5.29072 3.29138 5.83735V6.11379C3.29138 6.66043 3.79999 7.29832 4.34284 7.29832H27.2382C27.7811 7.29832 28.0543 6.66021 28.0543 6.11379V5.83735C28.0543 5.29072 27.7811 5.06715 27.2382 5.06715ZM17.5081 5.95962H14.1438C13.8705 5.95962 13.647 5.79652 13.647 5.51339C13.647 5.23025 13.8705 5.06715 14.1438 5.06715H17.5079C17.7812 5.06715 18.0047 5.23025 18.0047 5.51339C18.0049 5.79652 17.7814 5.95962 17.5081 5.95962Z" />
<path d="M27.2382 4.95558H18.6791C18.6681 4.73246 18.3399 4.06311 17.9383 4.06311H13.6427C13.2411 4.06311 12.913 4.73246 12.902 4.95558H4.34284C3.79999 4.95558 3.39905 5.32127 3.39905 5.88375V6.16822C3.39905 6.7307 3.79999 7.40987 4.34284 7.40987H27.2382C27.7811 7.40987 28.162 6.7307 28.162 6.16822V5.88375C28.162 5.32127 27.7811 4.95558 27.2382 4.95558Z"  stroke-miterlimit="10" stroke-linecap="round" stroke-linejoin="round"/>
<path d="M17.5606 5.94287H14.091C13.8468 5.94287 13.647 5.73582 13.647 5.48281V5.3737C13.647 5.12069 13.8468 4.91364 14.091 4.91364H17.5606C17.8048 4.91364 18.0048 5.12069 18.0048 5.3737V5.48281C18.0048 5.7356 17.805 5.94287 17.5606 5.94287Z"  stroke-miterlimit="10" stroke-linecap="round" stroke-linejoin="round"/>
<path d="M1.60779 10.1807V12.5203"  stroke-miterlimit="10" stroke-linecap="round" stroke-linejoin="round"/>
<path d="M0.47876 11.3506H2.73671"  stroke-miterlimit="10" stroke-linecap="round" stroke-linejoin="round"/>
<path d="M9.70605 13.3863V14.787"  stroke-miterlimit="10" stroke-linecap="round" stroke-linejoin="round"/>
<path d="M9.03015 14.0867H10.382"  stroke-miterlimit="10" stroke-linecap="round" stroke-linejoin="round"/>
<path d="M21.5779 10.6502V12.0509"  stroke-miterlimit="10" stroke-linecap="round" stroke-linejoin="round"/>
<path d="M22.2538 11.3506H20.902"  stroke-miterlimit="10" stroke-linecap="round" stroke-linejoin="round"/>
<path d="M29.3497 15.1311V17.4707"  stroke-miterlimit="10" stroke-linecap="round" stroke-linejoin="round"/>
<path d="M30.4787 16.3009H28.2207"  stroke-miterlimit="10" stroke-linecap="round" stroke-linejoin="round"/>
<path d="M15.8501 23.3121L15.8478 26.5348"  stroke-miterlimit="10" stroke-linecap="round" stroke-linejoin="round"/>
<path d="M15.8477 28.1975C16.2908 28.1975 16.6501 27.8253 16.6501 27.3661C16.6501 26.907 16.2908 26.5348 15.8477 26.5348C15.4046 26.5348 15.0454 26.907 15.0454 27.3661C15.0454 27.8253 15.4046 28.1975 15.8477 28.1975Z"  stroke-miterlimit="10" stroke-linecap="round" stroke-linejoin="round"/>
<path d="M20.9393 16.8977L25.876 12.1826"  stroke-miterlimit="10" stroke-linecap="round" stroke-linejoin="round"/>
<path d="M16.7946 14.067L19.2293 16.8038"  stroke-miterlimit="10" stroke-linecap="round" stroke-linejoin="round"/>
<path d="M10.1333 18.6724L15.0995 13.9289"  stroke-miterlimit="10" stroke-linecap="round" stroke-linejoin="round"/>
<path opacity="0.3" d="M26.8765 12.5663C27.5207 12.4872 27.981 11.8819 27.9047 11.2144C27.8283 10.547 27.2442 10.07 26.6 10.1491C25.9558 10.2282 25.4955 10.8335 25.5718 11.5009C25.6482 12.1684 26.2323 12.6454 26.8765 12.5663Z" />
<path d="M26.8765 12.5663C27.5207 12.4872 27.981 11.8819 27.9047 11.2144C27.8283 10.547 27.2442 10.07 26.6 10.1491C25.9558 10.2282 25.4955 10.8335 25.5718 11.5009C25.6482 12.1684 26.2323 12.6454 26.8765 12.5663Z"  stroke-miterlimit="10" stroke-linecap="round" stroke-linejoin="round"/>
<path opacity="0.3" d="M20.1786 18.8914C20.8228 18.8123 21.2831 18.2071 21.2068 17.5396C21.1304 16.8721 20.5463 16.3951 19.9021 16.4742C19.2579 16.5534 18.7976 17.1586 18.874 17.8261C18.9503 18.4936 19.5344 18.9705 20.1786 18.8914Z" />
<path d="M20.1786 18.8914C20.8228 18.8123 21.2831 18.2071 21.2068 17.5396C21.1304 16.8721 20.5463 16.3951 19.9021 16.4742C19.2579 16.5534 18.7976 17.1586 18.874 17.8261C18.9503 18.4936 19.5344 18.9705 20.1786 18.8914Z"  stroke-miterlimit="10" stroke-linecap="round" stroke-linejoin="round"/>
<path opacity="0.3" d="M16.1477 14.3687C16.7919 14.2896 17.2522 13.6843 17.1759 13.0169C17.0995 12.3494 16.5154 11.8724 15.8712 11.9515C15.2271 12.0307 14.7667 12.6359 14.8431 13.3034C14.9194 13.9709 15.5036 14.4478 16.1477 14.3687Z" />
<path d="M16.1477 14.3687C16.7919 14.2896 17.2522 13.6843 17.1759 13.0169C17.0995 12.3494 16.5154 11.8724 15.8712 11.9515C15.2271 12.0307 14.7667 12.6359 14.8431 13.3034C14.9194 13.9709 15.5036 14.4478 16.1477 14.3687Z"  stroke-miterlimit="10" stroke-linecap="round" stroke-linejoin="round"/>
<path opacity="0.3" d="M9.40739 20.7049C10.0516 20.6258 10.5119 20.0206 10.4355 19.3531C10.3592 18.6856 9.77507 18.2087 9.13088 18.2878C8.48669 18.3669 8.02638 18.9721 8.10273 19.6396C8.17909 20.3071 8.7632 20.7841 9.40739 20.7049Z" />
<path d="M9.40739 20.7049C10.0516 20.6258 10.5119 20.0206 10.4355 19.3531C10.3592 18.6856 9.77507 18.2087 9.13088 18.2878C8.48669 18.3669 8.02638 18.9721 8.10273 19.6396C8.17909 20.3071 8.7632 20.7841 9.40739 20.7049Z"  stroke-miterlimit="10" stroke-linecap="round" stroke-linejoin="round"/>
<path opacity="0.3" d="M26.5398 7.35651H5.15576V8.83332H26.5398V7.35651Z" />
</g>
<defs>
<clipPath id="clip0_29_2021">
<rect width="30" height="30" fill="white" transform="translate(0 0.197449)"/>
</clipPath>
</defs>
</svg>
