<svg width="30" height="31" viewBox="0 0 30 31" fill="none" xmlns="http://www.w3.org/2000/svg">
<path d="M11.3068 8.0675L10.6046 10.5542C9.35459 10.9121 8.21296 11.5747 7.28217 12.4826L4.76805 11.8438L3.33289 14.3288L5.14654 16.2127C4.99116 16.8293 4.91122 17.4624 4.90849 18.0983C4.9119 18.7525 4.99705 19.4038 5.16195 20.0369L3.33289 21.9157L4.76805 24.399L7.32841 23.7653C8.24545 24.6443 9.36202 25.2878 10.5824 25.6406L11.3068 28.2112H14.1754L14.917 25.644C16.1463 25.2916 17.2709 24.6443 18.1932 23.7584L20.7775 24.399L22.2127 21.9157L20.3699 20.0232C20.5314 19.3942 20.6142 18.7477 20.6166 18.0983C20.6129 17.4688 20.5335 16.8421 20.3802 16.2315L22.2127 14.3288L20.7775 11.8438L18.2532 12.4843C17.3126 11.5643 16.156 10.8953 14.8896 10.5388L14.1754 8.0675H11.3068ZM10.805 14.7501H14.7406L16.6861 18.1222L14.72 21.5286H10.8256L8.85777 18.1222L10.805 14.7501Z"  stroke-width="0.935314" stroke-linecap="round" stroke-linejoin="round"/>
<path d="M21.9917 3.04614L21.6903 4.11139C21.1542 4.26488 20.6646 4.54911 20.2654 4.93858L19.1865 4.66456L18.5717 5.7298L19.3492 6.53644C19.2828 6.80137 19.2488 7.07339 19.2481 7.34651C19.2493 7.62737 19.2855 7.90698 19.356 8.17884L18.5717 8.98377L19.1865 10.049L20.2843 9.7767C20.6777 10.1534 21.1567 10.429 21.68 10.5799L21.9917 11.6828H23.2214L23.5382 10.5816C24.0652 10.4305 24.5472 10.153 24.9426 9.77328L26.0523 10.049L26.6672 8.98377L25.8759 8.17027C25.9452 7.90112 25.9809 7.62443 25.9821 7.34651C25.9807 7.07625 25.9468 6.80715 25.8811 6.54501L26.6672 5.7298L26.0523 4.66456L24.9683 4.94029C24.5652 4.54527 24.0694 4.25789 23.5262 4.10454L23.2214 3.04614H21.9917ZM21.776 5.91134H23.4629L24.2969 7.35678L23.4543 8.81764H21.7845L20.9419 7.35678L21.776 5.91134Z"  stroke-width="0.935314" stroke-linecap="round" stroke-linejoin="round"/>
</svg>
